<svg width="13" height="10" viewBox="0 0 13 10" fill="none" xmlns="http://www.w3.org/2000/svg">
<path fill-rule="evenodd" clip-rule="evenodd" d="M8.73715 5C8.73715 6.2273 7.73554 7.22222 6.5 7.22222C5.26446 7.22222 4.26285 6.2273 4.26285 5C4.26285 3.7727 5.26446 2.77778 6.5 2.77778C7.73554 2.77778 8.73715 3.7727 8.73715 5ZM7.61857 5C7.61857 5.61365 7.11777 6.11111 6.5 6.11111C5.88223 6.11111 5.38143 5.61365 5.38143 5C5.38143 4.38635 5.88223 3.88889 6.5 3.88889C7.11777 3.88889 7.61857 4.38635 7.61857 5Z" fill="#A2A2A2"/>
<path fill-rule="evenodd" clip-rule="evenodd" d="M6.5 0C9.62726 0 12.255 2.12462 13 5C12.255 7.87538 9.62726 10 6.5 10C3.37274 10 0.745042 7.87538 0 5C0.745042 2.12462 3.37274 0 6.5 0ZM6.5 8.88889C3.99688 8.88889 1.87544 7.25452 1.16286 5C1.87544 2.74548 3.99688 1.11111 6.5 1.11111C9.00312 1.11111 11.1246 2.74548 11.8371 5C11.1246 7.25452 9.00313 8.88889 6.5 8.88889Z" fill="#A2A2A2"/>
</svg>
