<svg width="22" height="16" viewBox="0 0 22 16" fill="none" xmlns="http://www.w3.org/2000/svg">
<path fill-rule="evenodd" clip-rule="evenodd" d="M6.41667 3.55556C4.89788 3.55556 3.66667 4.74946 3.66667 6.22222C3.66667 7.69498 4.89788 8.88889 6.41667 8.88889C7.93545 8.88889 9.16667 7.69498 9.16667 6.22222C9.16667 4.74946 7.93545 3.55556 6.41667 3.55556ZM5.5 6.22222C5.5 5.7313 5.91041 5.33333 6.41667 5.33333C6.92293 5.33333 7.33333 5.7313 7.33333 6.22222C7.33333 6.71314 6.92293 7.11111 6.41667 7.11111C5.91041 7.11111 5.5 6.71314 5.5 6.22222Z" fill="#F2F2F2"/>
<path fill-rule="evenodd" clip-rule="evenodd" d="M2.75 0C1.23122 0 0 1.19391 0 2.66667V13.3333C0 14.8061 1.23122 16 2.75 16H19.25C20.7688 16 22 14.8061 22 13.3333V2.66667C22 1.19391 20.7688 0 19.25 0H2.75ZM19.25 1.77778H2.75C2.24374 1.77778 1.83333 2.17575 1.83333 2.66667V13.3333C1.83333 13.8243 2.24374 14.2222 2.75 14.2222H6.70427L13.0097 8.10787C14.0836 7.06647 15.8248 7.06647 16.8988 8.10787L20.1667 11.2767V2.66667C20.1667 2.17575 19.7563 1.77778 19.25 1.77778ZM19.25 14.2222H9.29699L14.3061 9.36495C14.664 9.01782 15.2444 9.01782 15.6024 9.36495L20.0814 13.7082C19.9356 14.0118 19.6181 14.2222 19.25 14.2222Z" fill="#F2F2F2"/>
</svg>
