<svg width="25" height="25" viewBox="0 0 25 25" fill="none" xmlns="http://www.w3.org/2000/svg">
<path fill-rule="evenodd" clip-rule="evenodd" d="M12.4618 0.171509C13.3282 0.171509 14.0961 0.729429 14.3639 1.55347L16.3845 7.77232H22.9234C23.7898 7.77232 24.5577 8.33024 24.8255 9.15429C25.0932 9.97833 24.7999 10.8811 24.0989 11.3904L18.8089 15.2338L20.8295 21.4527C21.0973 22.2767 20.8039 23.1794 20.103 23.6887C19.402 24.198 18.4528 24.198 17.7518 23.6887L12.4618 19.8453L7.17169 23.6887C6.47072 24.198 5.52152 24.198 4.82055 23.6887C4.11957 23.1794 3.82626 22.2767 4.09401 21.4527L6.11463 15.2338L0.824566 11.3904C0.123591 10.8811 -0.169725 9.97833 0.0980234 9.15429C0.365772 8.33024 1.13368 7.77232 2.00014 7.77232H8.53902L10.5596 1.55347C10.8274 0.729429 11.5953 0.171509 12.4618 0.171509ZM9.9921 9.77232H2.00014L8.46577 14.4699L5.99612 22.0707L12.4618 17.3731L18.9274 22.0707L16.4577 14.4699L22.9234 9.77232H14.9314L12.4618 2.17151L9.9921 9.77232Z" fill="#F2F2F2"/>
</svg>
