<svg width="20" height="20" viewBox="0 0 20 20" fill="none" xmlns="http://www.w3.org/2000/svg">
<path d="M15.8332 9.9997C15.3724 9.9997 14.9999 10.3731 14.9999 10.833V17.4999C14.9999 17.9591 14.6266 18.3332 14.1667 18.3332H2.49999C2.03994 18.3332 1.66671 17.9591 1.66671 17.4999V5.83285C1.66671 5.3737 2.03994 4.99955 2.49999 4.99955H9.16669C9.6275 4.99955 9.99997 4.62615 9.99997 4.16624C9.99997 3.70617 9.6275 3.33278 9.16669 3.33278H2.49999C1.12167 3.33278 0 4.45448 0 5.83285V17.4999C0 18.8783 1.12167 20 2.49999 20H14.1667C15.545 20 16.6667 18.8783 16.6667 17.4999V10.833C16.6667 10.3722 16.294 9.9997 15.8332 9.9997Z" fill="#A2A2A2"/>
<path d="M7.81328 9.24052C7.75499 9.29881 7.71578 9.37297 7.69915 9.45292L7.11001 12.3998C7.08254 12.5364 7.12588 12.6772 7.22414 12.7764C7.30333 12.8556 7.40999 12.898 7.51925 12.898C7.5458 12.898 7.57341 12.8956 7.60088 12.8898L10.5467 12.3006C10.6284 12.2838 10.7025 12.2448 10.76 12.1863L17.3533 5.59279L14.4075 2.64699L7.81328 9.24052Z" fill="#A2A2A2"/>
<path d="M19.39 0.609416C18.5776 -0.203139 17.2559 -0.203139 16.4441 0.609416L15.2908 1.76271L18.2367 4.70866L19.39 3.55521C19.7833 3.16275 20 2.63935 20 2.0827C20 1.52604 19.7833 1.00265 19.39 0.609416Z" fill="#A2A2A2"/>
</svg>
