<svg width="14" height="13" viewBox="0 0 14 13" fill="none" xmlns="http://www.w3.org/2000/svg">
<path fill-rule="evenodd" clip-rule="evenodd" d="M3.11111 0C4.56076 0 5.77884 0.974826 6.12421 2.29412H12.4444V3.82353H6.12421C5.77884 5.14282 4.56076 6.11765 3.11111 6.11765C1.39289 6.11765 0 4.74817 0 3.05882C0 1.36948 1.39289 0 3.11111 0ZM3.11111 4.58824C3.97022 4.58824 4.66667 3.90349 4.66667 3.05882C4.66667 2.21415 3.97022 1.52941 3.11111 1.52941C2.252 1.52941 1.55556 2.21415 1.55556 3.05882C1.55556 3.90349 2.252 4.58824 3.11111 4.58824Z" fill="#A2A2A2"/>
<path fill-rule="evenodd" clip-rule="evenodd" d="M10.8889 13C9.43924 13 8.22116 12.0252 7.87579 10.7059H1.55556V9.17647H7.87579C8.22116 7.85718 9.43924 6.88235 10.8889 6.88235C12.6071 6.88235 14 8.25183 14 9.94118C14 11.6305 12.6071 13 10.8889 13ZM10.8889 11.4706C11.748 11.4706 12.4444 10.7858 12.4444 9.94118C12.4444 9.09651 11.748 8.41177 10.8889 8.41177C10.0298 8.41177 9.33333 9.09651 9.33333 9.94118C9.33333 10.7858 10.0298 11.4706 10.8889 11.4706Z" fill="#A2A2A2"/>
</svg>
