<svg width="18" height="18" viewBox="0 0 18 18" fill="none" xmlns="http://www.w3.org/2000/svg">
<g clip-path="url(#clip0_2_329)">
<path d="M12.1925 5.99616L10.8695 5.94763L10.5826 13.7805L11.9056 13.8288L12.1925 5.99616Z" fill="#686868"/>
<path d="M9.63391 5.97192H8.31006V13.8048H9.63391V5.97192Z" fill="#686868"/>
<path d="M7.35909 13.7804L7.07226 5.94745L5.74927 5.99601L6.03613 13.8289L7.35909 13.7804Z" fill="#686868"/>
<path d="M1.09436 2.70642V4.03028H2.47384L3.56821 16.4665C3.59821 16.8083 3.88441 17.0704 4.22749 17.0704H13.6929C14.0361 17.0704 14.3225 16.8081 14.3522 16.4663L15.4466 4.03028H16.8484V2.70642H1.09436ZM13.0866 15.7466H4.83363L3.80278 4.03028H14.1177L13.0866 15.7466Z" fill="#686868"/>
<path d="M11.1342 0.168945H6.80951C6.20119 0.168945 5.7063 0.66384 5.7063 1.27216V3.3683H7.03015V1.4928H10.9135V3.3683H12.2374V1.27216C12.2374 0.66384 11.7425 0.168945 11.1342 0.168945Z" fill="#686868"/>
</g>
<defs>
<clipPath id="clip0_2_329">
<rect width="16.9014" height="16.9014" fill="white" transform="translate(0.520996 0.168945)"/>
</clipPath>
</defs>
</svg>
