<svg width="38" height="38" viewBox="0 0 38 38" fill="none" xmlns="http://www.w3.org/2000/svg">
<g clip-path="url(#clip0)">
<path d="M37.2171 9.87823C36.779 8.25036 35.4955 6.96719 33.868 6.52884C30.8943 5.71504 18.9996 5.71504 18.9996 5.71504C18.9996 5.71504 7.10526 5.71504 4.13159 6.49781C2.53531 6.93588 1.22055 8.25065 0.782483 9.87823C0 12.8516 0 19.0181 0 19.0181C0 19.0181 0 25.2156 0.782483 28.158C1.22084 29.7856 2.504 31.069 4.13188 31.5074C7.13657 32.3212 18.9999 32.3212 18.9999 32.3212C18.9999 32.3212 30.8943 32.3212 33.868 31.5384C35.4958 31.1004 36.779 29.8169 37.2174 28.1893C37.9998 25.2156 37.9998 19.0494 37.9998 19.0494C37.9998 19.0494 38.0312 12.8516 37.2171 9.87823Z" fill="#E90202"/>
<path d="M15.213 24.715L25.1041 19.0181L15.213 13.3212V24.715Z" fill="white"/>
</g>
<defs>
<clipPath id="clip0">
<rect width="38" height="38" fill="white"/>
</clipPath>
</defs>
</svg>
