<svg width="55" height="27" viewBox="0 0 55 27" fill="none" xmlns="http://www.w3.org/2000/svg">
<path d="M12.9036 0.28999L24.2796 4.714C21.9622 6.82066 20.0662 9.87533 18.5916 13.878C17.1169 17.8807 16.7482 21.7253 17.4856 25.412L0.579569 26.518C-0.157764 22.5153 -0.0524309 18.8287 0.895569 15.458C1.9489 12.0873 3.58157 9.13799 5.79357 6.60999C8.00557 3.97666 10.3756 1.86999 12.9036 0.28999ZM43.3001 0.28999L54.6761 4.714C52.3587 6.82066 50.4627 9.87533 48.9881 13.878C47.5134 17.8807 47.1447 21.7253 47.8821 25.412L30.9761 26.518C30.2387 22.5153 30.3441 18.8287 31.2921 15.458C32.3454 12.0873 33.9781 9.13799 36.1901 6.60999C38.4021 3.97666 40.7721 1.86999 43.3001 0.28999Z" fill="#01173C"/>
</svg>
