<svg width="96" height="97" viewBox="0 0 96 97" fill="none" xmlns="http://www.w3.org/2000/svg">
<g clip-path="url(#clip0)">
<path d="M88.0193 34.0318L88.0225 34.0334C85.0051 34.044 82.253 35.7592 80.9144 38.4636L60.7327 31.2549C60.838 30.5905 60.8915 29.9186 60.8923 29.2457C60.8913 26.5155 60.0094 23.8586 58.3772 21.67L69.641 14.1597C72.7883 17.2982 77.8842 17.2912 81.0227 14.1439C84.1613 10.9966 84.1543 5.90072 81.007 2.76219C77.8597 -0.376346 72.7638 -0.369364 69.6252 2.77795C67.3401 5.06926 66.6499 8.50642 67.8727 11.5025L56.1413 19.3224C51.5922 15.6229 45.1011 15.5208 40.4377 19.0751L35.5654 12.9867C38.1117 9.30696 37.1926 4.25974 33.5127 1.71348C29.8329 -0.832773 24.7857 0.0862644 22.2395 3.7662C19.6932 7.44595 20.6122 12.4932 24.2922 15.0394C26.9737 16.8949 30.506 16.9619 33.2561 15.2098L38.1396 21.3125C36.6835 23.1392 35.7591 25.332 35.4681 27.6498H16.0476C15.1663 23.3319 10.9513 20.5461 6.63339 21.4274C2.31549 22.3087 -0.470349 26.5237 0.410985 30.8416C1.29232 35.1595 5.50728 37.9453 9.82518 37.064C12.9589 36.4243 15.4078 33.9753 16.0476 30.8416H35.4617C35.6392 32.3044 36.0713 33.725 36.7384 35.0388L12.7106 54.5678C9.03202 52.0228 3.98699 52.9416 1.44193 56.6201C-1.10312 60.2987 -0.184284 65.3437 3.49426 67.8888C7.1728 70.4338 12.2178 69.515 14.7629 65.8364C16.6183 63.1547 16.6843 59.6216 14.9305 56.8723L39.1243 37.2156C40.0006 37.1209 40.6342 36.3339 40.5394 35.4575C40.5107 35.1912 40.4153 34.9363 40.2619 34.7164C37.2415 30.3756 38.3117 24.4079 42.6526 21.3875C46.9934 18.3671 52.9611 19.4373 55.9815 23.7782C58.269 27.0655 58.269 31.4291 55.9815 34.7164L58.5988 36.5406C59.0758 35.841 59.4811 35.0951 59.8085 34.3143L80.0859 41.5565C80.0764 41.716 80.0397 41.8549 80.0397 42.0113C80.0397 46.4182 83.6123 49.9908 88.0191 49.9908C92.426 49.9908 95.9986 46.4182 95.9986 42.0113C95.9988 37.6044 92.4262 34.0318 88.0193 34.0318ZM75.2554 3.71135C77.8996 3.71135 80.0431 5.85484 80.0431 8.49904C80.0431 11.1432 77.8996 13.2867 75.2554 13.2867C72.6112 13.2867 70.4677 11.1432 70.4677 8.49904C70.4677 5.85484 72.6112 3.71135 75.2554 3.71135ZM28.9743 13.2867C26.3301 13.2867 24.1867 11.1432 24.1867 8.49904C24.1867 5.85484 26.3301 3.71135 28.9743 3.71135C31.6186 3.71135 33.762 5.85484 33.762 8.49904C33.762 11.1432 31.6186 13.2867 28.9743 13.2867ZM8.22769 34.0334C5.58349 34.0334 3.44 31.8899 3.44 29.2457C3.44 26.6015 5.58349 24.458 8.22769 24.458C10.8719 24.458 13.0154 26.6015 13.0154 29.2457C13.0154 31.8899 10.8719 34.0334 8.22769 34.0334ZM8.22769 65.9513C5.58349 65.9513 3.44 63.8079 3.44 61.1637C3.44 58.5195 5.58349 56.376 8.22769 56.376C10.8719 56.376 13.0154 58.5195 13.0154 61.1637C13.0154 63.8079 10.8719 65.9513 8.22769 65.9513ZM88.0225 46.8006C85.3783 46.8006 83.2348 44.6571 83.2348 42.0129C83.2348 39.3687 85.3783 37.2252 88.0225 37.2252C90.6667 37.2252 92.8102 39.3687 92.8102 42.0129C92.8102 44.6571 90.6667 46.8006 88.0225 46.8006Z" fill="#01173C"/>
<path d="M76.8506 51.5883C75.0174 51.5873 73.2726 52.3765 72.063 53.754C69.7377 51.1097 65.7091 50.8512 63.0651 53.1766C62.8604 53.3566 62.6677 53.5495 62.4876 53.754C60.4803 51.4706 57.1397 50.9226 54.5081 52.4453V32.4375C54.5081 28.912 51.65 26.054 48.1245 26.054C44.599 26.054 41.7409 28.912 41.7409 32.4375V58.1315C39.6415 55.9844 36.7643 54.7761 33.7614 54.7801C32.8801 54.7801 32.1655 55.4947 32.1655 56.376V85.1022C32.1655 85.5255 32.3339 85.9312 32.6331 86.2305L42.6761 96.2735H47.1893L35.3573 84.4415V58.1315C39.0704 58.8945 41.7367 62.1607 41.7409 65.9514V77.1227C41.7409 78.004 42.4555 78.7186 43.3368 78.7186C44.2181 78.7186 44.9327 78.004 44.9327 77.1227V32.4375C44.9327 30.6747 46.3616 29.2458 48.1245 29.2458C49.8874 29.2458 51.3163 30.6747 51.3163 32.4375V61.1637C51.3163 62.045 52.0309 62.7596 52.9122 62.7596C53.7935 62.7596 54.5081 62.045 54.5081 61.1637V57.9719C54.5081 56.209 55.937 54.7801 57.6999 54.7801C59.4627 54.7801 60.8917 56.209 60.8917 57.9719V61.1637C60.8917 62.045 61.6062 62.7596 62.4876 62.7596C63.3689 62.7596 64.0835 62.045 64.0835 61.1637V57.9719C64.0835 56.209 65.5124 54.7801 67.2753 54.7801C69.0381 54.7801 70.4671 56.209 70.4671 57.9719V61.1637C70.4671 62.045 71.1816 62.7596 72.063 62.7596C72.9443 62.7596 73.6589 62.045 73.6589 61.1637V57.9719C73.6589 56.209 75.0878 54.7801 76.8506 54.7801C78.6135 54.7801 80.0424 56.209 80.0424 57.9719V96.2735H83.2342V57.9719C83.2342 54.4464 80.3762 51.5883 76.8506 51.5883Z" fill="#01173C"/>
</g>
<defs>
<clipPath id="clip0">
<rect width="96" height="96" fill="white" transform="translate(0 0.273438)"/>
</clipPath>
</defs>
</svg>
