<svg width="136" height="109" viewBox="0 0 136 109" fill="none" xmlns="http://www.w3.org/2000/svg">
<path d="M135.359 12.3847C134.661 10.6981 133.015 9.59835 131.189 9.59809H124.423C124.418 4.61445 120.379 0.575801 115.395 0.570511H38.6601C33.6767 0.576329 29.638 4.61471 29.6325 9.59809V45.7086H20.6047C15.6213 45.7145 11.5826 49.7531 11.5771 54.7365H4.81083C2.98537 54.7365 1.3395 55.8362 0.641 57.5228C-0.0574978 59.2094 0.328646 61.1507 1.61932 62.4416L11.5771 72.3994V99.8746C11.5829 104.858 15.6213 108.897 20.6047 108.902H97.3397C102.323 108.896 106.362 104.858 106.367 99.8746V63.7641H115.395C120.378 63.7588 124.417 59.7201 124.422 54.7365V27.2613L134.38 17.3035C135.671 16.0126 136.058 14.0713 135.359 12.3847ZM60.4177 104.389H37.2279C37.1858 104.348 37.1501 104.333 37.1049 104.285C36.4934 103.603 36.2575 102.663 36.4747 101.773C36.7293 100.657 37.7257 99.8677 38.8706 99.8746H58.9723C59.5714 99.882 60.1379 100.148 60.5261 100.604C60.9898 101.104 61.2418 101.764 61.2291 102.446C61.2305 103.176 60.9379 103.876 60.4177 104.389ZM58.9723 95.361H38.6601C37.4136 95.361 36.4032 94.3506 36.4032 93.1041C36.4032 91.8576 37.4136 90.8473 38.6601 90.8473H58.9723C60.2188 90.8473 61.2291 91.8576 61.2291 93.1041C61.2291 94.3506 60.2186 95.361 58.9723 95.361ZM40.9169 84.0763C40.9277 82.9996 41.7066 82.0842 42.7677 81.9017C42.9 81.9422 43.0359 81.9694 43.1737 81.9837H53.0122C54.0268 82.3714 54.6192 83.4288 54.4203 84.4966C54.2212 85.5643 53.2875 86.3371 52.2016 86.3334H43.174C41.928 86.3318 40.9185 85.3223 40.9169 84.0763ZM81.5414 104.389H65.4704C65.6478 103.756 65.7396 103.103 65.7431 102.446C65.7552 100.685 65.1123 98.9828 63.9393 97.6696C65.769 95.7006 66.2548 92.8333 65.1763 90.3712C64.0977 87.9094 61.6602 86.3228 58.9723 86.3331H58.5565C59.5402 83.6999 58.7425 80.7327 56.5713 78.9477C56.4952 78.7364 56.3878 78.5375 56.2526 78.3579C52.7771 73.8022 52.6083 65.6001 53.3169 61.5136C53.4489 60.7849 53.8749 60.1428 54.4949 59.7384C55.1839 59.2869 56.0284 59.1388 56.83 59.3284C58.1294 59.7048 59.0104 60.9119 58.9723 62.2642V65.1912C58.9311 69.146 60.1173 73.0162 62.3675 76.2685C64.0863 78.8716 66.6108 80.8396 69.5548 81.8713C73.9933 83.6719 78.0579 86.2826 81.5414 89.5704V104.389ZM101.854 99.8749C101.851 102.367 99.8317 104.386 97.3397 104.389H86.055V86.9197H101.853V99.8749H101.854ZM101.854 82.4058H86.0553C84.5872 82.4079 83.2121 83.1252 82.3705 84.3281C78.9841 81.4349 75.1211 79.1516 70.9534 77.5801C68.9391 76.8414 67.2197 75.4674 66.0549 73.6657C64.3437 71.1743 63.4463 68.2137 63.4862 65.1912V62.2642C63.5468 59.5096 62.0675 56.9507 59.6499 55.6288C57.2323 54.307 54.2796 54.4426 51.9934 55.9806C50.3436 57.0663 49.2142 58.7841 48.8715 60.7291C47.9767 66.3036 48.5424 72.0148 50.5128 77.3055H43.174C40.924 77.2976 38.8182 78.4116 37.559 80.2762C36.2998 82.1408 36.0528 84.5103 36.9005 86.5944C34.6148 87.194 32.8126 88.951 32.1549 91.2202C31.4971 93.4897 32.0803 95.9378 33.691 97.667C32.8737 98.562 32.3101 99.6591 32.0581 100.844C31.8079 102.016 31.8385 103.231 32.1483 104.389H20.6047C18.1127 104.386 16.0934 102.367 16.0907 99.8746V76.9131L18.0788 78.9012C18.648 79.4754 19.4811 79.701 20.2624 79.4931C21.0437 79.2849 21.6539 78.6748 21.862 77.8935C22.0702 77.1122 21.8445 76.2794 21.2704 75.7099L15.4396 69.8789L15.4155 69.8548L4.81083 59.2501H19.6747C20.9212 59.2501 21.9316 58.2398 21.9316 56.9933C21.9316 55.7468 20.9212 54.7365 19.6747 54.7365H16.091C16.0934 52.2445 18.113 50.2252 20.6049 50.2226H97.34C99.8319 50.2249 101.851 52.2445 101.854 54.7365V82.4058H101.854ZM120.585 24.7159L120.559 24.7421L114.729 30.5718C114.155 31.141 113.93 31.9741 114.138 32.7554C114.346 33.5366 114.956 34.1468 115.737 34.3549C116.519 34.5631 117.351 34.3372 117.921 33.7633L119.909 31.7755V54.737C119.906 57.2287 117.887 59.248 115.395 59.2509H106.368V54.737C106.362 49.7536 102.323 45.715 97.34 45.7094H34.1461V9.59809C34.1485 7.10613 36.1681 5.08681 38.6601 5.08417H115.395C117.887 5.08708 119.906 7.10613 119.909 9.59809H116.325C115.079 9.59809 114.068 10.6084 114.068 11.8549C114.068 13.1014 115.079 14.1117 116.325 14.1117H131.189L120.585 24.7159Z" fill="#01173C"/>
<path d="M56.7151 23.1396C51.7293 23.1396 47.6875 27.1814 47.6875 32.1671C47.6875 37.1529 51.7293 41.1947 56.7151 41.1947C61.7008 41.1947 65.7426 37.1529 65.7426 32.1671C65.7371 27.1838 61.6987 23.1454 56.7151 23.1396ZM56.7151 36.6811C54.2221 36.6811 52.2012 34.6602 52.2012 32.1671C52.2012 29.6741 54.2221 27.6532 56.7151 27.6532C59.2081 27.6532 61.229 29.6741 61.229 32.1671C61.2266 34.6591 59.207 36.6787 56.7151 36.6811Z" fill="#01173C"/>
<path d="M77.0276 23.1396C72.0418 23.1396 68 27.1814 68 32.1671C68 37.1529 72.0418 41.1947 77.0276 41.1947C82.0133 41.1947 86.0551 37.1529 86.0551 32.1671C86.0496 27.1838 82.0112 23.1454 77.0276 23.1396ZM77.0276 36.6811C74.5346 36.6811 72.5137 34.6602 72.5137 32.1671C72.5137 29.6741 74.5346 27.6532 77.0276 27.6532C79.5206 27.6532 81.5415 29.6741 81.5415 32.1671C81.5391 34.6591 79.5195 36.6787 77.0276 36.6811Z" fill="#01173C"/>
<path d="M97.3396 23.1396C92.3538 23.1396 88.312 27.1814 88.312 32.1671C88.312 37.1529 92.3538 41.1947 97.3396 41.1947C102.323 41.1889 106.362 37.1505 106.367 32.1671C106.367 27.1814 102.326 23.1396 97.3396 23.1396ZM97.3396 36.6811C94.8476 36.6787 92.8283 34.6591 92.8257 32.1671C92.8257 29.6741 94.8466 27.6532 97.3396 27.6532C99.8326 27.6532 101.854 29.6741 101.854 32.1671C101.854 34.6602 99.8326 36.6811 97.3396 36.6811Z" fill="#01173C"/>
</svg>
