<svg width="18" height="17" viewBox="0 0 18 17" fill="none" xmlns="http://www.w3.org/2000/svg">
<g clip-path="url(#clip0)">
<path d="M16.5616 8.33582H1.66921C1.08272 8.33582 0.605469 8.78847 0.605469 9.34473C0.605469 9.90098 1.08272 10.3536 1.66921 10.3536H16.5616C17.1481 10.3536 17.6253 9.90098 17.6253 9.34473C17.6253 8.78847 17.1481 8.33582 16.5616 8.33582ZM16.5616 9.68101H1.66921C1.47418 9.68101 1.31462 9.53033 1.31462 9.34469C1.31462 9.15906 1.47418 9.00838 1.66921 9.00838H16.5616C16.7566 9.00838 16.9162 9.15906 16.9162 9.34469C16.9162 9.53033 16.7566 9.68101 16.5616 9.68101Z" fill="#A2A2A2"/>
<path d="M16.6594 9.69375C16.4673 9.64331 16.2744 9.74622 16.2212 9.92514L15.244 13.1698C15.0277 13.8875 14.3263 14.3892 13.5391 14.3892H4.69235C3.90518 14.3892 3.20454 13.8875 2.98754 13.1698L2.01029 9.92511C1.9571 9.74618 1.7635 9.64328 1.57203 9.69372C1.38338 9.74483 1.27488 9.93047 1.3288 10.1094L2.30601 13.3541C2.60881 14.3596 3.58958 15.0618 4.69235 15.0618H13.5384C14.6411 15.0618 15.6227 14.3596 15.9255 13.3541L16.9027 10.1094C16.9566 9.93116 16.8481 9.74486 16.6594 9.69375Z" fill="#A2A2A2"/>
<path d="M4.69233 13.0447C4.5349 13.0447 4.39518 12.9438 4.35124 12.8005L3.891 11.271C3.83782 11.0928 3.64279 10.9885 3.45274 11.0396C3.26483 11.0907 3.15559 11.2764 3.20951 11.4553L3.66975 12.9848C3.79882 13.4159 4.22007 13.7166 4.69237 13.7166C4.8881 13.7166 5.04696 13.5666 5.04696 13.381C5.04692 13.1953 4.88806 13.0447 4.69233 13.0447Z" fill="#A2A2A2"/>
<path d="M5.37313 14.4242C5.19798 14.3428 4.98593 14.408 4.89727 14.5749L4.18812 15.9201C4.1009 16.0862 4.1718 16.288 4.34698 16.3714C4.39874 16.3956 4.45266 16.4071 4.50585 16.4071C4.63562 16.4071 4.76045 16.3391 4.82284 16.2208L5.53199 14.8755C5.61922 14.7094 5.54828 14.5076 5.37313 14.4242Z" fill="#A2A2A2"/>
<path d="M14.0426 15.9208L13.3335 14.5756C13.2456 14.4088 13.0328 14.3422 12.8576 14.4249C12.6825 14.5083 12.6116 14.7101 12.6988 14.8762L13.4079 16.2215C13.4703 16.3392 13.5951 16.4071 13.7249 16.4071C13.7781 16.4071 13.832 16.3957 13.8838 16.3721C14.059 16.2887 14.1299 16.0869 14.0426 15.9208Z" fill="#A2A2A2"/>
<path d="M14.849 0.324341C14.4873 0.324341 14.1469 0.458179 13.8909 0.701012L12.7655 1.76844C12.6272 1.8996 12.6272 2.11283 12.7655 2.24398C12.9037 2.37514 13.1286 2.37514 13.2668 2.24398L14.3923 1.17722C14.5135 1.06154 14.6759 0.997632 14.8525 0.997632C15.2085 0.997632 15.4978 1.27206 15.4978 1.60969V8.67207C15.4978 8.85771 15.6567 9.00839 15.8524 9.00839C16.0481 9.00839 16.207 8.85771 16.2077 8.67141V1.60903C16.2077 0.900776 15.6007 0.324341 14.849 0.324341Z" fill="#A2A2A2"/>
<path d="M13.6221 2.10546L12.9129 1.43286C12.8314 1.35552 12.7186 1.31986 12.6045 1.33869L10.8316 1.61447C10.7011 1.63398 10.594 1.72141 10.5522 1.84046C10.5104 1.95951 10.5422 2.09067 10.6344 2.18012L12.7619 4.25847C12.8286 4.32506 12.9215 4.36072 13.0158 4.36072C13.0491 4.36072 13.0832 4.35602 13.1172 4.34726C13.2434 4.31229 13.3392 4.21342 13.3647 4.091L13.7193 2.40949C13.7427 2.29917 13.7058 2.18482 13.6221 2.10546ZM12.8002 3.33094L11.6152 2.1734L12.5392 2.03014L12.9853 2.45322L12.8002 3.33094Z" fill="#A2A2A2"/>
<path d="M9.01115 4.39903C8.87286 4.26787 8.64805 4.26787 8.50976 4.39903L7.80061 5.07163C7.66233 5.20278 7.66233 5.41601 7.80061 5.54717C7.87012 5.6124 7.96087 5.64538 8.05166 5.64538C8.14244 5.64538 8.23319 5.61243 8.302 5.54717L9.01115 4.87457C9.14943 4.74338 9.14943 4.53019 9.01115 4.39903Z" fill="#A2A2A2"/>
<path d="M10.4295 5.74424C10.2912 5.61308 10.0664 5.61308 9.9281 5.74424L9.21895 6.41684C9.08066 6.548 9.08066 6.76123 9.21895 6.89239C9.28846 6.95762 9.37921 6.9906 9.46999 6.9906C9.56078 6.9906 9.65153 6.95765 9.72034 6.89239L10.4295 6.21979C10.5678 6.08863 10.5678 5.8754 10.4295 5.74424Z" fill="#A2A2A2"/>
<path d="M11.1386 3.72642C11.0003 3.59526 10.7755 3.59526 10.6372 3.72642L9.92809 4.39902C9.7898 4.53018 9.7898 4.7434 9.92809 4.87456C9.9976 4.93979 10.0883 4.97277 10.1791 4.97277C10.2699 4.97277 10.3607 4.93983 10.4295 4.87456L11.1386 4.20196C11.2769 4.07081 11.2769 3.85758 11.1386 3.72642Z" fill="#A2A2A2"/>
</g>
<defs>
<clipPath id="clip0">
<rect width="17.0199" height="16.1426" fill="white" transform="translate(0.605469 0.294434)"/>
</clipPath>
</defs>
</svg>
