<svg width="19" height="19" viewBox="0 0 19 19" fill="none" xmlns="http://www.w3.org/2000/svg">
<g clip-path="url(#clip0)">
<path d="M17.6357 10.7754V4.31561C17.8186 4.18671 17.9671 4.01857 18.0693 3.8248C18.1714 3.63103 18.2242 3.41706 18.2236 3.2002C18.2236 2.82857 18.0687 2.47215 17.7931 2.20936C17.5175 1.94657 17.1437 1.79894 16.7539 1.79894C16.3641 1.79894 15.9903 1.94657 15.7147 2.20936C15.4391 2.47215 15.2843 2.82857 15.2843 3.2002C15.2836 3.41706 15.3365 3.63103 15.4386 3.8248C15.5407 4.01857 15.6892 4.18671 15.8721 4.31561V5.91866C15.575 5.51222 15.1794 5.18021 14.7188 4.95088C14.2582 4.72155 13.7464 4.60168 13.2268 4.60147H5.58464C5.06505 4.60168 4.5532 4.72155 4.09262 4.95088C3.63205 5.18021 3.23639 5.51222 2.93929 5.91866V4.31561C3.18605 4.13915 3.36832 3.89313 3.46029 3.61241C3.55227 3.33169 3.54927 3.03049 3.45173 2.75148C3.35419 2.47247 3.16705 2.2298 2.91682 2.05783C2.66659 1.88587 2.36595 1.79333 2.0575 1.79333C1.74905 1.79333 1.44842 1.88587 1.19819 2.05783C0.947958 2.2298 0.760818 2.47247 0.663277 2.75148C0.565736 3.03049 0.562739 3.33169 0.654709 3.61241C0.746679 3.89313 0.928955 4.13915 1.17572 4.31561V10.7754C0.993573 10.9044 0.845561 11.0721 0.743494 11.2653C0.641428 11.4585 0.588132 11.6717 0.58786 11.888V15.8116C0.58786 15.8859 0.618827 15.9572 0.67395 16.0098C0.729072 16.0623 0.803834 16.0918 0.881788 16.0918H1.17572V17.4931C1.17572 17.5674 1.20668 17.6387 1.26181 17.6913C1.31693 17.7438 1.39169 17.7734 1.46965 17.7734H2.64536C2.71531 17.7735 2.78303 17.7499 2.83637 17.7068C2.88971 17.6636 2.92516 17.6038 2.93635 17.5379L3.18913 16.0918H15.6223L15.8751 17.5379C15.8863 17.6038 15.9217 17.6636 15.9751 17.7068C16.0284 17.7499 16.0961 17.7735 16.1661 17.7734H17.3418C17.4197 17.7734 17.4945 17.7438 17.5496 17.6913C17.6047 17.6387 17.6357 17.5674 17.6357 17.4931V16.0918H17.9296C18.0076 16.0918 18.0823 16.0623 18.1375 16.0098C18.1926 15.9572 18.2236 15.8859 18.2236 15.8116V11.888C18.2233 11.6717 18.17 11.4585 18.0679 11.2653C17.9659 11.0721 17.8178 10.9044 17.6357 10.7754ZM16.7539 2.35945C16.9481 2.35884 17.1371 2.41958 17.2913 2.53216C17.4455 2.64475 17.5562 2.80285 17.6063 2.98179C17.6563 3.16072 17.6428 3.35041 17.5678 3.52123C17.4928 3.69206 17.3606 3.83441 17.1919 3.92606C17.1482 3.95111 17.1121 3.98643 17.0868 4.02863C17.0616 4.07084 17.0482 4.11851 17.0478 4.16708V10.5148C16.951 10.4969 16.8526 10.4875 16.7539 10.4868H16.46V4.16708C16.4596 4.11851 16.4462 4.07084 16.421 4.02863C16.3958 3.98643 16.3596 3.95111 16.316 3.92606C16.1472 3.83441 16.015 3.69206 15.9401 3.52123C15.8651 3.35041 15.8516 3.16072 15.9016 2.98179C15.9516 2.80285 16.0624 2.64475 16.2166 2.53216C16.3707 2.41958 16.5597 2.35884 16.7539 2.35945ZM5.58464 5.16197H13.2268C13.928 5.16301 14.6003 5.42909 15.0961 5.90188C15.592 6.37467 15.871 7.01562 15.8721 7.68425V10.4868H15.2314C15.2656 10.3969 15.2835 10.3021 15.2843 10.2065V8.80526C15.2836 8.58248 15.1905 8.36902 15.0252 8.21149C14.86 8.05396 14.6361 7.96517 14.4025 7.9645H10.5814C10.3478 7.96517 10.1239 8.05396 9.95868 8.21149C9.79346 8.36902 9.70034 8.58248 9.69964 8.80526V10.2065C9.70043 10.3021 9.71833 10.3969 9.75255 10.4868H9.05888C9.09309 10.3969 9.11099 10.3021 9.11178 10.2065V8.80526C9.11108 8.58248 9.01796 8.36902 8.85274 8.21149C8.68753 8.05396 8.46365 7.96517 8.23 7.9645H4.40893C4.17528 7.96517 3.9514 8.05396 3.78618 8.21149C3.62097 8.36902 3.52784 8.58248 3.52714 8.80526V10.2065C3.52794 10.3021 3.54583 10.3969 3.58005 10.4868H2.93929V7.68425C2.94038 7.01562 3.21943 6.37467 3.7153 5.90188C4.21116 5.42909 4.88338 5.16301 5.58464 5.16197ZM14.6964 8.80526V10.2065C14.6964 10.2809 14.6655 10.3521 14.6103 10.4047C14.5552 10.4573 14.4804 10.4868 14.4025 10.4868H10.5814C10.5035 10.4868 10.4287 10.4573 10.3736 10.4047C10.3185 10.3521 10.2875 10.2809 10.2875 10.2065V8.80526C10.2875 8.73094 10.3185 8.65965 10.3736 8.60709C10.4287 8.55454 10.5035 8.52501 10.5814 8.52501H14.4025C14.4804 8.52501 14.5552 8.55454 14.6103 8.60709C14.6655 8.65965 14.6964 8.73094 14.6964 8.80526ZM8.52393 8.80526V10.2065C8.52393 10.2809 8.49296 10.3521 8.43784 10.4047C8.38271 10.4573 8.30795 10.4868 8.23 10.4868H4.40893C4.33097 10.4868 4.25621 10.4573 4.20109 10.4047C4.14597 10.3521 4.115 10.2809 4.115 10.2065V8.80526C4.115 8.73094 4.14597 8.65965 4.20109 8.60709C4.25621 8.55454 4.33097 8.52501 4.40893 8.52501H8.23C8.30795 8.52501 8.38271 8.55454 8.43784 8.60709C8.49296 8.65965 8.52393 8.73094 8.52393 8.80526ZM2.0575 2.35945C2.29115 2.36011 2.51503 2.4489 2.68025 2.60643C2.84546 2.76396 2.93859 2.97743 2.93929 3.2002C2.93964 3.34856 2.89806 3.49426 2.81892 3.62199C2.73978 3.74971 2.62602 3.85475 2.48958 3.92606C2.43812 3.95541 2.39731 3.99906 2.37261 4.05116C2.34792 4.10325 2.34053 4.1613 2.35143 4.21752V10.4868H2.0575C1.95883 10.4875 1.86044 10.4969 1.76357 10.5148V4.23714C1.77917 4.17802 1.77411 4.11566 1.74918 4.05952C1.72425 4.00339 1.68081 3.95653 1.62543 3.92606C1.48899 3.85475 1.37522 3.74971 1.29608 3.62199C1.21695 3.49426 1.17537 3.34856 1.17572 3.2002C1.17641 2.97743 1.26954 2.76396 1.43476 2.60643C1.59997 2.4489 1.82385 2.36011 2.0575 2.35945ZM2.39552 17.2128H1.76357V16.0918H2.59245L2.39552 17.2128ZM17.0478 17.2128H16.4159L16.219 16.0918H17.0478V17.2128ZM17.6357 15.5313H1.17572V14.9708H17.6357V15.5313ZM17.6357 14.4103H1.17572V11.888C1.17641 11.6653 1.26954 11.4518 1.43476 11.2943C1.59997 11.1367 1.82385 11.048 2.0575 11.0473H16.7539C16.9876 11.048 17.2114 11.1367 17.3767 11.2943C17.5419 11.4518 17.635 11.6653 17.6357 11.888V14.4103Z" fill="#A2A2A2"/>
</g>
<defs>
<clipPath id="clip0">
<rect width="18.8114" height="17.9362" fill="white" transform="translate(0 0.397705)"/>
</clipPath>
</defs>
</svg>
