<svg width="84" height="73" viewBox="0 0 84 73" fill="none" xmlns="http://www.w3.org/2000/svg">
<path d="M13.8752 41.992H20.4428C21.3305 41.992 22.0504 41.2499 22.0504 40.3354V33.8663C22.0504 32.9511 21.3305 32.2097 20.4428 32.2097H13.8752C12.9881 32.2097 12.2682 32.9511 12.2682 33.8663V40.3354C12.2682 41.2499 12.9875 41.992 13.8752 41.992ZM15.4828 35.5229H18.8357V38.6789H15.4828V35.5229Z" fill="#01173C"/>
<path d="M13.8752 54.0317H20.4428C21.3305 54.0317 22.0504 53.3473 22.0504 52.5025V46.5312C22.0504 45.6864 21.3305 45.0019 20.4428 45.0019H13.8752C12.9881 45.0019 12.2682 45.6864 12.2682 46.5312V52.5025C12.2682 53.3473 12.9875 54.0317 13.8752 54.0317ZM15.4828 48.0598H18.8357V50.9732H15.4828V48.0598Z" fill="#01173C"/>
<path d="M37.1488 26.9424H43.8238C44.6814 26.9424 45.3774 26.2799 45.3774 25.4635V19.3914C45.3774 18.5744 44.6814 17.9126 43.8238 17.9126H37.1488C36.2905 17.9126 35.5951 18.5744 35.5951 19.3914V25.4635C35.5945 26.2799 36.2905 26.9424 37.1488 26.9424ZM38.7024 20.8702H42.2695V23.9847H38.7024V20.8702Z" fill="#01173C"/>
<path d="M50.8122 26.9424H58.0022C58.926 26.9424 59.6746 26.2799 59.6746 25.4635V19.3914C59.6746 18.5744 58.926 17.9126 58.0022 17.9126H50.8122C49.8884 17.9126 49.1398 18.5744 49.1398 19.3914V25.4635C49.1398 26.2799 49.8884 26.9424 50.8122 26.9424ZM52.4846 20.8702H56.3291V23.9847H52.4846V20.8702Z" fill="#01173C"/>
<path d="M44.4562 31.4572H37.2688C36.3446 31.4572 35.5951 32.1197 35.5951 32.936V39.0083C35.5951 39.8246 36.3446 40.487 37.2688 40.487H44.4562C45.3804 40.487 46.1299 39.8246 46.1299 39.0083V32.936C46.1299 32.1197 45.381 31.4572 44.4562 31.4572ZM42.7831 37.5296H38.9419V34.4147H42.7831V37.5296Z" fill="#01173C"/>
<path d="M58.1209 31.4572H51.4459C50.5877 31.4572 49.8923 32.1197 49.8923 32.936V39.0083C49.8923 39.8246 50.5877 40.487 51.4459 40.487H58.1209C58.9791 40.487 59.6745 39.8246 59.6745 39.0083V32.936C59.6745 32.1197 58.9791 31.4572 58.1209 31.4572ZM56.5667 37.5296H52.9995V34.4147H56.5667V37.5296Z" fill="#01173C"/>
<path d="M82.7739 45.5246C81.6921 41.8189 79.747 37.9202 77.5702 35.0953C76.1885 33.3014 74.4847 31.4671 72.3205 31.4665C72.3199 31.4665 72.3192 31.4665 72.3192 31.4665C70.4853 31.4665 69.0051 32.7415 67.6941 34.2995V9.79006L68.1627 9.79069C70.6975 9.79069 72.76 7.73005 72.76 5.19777C72.76 2.66548 70.6975 0.605469 68.1627 0.605469H26.6783C24.1434 0.605469 22.0809 2.66548 22.0809 5.19777C22.0809 7.73005 24.1434 9.79069 26.6783 9.79069H27.1469V16.8396H5.71221C3.10346 16.8396 0.980957 18.9576 0.980957 21.5612C0.980957 23.7322 2.45679 25.5645 4.45993 26.1144V69.6936H3.75391C2.8818 69.6936 2.17514 70.3985 2.17514 71.2687C2.17514 72.1382 2.8818 72.8438 3.75391 72.8438H74.0868C74.9589 72.8438 75.6662 72.1382 75.6662 71.2687C75.6662 70.4275 75.0051 69.7421 74.1727 69.698V62.11C79.2627 61.6774 81.5891 59.1565 82.6488 57.0101C84.4556 53.3522 83.7142 48.7454 82.7739 45.5246ZM5.71221 19.9898H27.1469V23.1331H5.71221C4.84452 23.1331 4.13913 22.4282 4.13913 21.5618C4.13913 20.6948 4.84452 19.9898 5.71221 19.9898ZM27.1469 69.6936H7.61747V26.2834H27.1469V69.6936ZM45.345 69.6936H39.784V53.1858H45.345V69.6936ZM54.0642 69.6936H48.5032V53.1858H54.0642V69.6936ZM64.5359 69.6936H57.2224V51.6107C57.2224 50.7411 56.5151 50.0356 55.643 50.0356H38.2052C37.3331 50.0356 36.6258 50.7411 36.6258 51.6107V69.6936H30.305V9.79069H41.1291C42.0012 9.79069 42.7085 9.08511 42.7085 8.21558C42.7085 7.34542 42.0012 6.64046 41.1291 6.64046H26.6783C25.8984 6.64046 25.2391 5.97965 25.2391 5.19777C25.2391 4.40264 25.8845 3.7557 26.6783 3.7557H68.1627C68.9565 3.7557 69.6019 4.40264 69.6019 5.19777C69.6019 5.97965 68.9426 6.64046 68.1633 6.64046L40.5096 6.63605C40.5096 6.63605 40.5096 6.63605 40.5089 6.63605C39.6375 6.63605 38.9302 7.34101 38.9302 8.21053C38.9295 9.08069 39.6362 9.78565 40.5083 9.78628L64.5359 9.78943V39.0539C62.6395 42.6531 61.4245 46.6445 61.1908 50.0646C60.9022 54.293 62.0566 57.5996 64.5359 59.6886V69.6936ZM71.0145 69.6936H67.6941V61.1685C68.4816 61.6333 69.5381 61.9693 71.0145 62.1068V69.6936ZM79.8165 55.6178C78.868 57.5372 76.9709 58.6508 74.1727 58.944V52.344L76.508 50.127C77.1402 49.5273 77.1648 48.5304 76.5636 47.8999C75.9624 47.27 74.9627 47.2454 74.3312 47.845L74.1727 47.9951V42.9602C74.1727 42.0906 73.4661 41.385 72.5939 41.385C71.7218 41.385 71.0152 42.0906 71.0152 42.9602V45.8134L70.8624 45.6677C70.2309 45.0675 69.2312 45.0914 68.63 45.7213C68.0282 46.3506 68.0521 47.3475 68.683 47.9478L71.0152 50.1654V52.2242L69.7408 51.3187C69.0303 50.8143 68.0446 50.9795 67.5387 51.6876C67.0329 52.3963 67.1983 53.38 67.9088 53.8844L71.0152 56.0914V58.9433C68.1178 58.64 66.1425 57.466 65.139 55.4343C63.1977 51.5041 64.8479 45.2617 67.2931 40.5924C67.3057 40.5678 67.3183 40.5439 67.331 40.5199C68.0124 39.2279 68.7538 38.0583 69.4951 37.0954C71.0745 35.0467 71.9031 34.6167 72.3192 34.6167H72.3199C72.731 34.6167 73.5412 35.0329 75.0669 37.0147C78.6274 41.636 82.2586 50.6718 79.8165 55.6178Z" fill="#01173C"/>
<path d="M47.6497 6.62532H47.6199C46.7968 6.62532 46.1299 7.29888 46.1299 8.13029C46.1299 8.96109 46.7968 9.63525 47.6199 9.63525H47.6497C48.4729 9.63525 49.1398 8.96109 49.1398 8.13029C49.1398 7.29888 48.4729 6.62532 47.6497 6.62532Z" fill="#01173C"/>
</svg>
