<svg width="107" height="98" viewBox="0 0 107 98" fill="none" xmlns="http://www.w3.org/2000/svg">
<path d="M105.871 62.1584C103.854 59.1933 99.7906 58.4085 96.8164 60.4073L83.2795 69.4667L83.2402 41.2681L87.9431 45.6737C88.9431 46.6103 90.247 47.1258 91.6161 47.1258C91.6185 47.1258 91.6214 47.1258 91.6241 47.1258C93.1021 47.1237 94.5291 46.5042 95.5393 45.4259C96.5207 44.3782 97.0355 43.0113 96.9887 41.5764C96.9419 40.1415 96.339 38.8108 95.2913 37.8294L86.3756 29.4774C85.7652 28.9056 84.807 28.9368 84.2354 29.5472C83.6638 30.1575 83.6951 31.1155 84.3053 31.6873L93.221 40.0393C93.6785 40.4678 93.9416 41.0487 93.9621 41.675C93.9824 42.3013 93.7578 42.8982 93.3292 43.3554C92.8817 43.8331 92.2747 44.0967 91.6196 44.0975H91.6161C91.0188 44.0975 90.4497 43.8725 90.0131 43.4635L54.6105 10.299C54.0271 9.75266 53.1192 9.75349 52.5373 10.3019L17.2268 43.5655C16.7708 43.9951 16.1746 44.2201 15.5481 44.2027C14.9216 44.1841 14.34 43.9224 13.9104 43.466C13.4807 43.01 13.2542 42.4138 13.2731 41.7875C13.2917 41.161 13.5534 40.5795 14.0094 40.1498L51.9591 4.40009C52.8586 3.55254 54.2699 3.55046 55.1717 4.39574L86.3756 33.6267C86.9857 34.1983 87.9439 34.1672 88.5157 33.5569C89.0873 32.9465 89.056 31.9886 88.4459 31.4168L57.2422 2.1858C55.1761 0.249961 51.9435 0.254311 49.8828 2.19595L37.7342 13.6403L37.7309 11.599C37.7301 10.9555 37.4786 10.351 37.023 9.89685C36.5682 9.44335 35.9645 9.1937 35.3223 9.1937H35.3188L26.6284 9.20592C25.9849 9.20675 25.3806 9.45826 24.9263 9.91384C24.4721 10.3694 24.2223 10.9746 24.2233 11.6183L24.2474 26.3457L11.9331 37.9461C10.8881 38.9303 10.2892 40.2627 10.2463 41.6976C10.2034 43.1325 10.7219 44.4982 11.7062 45.5427C12.6903 46.5877 14.0227 47.1869 15.4578 47.2298C15.5127 47.2314 15.5676 47.2323 15.6225 47.2323C16.9971 47.2323 18.2987 46.7164 19.3033 45.7696L23.9956 41.3493L24.0143 54.6688C22.4961 54.4477 20.9601 54.3317 19.4171 54.3317H16.8264V53.4239C16.8264 50.3761 14.3467 47.8965 11.2989 47.8965H6.45394C3.40619 47.8962 0.926514 50.3757 0.926514 53.4237V85.8337C0.926514 86.6699 1.60439 87.3477 2.44055 87.3477C3.2767 87.3477 3.95458 86.6699 3.95458 85.8337V53.4237C3.95458 52.0455 5.07581 50.9243 6.45394 50.9243H11.2987C12.6768 50.9243 13.7981 52.0455 13.7981 53.4237V55.8456V86.8795V89.2776C13.7981 90.6557 12.6768 91.7769 11.2987 91.7769H6.45394C5.07581 91.7769 3.95458 90.6557 3.95458 89.2776V86.6282C3.95458 85.7921 3.2767 85.1142 2.44055 85.1142C1.60439 85.1142 0.926514 85.7921 0.926514 86.6282V89.2776C0.926514 92.3253 3.40619 94.805 6.45394 94.805H11.2987C14.3465 94.805 16.8261 92.3255 16.8261 89.2776V89.0718L38.9988 97.4682C39.0398 97.4838 39.0815 97.4974 39.1237 97.5092C40.0877 97.7815 41.0513 97.918 42.0027 97.918C42.5173 97.918 43.0284 97.878 43.5343 97.798L76.119 93.101C76.1266 93.0999 76.1341 93.0987 76.1417 93.0975C78.9121 92.6551 81.5256 91.484 83.6995 89.711C83.7183 89.6956 83.737 89.6797 83.755 89.6633L104.806 70.73C107.258 68.5537 107.715 64.8686 105.871 62.1584ZM34.7037 12.2228L34.7107 16.4885L27.2707 23.4973L27.2522 12.233L34.7037 12.2228ZM53.5781 13.4812L80.208 38.4275L80.2542 71.4912L75.9675 74.3601L71.4281 74.1055L71.3082 72.8998C70.8857 68.6531 67.7508 65.237 63.6054 64.4218L63.578 44.7515C63.576 43.2421 62.347 42.0154 60.8377 42.0154H60.834L46.4035 42.0357C45.6715 42.0367 44.9837 42.3226 44.467 42.841C43.9501 43.3591 43.6661 44.0478 43.6671 44.7795L43.6911 61.9297C40.8327 61.2762 38.1034 60.197 35.5516 58.7043C35.2332 58.5181 34.9117 58.3383 34.5875 58.1634C34.4611 58.0953 34.3326 58.0312 34.2052 57.9647C34.008 57.8618 33.8112 57.7582 33.6119 57.6594C33.4532 57.5806 33.2926 57.5061 33.1327 57.43C32.963 57.3494 32.7935 57.268 32.6226 57.1903C32.4486 57.1114 32.2731 57.0362 32.0978 56.9604C31.9377 56.8912 31.7775 56.8215 31.6164 56.755C31.4361 56.6807 31.2548 56.6092 31.0734 56.5381C30.9124 56.4751 30.7512 56.4126 30.5894 56.3521C30.4098 56.285 30.2293 56.2201 30.0485 56.1565C29.8788 56.0966 29.7089 56.0382 29.5382 55.9812C29.365 55.9234 29.1914 55.8669 29.0169 55.812C28.8311 55.7533 28.6444 55.6974 28.4576 55.6421C28.297 55.5949 28.1366 55.5476 27.9753 55.5029C27.7646 55.4443 27.5528 55.3893 27.3409 55.3351C27.2417 55.3096 27.143 55.2808 27.0432 55.2561L27.0198 38.5002L53.5781 13.4812ZM60.5769 64.0428L47.9134 62.5849L46.7202 62.4476L46.6958 45.0633L60.5504 45.0439L60.5769 64.0428ZM102.789 68.4724L81.7583 87.3871C80.0058 88.8081 77.9036 89.7481 75.6754 90.1056L43.1048 94.8006C43.098 94.8017 43.0914 94.8027 43.0845 94.8037L43.0619 94.8073C42.0752 94.9635 41.0476 94.8976 40.0074 94.6121L16.8264 85.8337V57.3596H19.4171C21.6224 57.3596 23.8129 57.6142 25.946 58.1087C26.0253 58.1272 26.1045 58.146 26.1836 58.1651C26.4457 58.2283 26.7071 58.2933 26.9674 58.3638C26.9901 58.37 27.0127 58.3766 27.0355 58.3828C27.2963 58.4541 27.5561 58.5293 27.8151 58.6078C27.8615 58.6219 27.9081 58.6358 27.9543 58.6501C28.2299 58.7352 28.5042 58.8241 28.777 58.9173C28.8052 58.9271 28.8332 58.937 28.8613 58.9467C29.4296 59.1429 29.9923 59.357 30.548 59.5886C30.5782 59.6012 30.6085 59.6138 30.6387 59.6267C30.9157 59.7431 31.191 59.8635 31.4645 59.9886C31.4717 59.9919 31.4792 59.9955 31.4865 59.999C31.7508 60.1204 32.0133 60.2464 32.2741 60.3758C32.3048 60.391 32.3357 60.4059 32.3663 60.4212C32.6212 60.5486 32.8739 60.6806 33.1252 60.8157C33.1727 60.8412 33.2199 60.8673 33.2673 60.893C33.5209 61.0311 33.773 61.172 34.0227 61.3181C37.6257 63.4257 41.5479 64.7907 45.6806 65.3756C45.6937 65.3775 45.7065 65.3791 45.7196 65.3806L62.6833 67.3336C62.7771 67.3471 62.8703 67.3626 62.9629 67.38C65.4602 67.8491 67.4313 69.6944 68.0907 72.0974C68.1885 72.4533 68.2573 72.8217 68.295 73.1993L68.3623 73.8768L36.5693 71.0913C35.7369 71.0186 35.0018 71.6346 34.9289 72.4674C34.8557 73.3004 35.4721 74.0349 36.3049 74.1078L69.9174 77.0528C69.9255 77.0534 69.9333 77.0532 69.9412 77.0538C69.9491 77.0545 69.9567 77.0557 69.9648 77.0563L76.3038 77.412C76.3321 77.4137 76.3603 77.4143 76.3885 77.4143C76.4185 77.4143 76.4482 77.4095 76.478 77.4077C76.5118 77.4056 76.5455 77.4044 76.5791 77.4002C76.6243 77.3944 76.6684 77.3847 76.7127 77.375C76.7444 77.3679 76.7763 77.3627 76.8074 77.3536C76.8559 77.3397 76.9025 77.3209 76.9495 77.302C76.9748 77.2919 77.0009 77.2842 77.0258 77.2726C77.0964 77.2399 77.1652 77.2022 77.2307 77.1582L82.6114 73.5573L82.612 73.5567L98.5027 62.922C100.102 61.8474 102.284 62.269 103.368 63.8618C104.358 65.3174 104.112 67.2969 102.789 68.4724Z" fill="#01173C"/>
</svg>
