<svg width="44" height="44" viewBox="0 0 44 44" fill="none" xmlns="http://www.w3.org/2000/svg">
<path d="M8.3875 8.3875C8.9032 7.87195 9.60255 7.58234 10.3317 7.58234C11.061 7.58234 11.7603 7.87195 12.276 8.3875L22 18.1115L31.724 8.3875C32.2427 7.88656 32.9373 7.60938 33.6584 7.61565C34.3794 7.62191 35.0691 7.91113 35.579 8.421C36.0889 8.93087 36.3781 9.6206 36.3844 10.3416C36.3906 11.0627 36.1134 11.7573 35.6125 12.276L25.8885 22L35.6125 31.724C36.1134 32.2427 36.3906 32.9373 36.3844 33.6584C36.3781 34.3794 36.0889 35.0691 35.579 35.579C35.0691 36.0889 34.3794 36.3781 33.6584 36.3844C32.9373 36.3906 32.2427 36.1134 31.724 35.6125L22 25.8885L12.276 35.6125C11.7573 36.1134 11.0627 36.3906 10.3416 36.3844C9.6206 36.3781 8.93087 36.0889 8.421 35.579C7.91113 35.0691 7.62191 34.3794 7.61565 33.6584C7.60938 32.9373 7.88656 32.2427 8.3875 31.724L18.1115 22L8.3875 12.276C7.87195 11.7603 7.58234 11.061 7.58234 10.3317C7.58234 9.60255 7.87195 8.9032 8.3875 8.3875Z" fill="white"/>
</svg>
