<svg width="30" height="31" viewBox="0 0 30 31" fill="none" xmlns="http://www.w3.org/2000/svg">
<path d="M29.7484 15.4992C29.7484 7.28353 23.0899 0.625 14.8742 0.625C6.65853 0.625 0 7.28353 0 15.4992C0 23.7149 6.65853 30.3734 14.8742 30.3734C14.9614 30.3734 15.0485 30.3734 15.1357 30.3676V18.7936H11.94V15.0692H15.1357V12.3268C15.1357 9.14861 17.0763 7.41717 19.9117 7.41717C21.2713 7.41717 22.4391 7.51594 22.7761 7.56242V10.8859H20.8239C19.2842 10.8859 18.982 11.618 18.982 12.6929V15.0634H22.6715L22.1893 18.7878H18.982V29.7982C25.199 28.0145 29.7484 22.2914 29.7484 15.4992Z" fill="#B4B4B4"/>
</svg>
