<svg width="16" height="15" viewBox="0 0 16 15" fill="none" xmlns="http://www.w3.org/2000/svg">
<g clip-path="url(#clip0)">
<path d="M15.6214 7.51216C15.6214 3.37676 12.2698 0.0251465 8.13436 0.0251465C3.99895 0.0251465 0.647339 3.37676 0.647339 7.51216C0.647339 11.6476 3.99895 14.9992 8.13436 14.9992C8.17823 14.9992 8.22209 14.9992 8.26596 14.9963V9.17042H6.65742V7.29574H8.26596V5.91532C8.26596 4.31556 9.24279 3.44402 10.67 3.44402C11.3544 3.44402 11.9422 3.49374 12.1118 3.51714V5.19002H11.1292C10.3541 5.19002 10.2021 5.55852 10.2021 6.09957V7.29282H12.0592L11.8164 9.1675H10.2021V14.7096C13.3314 13.8118 15.6214 10.931 15.6214 7.51216Z" fill="white"/>
</g>
<defs>
<clipPath id="clip0">
<rect width="14.974" height="14.974" fill="white" transform="translate(0.647339 0.0251465)"/>
</clipPath>
</defs>
</svg>
