<svg width="36" height="35" viewBox="0 0 36 35" fill="none" xmlns="http://www.w3.org/2000/svg">
<path d="M35.2559 17.4991C35.2559 7.83356 27.4224 0 17.7569 0C8.09138 0 0.257812 7.83356 0.257812 17.4991C0.257812 27.1646 8.09138 34.9981 17.7569 34.9981C17.8594 34.9981 17.9619 34.9981 18.0645 34.9913V21.3748H14.3049V16.9932H18.0645V13.7668C18.0645 10.0278 20.3476 7.99078 23.6833 7.99078C25.2828 7.99078 26.6568 8.10699 27.0533 8.16167V12.0716H24.7565C22.9451 12.0716 22.5896 12.9329 22.5896 14.1975V16.9864H26.9302L26.3629 21.368H22.5896V34.3214C29.9037 32.2229 35.2559 25.4898 35.2559 17.4991Z" fill="#01173C"/>
</svg>
