<svg width="113" height="113" viewBox="0 0 113 113" fill="none" xmlns="http://www.w3.org/2000/svg">
<path d="M15.6898 56.7246C15.6898 38.5606 27.5778 23.1726 44.0521 17.9829L39.1038 2.65515C16.4139 9.95694 0 31.1985 0 56.3022C0 56.5436 0 56.7849 0 57.0867H15.6898C15.6898 56.966 15.6898 56.8453 15.6898 56.7246Z" fill="#45DA9B"/>
<path d="M56.3022 97.3371C33.9744 97.3371 15.8708 79.3542 15.6898 57.0868H0C0.422417 87.8629 25.4658 112.665 56.3626 112.665C62.4575 112.665 68.3713 111.699 73.8627 109.889L69.1558 95.2854C65.0523 96.613 60.7678 97.3371 56.3022 97.3371Z" fill="#F4F4F4"/>
<path d="M44.0518 17.9829C47.9139 16.776 52.0778 16.1122 56.3623 16.1122C78.8108 16.1122 97.035 34.3365 97.035 56.785C97.035 56.9057 97.035 57.0264 97.035 57.1471H112.725C112.725 56.9057 112.725 56.6643 112.725 56.3626C112.725 25.2244 87.5005 0 56.3623 0C50.3278 0 44.5346 0.965526 39.1035 2.71554L44.0518 17.9829Z" fill="#45DA9B"/>
<path d="M69.0957 95.2854L73.8026 109.889C96.1304 102.587 112.303 81.768 112.665 57.0868H96.9753C96.7942 74.8886 85.1476 89.975 69.0957 95.2854Z" fill="#45DA9B"/>
</svg>
