<svg width="107" height="107" viewBox="0 0 107 107" fill="none" xmlns="http://www.w3.org/2000/svg">
<path d="M53.5 0C23.9989 0 0 23.9989 0 53.5C0 83.0011 23.9989 107 53.5 107C83.0011 107 107 83.0011 107 53.5C107 23.9989 83.0011 0 53.5 0Z" fill="#FA5E5E"/>
<path d="M74.0576 79.1273C73.6671 79.5178 73.0339 79.5178 72.6434 79.1273L54.6065 61.0904C54.216 60.6999 53.5828 60.6999 53.1923 61.0904L35.1554 79.1273C34.7649 79.5178 34.1317 79.5178 33.7412 79.1273L28.6717 74.0578C28.2812 73.6673 28.2812 73.0341 28.6717 72.6436L46.7086 54.6067C47.0991 54.2162 47.0991 53.583 46.7086 53.1925L28.6717 35.1556C28.2812 34.7651 28.2812 34.1319 28.6717 33.7414L33.7412 28.6719C34.1317 28.2814 34.7649 28.2814 35.1554 28.6719L53.1923 46.7088C53.5828 47.0993 54.216 47.0993 54.6065 46.7088L72.6434 28.6719C73.0339 28.2814 73.6671 28.2814 74.0576 28.6719L79.1271 33.7414C79.5177 34.1319 79.5177 34.7651 79.1271 35.1556L61.0902 53.1925C60.6997 53.583 60.6997 54.2162 61.0902 54.6067L79.1271 72.6436C79.5177 73.0341 79.5177 73.6673 79.1271 74.0578L74.0576 79.1273Z" fill="white"/>
</svg>
