<svg width="107" height="107" viewBox="0 0 107 107" fill="none" xmlns="http://www.w3.org/2000/svg">
<path d="M53.5 0C23.9989 0 0 23.9989 0 53.5C0 83.0011 23.9989 107 53.5 107C83.0011 107 107 83.0011 107 53.5C107 23.9989 83.0011 0 53.5 0Z" fill="#45DA9B"/>
<path d="M80.3752 42.0158L51.4581 71.3707C50.5906 72.2514 49.4518 72.6947 48.313 72.6947C47.1742 72.6947 46.0354 72.2514 45.1679 71.3707L30.7098 56.6933C28.9698 54.9277 28.9698 52.0731 30.7098 50.3076C32.4489 48.5412 35.26 48.5412 37 50.3076L48.313 61.7922L74.085 35.6301C75.8241 33.8638 78.6353 33.8638 80.3752 35.6301C82.1144 37.3957 82.1144 40.2494 80.3752 42.0158Z" fill="#FAFAFA"/>
</svg>
