<svg width="15" height="15" viewBox="0 0 15 15" fill="none" xmlns="http://www.w3.org/2000/svg">
<path d="M8.73525 7.51258C8.73525 8.20179 8.17656 8.76048 7.48734 8.76048C6.79813 8.76048 6.23944 8.20179 6.23944 7.51258C6.23944 6.82337 6.79813 6.26468 7.48734 6.26468C8.17656 6.26468 8.73525 6.82337 8.73525 7.51258Z" fill="white"/>
<path d="M10.6517 5.11856C10.5867 4.94231 10.4829 4.78278 10.3481 4.65183C10.2172 4.517 10.0577 4.41324 9.88138 4.3482C9.73835 4.29265 9.52349 4.22653 9.12774 4.20851C8.69963 4.18899 8.57127 4.18478 7.48746 4.18478C6.40355 4.18478 6.27519 4.18888 5.84719 4.20841C5.45144 4.22653 5.23647 4.29265 5.09355 4.3482C4.91719 4.41324 4.75766 4.517 4.62682 4.65183C4.49199 4.78278 4.38823 4.9422 4.32308 5.11856C4.26753 5.26158 4.20141 5.47655 4.1834 5.8723C4.16387 6.3003 4.15967 6.42866 4.15967 7.51258C4.15967 8.59639 4.16387 8.72475 4.1834 9.15285C4.20141 9.5486 4.26753 9.76347 4.32308 9.90649C4.38823 10.0829 4.49189 10.2423 4.62672 10.3732C4.75766 10.508 4.91708 10.6118 5.09344 10.6769C5.23647 10.7325 5.45144 10.7986 5.84719 10.8166C6.27519 10.8362 6.40344 10.8403 7.48736 10.8403C8.57138 10.8403 8.69974 10.8362 9.12763 10.8166C9.52338 10.7986 9.73835 10.7325 9.88138 10.6769C10.2354 10.5403 10.5152 10.2605 10.6517 9.90649C10.7073 9.76347 10.7734 9.5486 10.7915 9.15285C10.8111 8.72475 10.8152 8.59639 10.8152 7.51258C10.8152 6.42866 10.8111 6.3003 10.7915 5.8723C10.7735 5.47655 10.7074 5.26158 10.6517 5.11856ZM7.48746 9.59682C6.33624 9.59682 5.40301 8.66369 5.40301 7.51247C5.40301 6.36125 6.33624 5.42812 7.48746 5.42812C8.63858 5.42812 9.57181 6.36125 9.57181 7.51247C9.57181 8.66369 8.63858 9.59682 7.48746 9.59682ZM9.65422 5.83283C9.38521 5.83283 9.16711 5.61473 9.16711 5.34572C9.16711 5.0767 9.38521 4.85861 9.65422 4.85861C9.92323 4.85861 10.1413 5.0767 10.1413 5.34572C10.1412 5.61473 9.92323 5.83283 9.65422 5.83283Z" fill="white"/>
<path d="M7.48742 0.0251465C3.35286 0.0251465 0 3.37801 0 7.51256C0 11.6471 3.35286 15 7.48742 15C11.622 15 14.9748 11.6471 14.9748 7.51256C14.9748 3.37801 11.622 0.0251465 7.48742 0.0251465ZM11.7609 9.28514C11.7401 9.74282 11.6673 10.0553 11.5611 10.3288C11.3377 10.9063 10.8812 11.3629 10.3037 11.5862C10.0303 11.6925 9.71767 11.7651 9.2601 11.786C8.80162 11.807 8.65516 11.812 7.48753 11.812C6.31979 11.812 6.17344 11.807 5.71485 11.786C5.25728 11.7651 4.94469 11.6925 4.6713 11.5862C4.3843 11.4783 4.1245 11.3091 3.90971 11.0903C3.69104 10.8756 3.52184 10.6157 3.41387 10.3288C3.30762 10.0554 3.23484 9.74282 3.21405 9.28525C3.19291 8.82666 3.188 8.68019 3.188 7.51256C3.188 6.34494 3.19291 6.19847 3.21394 5.73999C3.23473 5.28231 3.30739 4.96984 3.41364 4.69633C3.52161 4.40945 3.69093 4.14953 3.90971 3.93486C4.12439 3.71607 4.3843 3.54687 4.67118 3.4389C4.94469 3.33265 5.25716 3.25999 5.71485 3.23908C6.17333 3.21818 6.31979 3.21315 7.48742 3.21315C8.65504 3.21315 8.80151 3.21818 9.25999 3.2392C9.71767 3.25999 10.0301 3.33265 10.3037 3.43879C10.5905 3.54676 10.8504 3.71607 11.0652 3.93486C11.2839 4.14965 11.4532 4.40945 11.5611 4.69633C11.6674 4.96984 11.7401 5.28231 11.761 5.73999C11.7819 6.19847 11.7868 6.34494 11.7868 7.51256C11.7868 8.68019 11.7819 8.82666 11.7609 9.28514Z" fill="white"/>
</svg>
