<svg width="35" height="35" viewBox="0 0 35 35" fill="none" xmlns="http://www.w3.org/2000/svg">
<path d="M20.4173 17.5007C20.4173 19.1115 19.1115 20.4173 17.5007 20.4173C15.8898 20.4173 14.584 19.1115 14.584 17.5007C14.584 15.8898 15.8898 14.584 17.5007 14.584C19.1115 14.584 20.4173 15.8898 20.4173 17.5007Z" fill="#01173C"/>
<path d="M24.8963 11.9051C24.7443 11.4932 24.5017 11.1203 24.1866 10.8143C23.8806 10.4991 23.508 10.2566 23.0958 10.1046C22.7615 9.97476 22.2593 9.82022 21.3343 9.77812C20.3337 9.73249 20.0337 9.72266 17.5006 9.72266C14.9672 9.72266 14.6672 9.73224 13.6668 9.77787C12.7419 9.82022 12.2394 9.97476 11.9054 10.1046C11.4932 10.2566 11.1203 10.4991 10.8145 10.8143C10.4994 11.1203 10.2569 11.4929 10.1046 11.9051C9.97476 12.2394 9.82022 12.7419 9.77812 13.6668C9.73249 14.6672 9.72266 14.9672 9.72266 17.5006C9.72266 20.0337 9.73249 20.3337 9.77812 21.3343C9.82022 22.2593 9.97476 22.7615 10.1046 23.0958C10.2569 23.508 10.4991 23.8806 10.8143 24.1866C11.1203 24.5017 11.4929 24.7443 11.9051 24.8963C12.2394 25.0264 12.7419 25.1809 13.6668 25.223C14.6672 25.2686 14.9669 25.2782 17.5003 25.2782C20.034 25.2782 20.334 25.2686 21.3341 25.223C22.259 25.1809 22.7615 25.0264 23.0958 24.8963C23.9232 24.5771 24.5771 23.9232 24.8963 23.0958C25.0261 22.7615 25.1807 22.2593 25.223 21.3343C25.2686 20.3337 25.2782 20.0337 25.2782 17.5006C25.2782 14.9672 25.2686 14.6672 25.223 13.6668C25.1809 12.7419 25.0264 12.2394 24.8963 11.9051ZM17.5006 22.372C14.8099 22.372 12.6287 20.191 12.6287 17.5003C12.6287 14.8096 14.8099 12.6287 17.5006 12.6287C20.191 12.6287 22.3722 14.8096 22.3722 17.5003C22.3722 20.191 20.191 22.372 17.5006 22.372ZM22.5648 13.5746C21.9361 13.5746 21.4263 13.0648 21.4263 12.4361C21.4263 11.8073 21.9361 11.2976 22.5648 11.2976C23.1936 11.2976 23.7033 11.8073 23.7033 12.4361C23.7031 13.0648 23.1936 13.5746 22.5648 13.5746Z" fill="#01173C"/>
<path d="M17.5 0C7.83649 0 0 7.83649 0 17.5C0 27.1635 7.83649 35 17.5 35C27.1635 35 35 27.1635 35 17.5C35 7.83649 27.1635 0 17.5 0ZM27.4882 21.643C27.4396 22.7127 27.2695 23.443 27.0212 24.0823C26.4991 25.4321 25.4321 26.4991 24.0823 27.0212C23.4433 27.2695 22.7127 27.4393 21.6432 27.4882C20.5716 27.5371 20.2293 27.5488 17.5003 27.5488C14.771 27.5488 14.4289 27.5371 13.357 27.4882C12.2876 27.4393 11.557 27.2695 10.918 27.0212C10.2472 26.7688 9.64001 26.3734 9.13799 25.862C8.6269 25.3603 8.23143 24.7528 7.97909 24.0823C7.73075 23.4433 7.56065 22.7127 7.51205 21.6432C7.46265 20.5714 7.45117 20.229 7.45117 17.5C7.45117 14.771 7.46265 14.4286 7.51179 13.357C7.56039 12.2873 7.73022 11.557 7.97855 10.9177C8.2309 10.2472 8.62663 9.63974 9.13799 9.13799C9.63974 8.62663 10.2472 8.23116 10.9177 7.97882C11.557 7.73048 12.2873 7.56065 13.357 7.51179C14.4286 7.46292 14.771 7.45117 17.5 7.45117C20.229 7.45117 20.5714 7.46292 21.643 7.51205C22.7127 7.56065 23.443 7.73048 24.0823 7.97855C24.7528 8.2309 25.3603 8.62663 25.8623 9.13799C26.3734 9.64001 26.7691 10.2472 27.0212 10.9177C27.2698 11.557 27.4396 12.2873 27.4885 13.357C27.5373 14.4286 27.5488 14.771 27.5488 17.5C27.5488 20.229 27.5373 20.5714 27.4882 21.643Z" fill="#01173C"/>
</svg>
