<svg width="30" height="31" viewBox="0 0 30 31" fill="none" xmlns="http://www.w3.org/2000/svg">
<path d="M17.6043 15.5002C17.6043 16.8694 16.4944 17.9793 15.1251 17.9793C13.7559 17.9793 12.646 16.8694 12.646 15.5002C12.646 14.1309 13.7559 13.021 15.1251 13.021C16.4944 13.021 17.6043 14.1309 17.6043 15.5002Z" fill="#B4B4B4"/>
<path d="M21.4114 10.744C21.2822 10.3939 21.0761 10.0769 20.8082 9.81678C20.548 9.54892 20.2313 9.34278 19.881 9.21356C19.5968 9.1032 19.17 8.97185 18.3837 8.93606C17.5332 8.89727 17.2782 8.88892 15.1251 8.88892C12.9717 8.88892 12.7167 8.89706 11.8664 8.93585C11.0802 8.97185 10.6531 9.1032 10.3691 9.21356C10.0188 9.34278 9.70185 9.54892 9.44192 9.81678C9.17406 10.0769 8.96792 10.3936 8.83849 10.744C8.72813 11.0282 8.59677 11.4552 8.56098 12.2415C8.5222 13.0917 8.51384 13.3468 8.51384 15.5001C8.51384 17.6533 8.5222 17.9083 8.56098 18.7588C8.59677 19.545 8.72813 19.9719 8.83849 20.256C8.96792 20.6064 9.17385 20.9231 9.44171 21.1833C9.70185 21.4511 10.0186 21.6573 10.3689 21.7865C10.6531 21.8971 11.0802 22.0284 11.8664 22.0642C12.7167 22.103 12.9715 22.1111 15.1248 22.1111C17.2784 22.1111 17.5334 22.103 18.3835 22.0642C19.1697 22.0284 19.5968 21.8971 19.881 21.7865C20.5843 21.5152 21.1401 20.9593 21.4114 20.256C21.5218 19.9719 21.6531 19.545 21.6891 18.7588C21.7279 17.9083 21.7361 17.6533 21.7361 15.5001C21.7361 13.3468 21.7279 13.0917 21.6891 12.2415C21.6533 11.4552 21.522 11.0282 21.4114 10.744ZM15.1251 19.6408C12.838 19.6408 10.9839 17.787 10.9839 15.4999C10.9839 13.2128 12.838 11.359 15.1251 11.359C17.4119 11.359 19.266 13.2128 19.266 15.4999C19.266 17.787 17.4119 19.6408 15.1251 19.6408ZM19.4297 12.163C18.8952 12.163 18.462 11.7297 18.462 11.1953C18.462 10.6609 18.8952 10.2276 19.4297 10.2276C19.9641 10.2276 20.3974 10.6609 20.3974 11.1953C20.3972 11.7297 19.9641 12.163 19.4297 12.163Z" fill="#B4B4B4"/>
<path d="M15.125 0.625C6.91102 0.625 0.25 7.28602 0.25 15.5C0.25 23.714 6.91102 30.375 15.125 30.375C23.339 30.375 30 23.714 30 15.5C30 7.28602 23.339 0.625 15.125 0.625ZM23.615 19.0215C23.5737 19.9308 23.4291 20.5515 23.218 21.0949C22.7743 22.2423 21.8673 23.1493 20.7199 23.593C20.1768 23.8041 19.5558 23.9484 18.6467 23.99C17.7359 24.0315 17.4449 24.0415 15.1252 24.0415C12.8053 24.0415 12.5146 24.0315 11.6035 23.99C10.6945 23.9484 10.0735 23.8041 9.53031 23.593C8.96015 23.3785 8.44401 23.0424 8.01729 22.6077C7.58286 22.1812 7.24672 21.6649 7.03222 21.0949C6.82114 20.5518 6.67656 19.9308 6.63525 19.0217C6.59326 18.1107 6.5835 17.8197 6.5835 15.5C6.5835 13.1803 6.59326 12.8893 6.63502 11.9785C6.67633 11.0692 6.82068 10.4485 7.03177 9.90508C7.24626 9.33515 7.58264 8.81878 8.01729 8.39229C8.44378 7.95764 8.96015 7.62149 9.53008 7.407C10.0735 7.19591 10.6942 7.05156 11.6035 7.01002C12.5143 6.96848 12.8053 6.9585 15.125 6.9585C17.4447 6.9585 17.7357 6.96848 18.6465 7.01025C19.5558 7.05156 20.1765 7.19591 20.7199 7.40677C21.2899 7.62126 21.8062 7.95764 22.2329 8.39229C22.6674 8.81901 23.0037 9.33515 23.218 9.90508C23.4293 10.4485 23.5737 11.0692 23.6152 11.9785C23.6567 12.8893 23.6665 13.1803 23.6665 15.5C23.6665 17.8197 23.6567 18.1107 23.615 19.0215Z" fill="#B4B4B4"/>
</svg>
