<svg width="184" height="23" viewBox="0 0 184 23" fill="none" xmlns="http://www.w3.org/2000/svg">
<path d="M0 21.4291V0.0136719H0.027878L10.4264 14.8032L21.0759 0.0136719H21.1316V21.4291H17.0893V11.6161L10.3985 21.1496H10.3428L3.90294 12.2311V21.4291H0Z" fill="#B4B4B4"/>
<path d="M30.7563 11.1687C30.7563 9.75222 31.0258 8.41025 31.5648 7.14285C32.1038 5.87544 32.8472 4.75713 33.7951 3.78794C34.7615 2.80011 35.8766 2.02661 37.1404 1.46746C38.4042 0.908313 39.761 0.628738 41.2106 0.628738C42.6417 0.628738 43.9892 0.908313 45.253 1.46746C46.5168 2.02661 47.6319 2.80011 48.5984 3.78794C49.5834 4.75713 50.3454 5.87544 50.8844 7.14285C51.4419 8.41025 51.7207 9.75222 51.7207 11.1687C51.7207 12.6225 51.4419 13.9831 50.8844 15.2505C50.3454 16.5179 49.5834 17.6362 48.5984 18.6054C47.6319 19.556 46.5168 20.3015 45.253 20.842C43.9892 21.3826 42.6417 21.6528 41.2106 21.6528C39.761 21.6528 38.4042 21.3826 37.1404 20.842C35.8766 20.3015 34.7615 19.556 33.7951 18.6054C32.8472 17.6362 32.1038 16.5179 31.5648 15.2505C31.0258 13.9831 30.7563 12.6225 30.7563 11.1687ZM34.9381 11.1687C34.9381 12.3802 35.2168 13.4892 35.7744 14.4957C36.3506 15.4835 37.1219 16.2756 38.0883 16.8721C39.0547 17.4499 40.142 17.7388 41.35 17.7388C42.5209 17.7388 43.571 17.4499 44.5003 16.8721C45.4481 16.2756 46.1915 15.4835 46.7305 14.4957C47.2695 13.4892 47.539 12.3802 47.539 11.1687C47.539 9.91996 47.2602 8.80166 46.7026 7.81383C46.1451 6.80735 45.3924 6.01522 44.4445 5.43743C43.4967 4.84101 42.428 4.54279 41.2385 4.54279C40.0491 4.54279 38.9804 4.84101 38.0325 5.43743C37.0847 6.01522 36.332 6.80735 35.7744 7.81383C35.2168 8.80166 34.9381 9.91996 34.9381 11.1687Z" fill="#B4B4B4"/>
<path d="M61.3265 21.4291V0.852397H67.4597C69.5226 0.852397 71.279 1.15993 72.7286 1.775C74.1783 2.39006 75.3399 3.21015 76.2134 4.23526C77.1055 5.26037 77.756 6.40663 78.1649 7.67404C78.5737 8.94145 78.7782 10.2182 78.7782 11.5042C78.7782 13.0326 78.4994 14.4118 77.9418 15.6419C77.4029 16.8534 76.6594 17.8972 75.7116 18.7732C74.7637 19.6305 73.6672 20.2922 72.422 20.7582C71.1768 21.2055 69.8572 21.4291 68.4633 21.4291H61.3265ZM65.3688 17.5151H67.7663C69.8107 17.5151 71.4555 16.9839 72.7008 15.9215C73.9646 14.8591 74.5965 13.2935 74.5965 11.2246C74.5965 9.88268 74.3734 8.79234 73.9274 7.95361C73.4999 7.09625 72.961 6.43459 72.3105 5.96863C71.6786 5.50267 71.0281 5.18582 70.359 5.01807C69.6899 4.83169 69.1231 4.7385 68.6584 4.7385H65.3688V17.5151Z" fill="#B4B4B4"/>
<path d="M88.4096 0.852397H102.404V4.76645H92.452V9.15579H99.6839V13.0698H92.452V17.5151H102.795V21.4291H88.4096V0.852397Z" fill="#B4B4B4"/>
<path d="M118.769 0.852397C121.353 0.852397 123.332 1.4861 124.707 2.75351C126.101 4.00228 126.798 5.67973 126.798 7.78587C126.798 8.96009 126.547 10.1157 126.046 11.2526C125.562 12.3895 124.735 13.2935 123.564 13.9645L128.332 21.4291H123.62L119.299 14.8871H116.595V21.4291H112.553V0.852397H118.769ZM119.466 10.973C120.284 10.973 120.916 10.8053 121.362 10.4698C121.827 10.1157 122.152 9.70562 122.338 9.23966C122.524 8.75506 122.617 8.31706 122.617 7.92566C122.617 7.702 122.579 7.42242 122.505 7.08693C122.449 6.7328 122.319 6.37867 122.115 6.02454C121.91 5.67041 121.594 5.3722 121.167 5.1299C120.758 4.8876 120.2 4.76645 119.494 4.76645H116.595V10.973H119.466Z" fill="#B4B4B4"/>
<path d="M155.612 22.2679L141.254 9.26762L141.338 21.4291H137.24V0.0416291H137.407L151.737 13.2376L151.653 0.852397H155.723V22.2679H155.612Z" fill="#B4B4B4"/>
<path d="M173.769 0H173.554L164.293 21.4007H168.275L173.626 8.97294L178.976 21.4247H183.03L173.769 0Z" fill="#B4B4B4"/>
</svg>
