<svg width="106" height="14" viewBox="0 0 106 14" fill="none" xmlns="http://www.w3.org/2000/svg">
<path d="M0.234436 12.9922V0.718719H0.250413L6.20997 9.19481L12.3133 0.718719H12.3453V12.9922H10.0286V7.36821L6.19399 12.832H6.16204L2.47127 7.72071V12.9922H0.234436Z" fill="white"/>
<path d="M17.8613 7.11184C17.8613 6.30002 18.0158 5.53092 18.3247 4.80455C18.6336 4.07818 19.0596 3.43726 19.6029 2.88181C20.1567 2.31566 20.7958 1.87237 21.5201 1.55191C22.2445 1.23145 23.022 1.07122 23.8528 1.07122C24.673 1.07122 25.4452 1.23145 26.1696 1.55191C26.8939 1.87237 27.533 2.31566 28.0868 2.88181C28.6514 3.43726 29.0881 4.07818 29.397 4.80455C29.7165 5.53092 29.8763 6.30002 29.8763 7.11184C29.8763 7.94503 29.7165 8.72481 29.397 9.45118C29.0881 10.1775 28.6514 10.8185 28.0868 11.3739C27.533 11.9187 26.8939 12.346 26.1696 12.6558C25.4452 12.9655 24.673 13.1204 23.8528 13.1204C23.022 13.1204 22.2445 12.9655 21.5201 12.6558C20.7958 12.346 20.1567 11.9187 19.6029 11.3739C19.0596 10.8185 18.6336 10.1775 18.3247 9.45118C18.0158 8.72481 17.8613 7.94503 17.8613 7.11184ZM20.2579 7.11184C20.2579 7.80617 20.4177 8.44174 20.7373 9.01856C21.0675 9.5847 21.5095 10.0387 22.0634 10.3805C22.6173 10.7116 23.2404 10.8772 23.9327 10.8772C24.6038 10.8772 25.2056 10.7116 25.7382 10.3805C26.2814 10.0387 26.7075 9.5847 27.0164 9.01856C27.3253 8.44174 27.4797 7.80617 27.4797 7.11184C27.4797 6.39615 27.3199 5.75524 27.0004 5.1891C26.6808 4.61227 26.2494 4.15829 25.7062 3.82715C25.163 3.48533 24.5505 3.31442 23.8688 3.31442C23.1871 3.31442 22.5746 3.48533 22.0314 3.82715C21.4882 4.15829 21.0568 4.61227 20.7373 5.1891C20.4177 5.75524 20.2579 6.39615 20.2579 7.11184Z" fill="white"/>
<path d="M35.3815 12.9922V1.1994H38.8965C40.0788 1.1994 41.0854 1.37566 41.9162 1.72816C42.7471 2.08066 43.4128 2.55067 43.9134 3.13817C44.4247 3.72568 44.7975 4.38261 45.0318 5.10898C45.2662 5.83535 45.3833 6.56706 45.3833 7.30412C45.3833 8.18003 45.2236 8.97049 44.904 9.6755C44.5951 10.3698 44.1691 10.968 43.6258 11.4701C43.0826 11.9614 42.4541 12.3406 41.7405 12.6077C41.0268 12.864 40.2706 12.9922 39.4717 12.9922H35.3815ZM37.6982 10.749H39.0723C40.2439 10.749 41.1866 10.4446 41.9003 9.83573C42.6246 9.22686 42.9867 8.32958 42.9867 7.14389C42.9867 6.37479 42.8589 5.7499 42.6033 5.26921C42.3583 4.77784 42.0494 4.39864 41.6766 4.13159C41.3144 3.86454 40.9416 3.68295 40.5582 3.58681C40.1747 3.47999 39.8498 3.42658 39.5835 3.42658H37.6982V10.749Z" fill="white"/>
<path d="M50.9033 1.1994H58.9239V3.44261H53.22V5.95819H57.3647V8.2014H53.22V10.749H59.1476V12.9922H50.9033V1.1994Z" fill="white"/>
<path d="M68.3028 1.1994C69.7834 1.1994 70.9178 1.56259 71.706 2.28896C72.5049 3.00465 72.9043 3.96602 72.9043 5.17308C72.9043 5.84604 72.7605 6.50831 72.4729 7.15991C72.196 7.81151 71.722 8.32958 71.0509 8.71413L73.7831 12.9922H71.0829L68.6064 9.24288H67.0566V12.9922H64.7399V1.1994H68.3028ZM68.7023 6.99968C69.171 6.99968 69.5331 6.90354 69.7887 6.71127C70.055 6.50831 70.2414 6.27331 70.348 6.00626C70.4545 5.72853 70.5077 5.47751 70.5077 5.25319C70.5077 5.12501 70.4864 4.96478 70.4438 4.7725C70.4119 4.56955 70.3373 4.36659 70.2201 4.16364C70.103 3.96068 69.9219 3.78977 69.6769 3.6509C69.4426 3.51204 69.123 3.44261 68.7182 3.44261H67.0566V6.99968H68.7023Z" fill="white"/>
<path d="M89.4177 13.4729L81.1893 6.02229L81.2373 12.9922H78.8886V0.734742H78.9845L87.1968 8.29753L87.1489 1.1994H89.4816V13.4729H89.4177Z" fill="white"/>
<path d="M99.8241 0.712769H99.7003L94.3928 12.9778H96.6753L99.7416 5.85529L102.808 12.9916H105.132L99.8241 0.712769Z" fill="white"/>
</svg>
