<svg width="71" height="5" viewBox="0 0 71 5" fill="none" xmlns="http://www.w3.org/2000/svg">
<path d="M1.37468 0.618169C1.83315 0.618169 2.19366 0.733767 2.45621 0.964963C2.71875 1.19616 2.85002 1.51944 2.85002 1.93481C2.85002 2.10331 2.82455 2.26985 2.77361 2.43443C2.72267 2.59509 2.64038 2.74204 2.52674 2.87527C2.41702 3.00458 2.27203 3.11038 2.09178 3.19267C1.91153 3.27104 1.69209 3.31023 1.43346 3.31023H0.804528V4.86786H0.234375V0.618169H1.37468ZM1.43346 2.75183C1.59804 2.75183 1.73519 2.72636 1.84491 2.67542C1.95463 2.62056 2.04084 2.55003 2.10354 2.46382C2.17015 2.37761 2.21717 2.28944 2.2446 2.19931C2.27203 2.10527 2.28575 2.02102 2.28575 1.94657C2.28575 1.83293 2.25832 1.71537 2.20346 1.59389C2.15252 1.47242 2.06631 1.37054 1.94483 1.28825C1.82728 1.20596 1.66661 1.16481 1.46285 1.16481H0.804528V2.75183H1.43346Z" fill="white"/>
<path d="M7.86224 0.618169C8.14437 0.618169 8.39908 0.669111 8.62636 0.770994C8.85363 0.868958 9.03389 1.01786 9.16712 1.21771C9.30035 1.41364 9.36697 1.65267 9.36697 1.93481C9.36697 2.17776 9.31211 2.41288 9.20239 2.64015C9.09659 2.86743 8.91633 3.03985 8.66162 3.15741L9.73139 4.86786H9.0672L8.06208 3.29847C8.01898 3.30239 7.97391 3.30435 7.92689 3.30435H7.29796V4.86786H6.72781V0.618169H7.86224ZM7.91513 2.75183C8.14241 2.75183 8.31679 2.71069 8.43826 2.6284C8.56366 2.54219 8.65183 2.43835 8.70277 2.31687C8.75371 2.19148 8.77918 2.07196 8.77918 1.95832C8.77918 1.84468 8.75175 1.72713 8.69689 1.60565C8.64203 1.48417 8.55386 1.38033 8.43239 1.29412C8.31483 1.20791 8.15613 1.16481 7.95628 1.16481H7.29796V2.75183H7.91513Z" fill="white"/>
<path d="M13.2495 2.74596C13.2495 2.45206 13.3043 2.17384 13.4141 1.9113C13.5277 1.64875 13.6844 1.41756 13.8843 1.21771C14.0841 1.01786 14.3134 0.861121 14.572 0.747482C14.8345 0.629925 15.1147 0.571147 15.4125 0.571147C15.7103 0.571147 15.9905 0.629925 16.2531 0.747482C16.5195 0.861121 16.7527 1.01786 16.9525 1.21771C17.1524 1.41756 17.3091 1.64875 17.4228 1.9113C17.5364 2.17384 17.5932 2.45206 17.5932 2.74596C17.5932 3.04769 17.5364 3.32982 17.4228 3.59237C17.3091 3.85099 17.1524 4.08023 16.9525 4.28008C16.7527 4.47993 16.5195 4.63667 16.2531 4.75031C15.9905 4.86003 15.7103 4.91489 15.4125 4.91489C15.1147 4.91489 14.8345 4.86003 14.572 4.75031C14.3134 4.64059 14.0841 4.48776 13.8843 4.29183C13.6844 4.09591 13.5277 3.86667 13.4141 3.60412C13.3043 3.33766 13.2495 3.0516 13.2495 2.74596ZM13.8373 2.75183C13.8373 2.97519 13.8784 3.18484 13.9607 3.38076C14.043 3.57278 14.1566 3.74323 14.3016 3.89214C14.4466 4.04105 14.6151 4.15664 14.8071 4.23893C14.9991 4.32122 15.2068 4.36237 15.4302 4.36237C15.7241 4.36237 15.9886 4.29183 16.2237 4.15077C16.4627 4.00578 16.6528 3.81181 16.7938 3.56886C16.9349 3.32199 17.0054 3.04769 17.0054 2.74596C17.0054 2.5226 16.9643 2.31295 16.882 2.11702C16.7997 1.91718 16.6861 1.7428 16.5411 1.59389C16.3961 1.44499 16.2276 1.32939 16.0356 1.2471C15.8436 1.16089 15.6379 1.11779 15.4184 1.11779C15.1206 1.11779 14.8522 1.19224 14.6131 1.34115C14.3741 1.49005 14.1841 1.68794 14.043 1.93481C13.9058 2.18168 13.8373 2.45402 13.8373 2.75183Z" fill="white"/>
<path d="M22.6918 0.618169C23.1503 0.618169 23.5108 0.733767 23.7733 0.964963C24.0359 1.19616 24.1672 1.51944 24.1672 1.93481C24.1672 2.10331 24.1417 2.26985 24.0907 2.43443C24.0398 2.59509 23.9575 2.74204 23.8439 2.87527C23.7341 3.00458 23.5892 3.11038 23.4089 3.19267C23.2287 3.27104 23.0092 3.31023 22.7506 3.31023H22.1217V4.86786H21.5515V0.618169H22.6918ZM22.7506 2.75183C22.9152 2.75183 23.0523 2.72636 23.162 2.67542C23.2718 2.62056 23.358 2.55003 23.4207 2.46382C23.4873 2.37761 23.5343 2.28944 23.5617 2.19931C23.5892 2.10527 23.6029 2.02102 23.6029 1.94657C23.6029 1.83293 23.5754 1.71537 23.5206 1.59389C23.4696 1.47242 23.3834 1.37054 23.262 1.28825C23.1444 1.20596 22.9837 1.16481 22.78 1.16481H22.1217V2.75183H22.7506Z" fill="white"/>
<path d="M28.0449 0.618169H28.6151V4.86786H28.0449V0.618169Z" fill="white"/>
<path d="M32.8336 0.618169H35.5961V1.16481H33.4037V2.45794H35.361V3.00458H33.4037V4.31535H35.6784V4.86786H32.8336V0.618169Z" fill="white"/>
<path d="M39.6714 4.86786V0.618169H40.8352C41.2545 0.618169 41.6111 0.682826 41.905 0.812139C42.1989 0.937533 42.4359 1.10603 42.6162 1.31763C42.8004 1.52924 42.9336 1.76435 43.0159 2.02298C43.1021 2.27769 43.1452 2.53435 43.1452 2.79298C43.1452 3.11038 43.0884 3.3984 42.9748 3.65702C42.8611 3.91173 42.7063 4.12921 42.5104 4.30947C42.3145 4.48972 42.0892 4.62883 41.8344 4.7268C41.5837 4.82084 41.3192 4.86786 41.0409 4.86786H39.6714ZM40.2415 4.31535H40.9293C41.2388 4.31535 41.5151 4.25461 41.758 4.13313C42.0049 4.01166 42.1989 3.83532 42.3399 3.60412C42.481 3.36901 42.5515 3.08491 42.5515 2.75183C42.5515 2.407 42.4771 2.11702 42.3282 1.88191C42.1832 1.6468 41.9892 1.4685 41.7463 1.34702C41.5072 1.22555 41.2525 1.16481 40.9822 1.16481H40.2415V4.31535Z" fill="white"/>
<path d="M46.4477 4.86786L48.3051 0.441833H48.3403L50.1977 4.86786H49.5394L49.0986 3.75107H47.4645L47.0119 4.86786H46.4477ZM47.6644 3.25733H48.9046L48.2992 1.71145L47.6644 3.25733Z" fill="white"/>
<path d="M53.99 4.86786V0.618169H55.1538C55.5731 0.618169 55.9297 0.682826 56.2235 0.812139C56.5174 0.937533 56.7545 1.10603 56.9348 1.31763C57.1189 1.52924 57.2522 1.76435 57.3345 2.02298C57.4207 2.27769 57.4638 2.53435 57.4638 2.79298C57.4638 3.11038 57.407 3.3984 57.2933 3.65702C57.1797 3.91173 57.0249 4.12921 56.829 4.30947C56.633 4.48972 56.4077 4.62883 56.153 4.7268C55.9022 4.82084 55.6377 4.86786 55.3595 4.86786H53.99ZM54.5601 4.31535H55.2478C55.5574 4.31535 55.8337 4.25461 56.0766 4.13313C56.3235 4.01166 56.5174 3.83532 56.6585 3.60412C56.7996 3.36901 56.8701 3.08491 56.8701 2.75183C56.8701 2.407 56.7957 2.11702 56.6468 1.88191C56.5018 1.6468 56.3078 1.4685 56.0648 1.34702C55.8258 1.22555 55.5711 1.16481 55.3007 1.16481H54.5601V4.31535Z" fill="white"/>
<path d="M61.419 0.618169H64.1816V1.16481H61.9892V2.45794H63.9465V3.00458H61.9892V4.31535H64.2639V4.86786H61.419V0.618169Z" fill="white"/>
<path d="M70.4552 1.37641C70.3102 1.30196 70.1515 1.2373 69.9791 1.18244C69.8067 1.12758 69.6401 1.10015 69.4795 1.10015C69.2483 1.10015 69.0641 1.15305 68.9269 1.25886C68.7937 1.36466 68.7271 1.50769 68.7271 1.68794C68.7271 1.81725 68.7702 1.92697 68.8564 2.0171C68.9465 2.10723 69.0602 2.18756 69.1973 2.25809C69.3384 2.32471 69.4873 2.38741 69.644 2.44618C69.8204 2.5128 69.9908 2.59313 70.1554 2.68718C70.32 2.78122 70.4552 2.90858 70.561 3.06924C70.6707 3.22598 70.7256 3.43758 70.7256 3.70405C70.7256 3.93132 70.6687 4.13705 70.5551 4.32122C70.4415 4.50148 70.2808 4.64647 70.0731 4.75619C69.8654 4.86199 69.6186 4.91489 69.3325 4.91489C69.0504 4.91489 68.7878 4.86982 68.5449 4.7797C68.3058 4.68957 68.1021 4.58573 67.9336 4.46817L68.1863 4.01557C68.3235 4.12138 68.492 4.21346 68.6918 4.29183C68.8956 4.37021 69.0896 4.40939 69.2737 4.40939C69.4109 4.40939 69.5441 4.38588 69.6734 4.33886C69.8067 4.29183 69.9164 4.21738 70.0026 4.1155C70.0888 4.0097 70.1319 3.87451 70.1319 3.70993C70.1319 3.56886 70.0927 3.44934 70.0143 3.35138C69.936 3.25341 69.8341 3.17112 69.7087 3.10451C69.5872 3.03397 69.454 2.97127 69.309 2.91641C69.1758 2.86939 69.0406 2.81453 68.9034 2.75183C68.7663 2.68914 68.6389 2.61468 68.5214 2.52847C68.4077 2.43835 68.3156 2.32863 68.2451 2.19931C68.1746 2.07 68.1393 1.91326 68.1393 1.72909C68.1393 1.50573 68.1922 1.31176 68.298 1.14718C68.4077 0.978678 68.5566 0.847406 68.7447 0.75336C68.9328 0.655396 69.1503 0.602495 69.3972 0.594658C69.6675 0.594658 69.9066 0.627966 70.1143 0.694582C70.3259 0.761197 70.512 0.841528 70.6727 0.935574L70.4552 1.37641Z" fill="white"/>
</svg>
