<svg width="128" height="8" viewBox="0 0 128 8" fill="none" xmlns="http://www.w3.org/2000/svg">
<path d="M2.05884 1.01375C2.88662 1.01375 3.53752 1.20171 4.01155 1.57761C4.48557 1.95351 4.72259 2.47913 4.72259 3.15448C4.72259 3.42844 4.6766 3.69922 4.58462 3.96681C4.49265 4.22803 4.34407 4.46695 4.1389 4.68357C3.9408 4.89382 3.67902 5.06584 3.35357 5.19963C3.02812 5.32706 2.63191 5.39077 2.16496 5.39077H1.02942V7.92332H0V1.01375H2.05884ZM2.16496 4.48287C2.46211 4.48287 2.70974 4.44146 2.90784 4.35864C3.10594 4.26944 3.26159 4.15476 3.37479 4.01459C3.49507 3.87442 3.57997 3.73107 3.62949 3.58453C3.67902 3.43163 3.70378 3.29465 3.70378 3.17359C3.70378 2.98883 3.65426 2.79769 3.55521 2.60018C3.46323 2.40268 3.30758 2.23703 3.08825 2.10323C2.876 1.96943 2.58593 1.90254 2.21802 1.90254H1.02942V4.48287H2.16496Z" fill="#B4B4B4"/>
<path d="M13.7722 1.01375C14.2816 1.01375 14.7415 1.09658 15.1518 1.26223C15.5622 1.42151 15.8876 1.66362 16.1282 1.98855C16.3687 2.30711 16.489 2.69575 16.489 3.15448C16.489 3.54949 16.39 3.93177 16.1919 4.3013C16.0008 4.67083 15.6754 4.95116 15.2155 5.14229L17.147 7.92332H15.9478L14.133 5.37166C14.0552 5.37803 13.9738 5.38121 13.8889 5.38121H12.7534V7.92332H11.724V1.01375H13.7722ZM13.8677 4.48287C14.2781 4.48287 14.5929 4.41598 14.8122 4.28218C15.0386 4.14202 15.1978 3.97318 15.2898 3.77567C15.3818 3.57179 15.4278 3.37747 15.4278 3.19271C15.4278 3.00794 15.3782 2.8168 15.2792 2.6193C15.1801 2.42179 15.0209 2.25295 14.8016 2.11279C14.5894 1.97262 14.3028 1.90254 13.942 1.90254H12.7534V4.48287H13.8677Z" fill="#B4B4B4"/>
<path d="M23.4989 4.47332C23.4989 3.99548 23.598 3.54312 23.7961 3.11625C24.0013 2.68938 24.2843 2.31348 24.6451 1.98855C25.0059 1.66362 25.4198 1.40877 25.8868 1.224C26.3608 1.03287 26.8667 0.937301 27.4044 0.937301C27.9421 0.937301 28.4479 1.03287 28.922 1.224C29.4031 1.40877 29.824 1.66362 30.1848 1.98855C30.5457 2.31348 30.8287 2.68938 31.0338 3.11625C31.239 3.54312 31.3416 3.99548 31.3416 4.47332C31.3416 4.9639 31.239 5.42263 31.0338 5.8495C30.8287 6.27 30.5457 6.64271 30.1848 6.96764C29.824 7.29257 29.4031 7.54742 28.922 7.73219C28.4479 7.91058 27.9421 7.99978 27.4044 7.99978C26.8667 7.99978 26.3608 7.91058 25.8868 7.73219C25.4198 7.55379 25.0059 7.30532 24.6451 6.98676C24.2843 6.6682 24.0013 6.29548 23.7961 5.86861C23.598 5.43537 23.4989 4.97027 23.4989 4.47332ZM24.5602 4.48287C24.5602 4.84603 24.6345 5.18689 24.7831 5.50545C24.9316 5.81764 25.1368 6.09479 25.3986 6.33689C25.6604 6.579 25.9646 6.76695 26.3113 6.90075C26.6579 7.03454 27.0329 7.10144 27.4362 7.10144C27.9668 7.10144 28.4444 6.98676 28.8689 6.75739C29.3005 6.52166 29.6436 6.20628 29.8983 5.81127C30.153 5.40988 30.2804 4.9639 30.2804 4.47332C30.2804 4.11016 30.2061 3.7693 30.0575 3.45074C29.9089 3.12581 29.7037 2.84229 29.442 2.60018C29.1802 2.35808 28.876 2.17013 28.5293 2.03633C28.1826 1.89617 27.8112 1.82608 27.415 1.82608C26.8773 1.82608 26.3926 1.94714 25.961 2.18924C25.5295 2.43135 25.1863 2.75309 24.9316 3.15448C24.684 3.55586 24.5602 3.99866 24.5602 4.48287Z" fill="#B4B4B4"/>
<path d="M40.5472 1.01375C41.375 1.01375 42.0259 1.20171 42.4999 1.57761C42.9739 1.95351 43.2109 2.47913 43.2109 3.15448C43.2109 3.42844 43.1649 3.69922 43.073 3.96681C42.981 4.22803 42.8324 4.46695 42.6272 4.68357C42.4291 4.89382 42.1674 5.06584 41.8419 5.19963C41.5165 5.32706 41.1203 5.39077 40.6533 5.39077H39.5178V7.92332H38.4883V1.01375H40.5472ZM40.6533 4.48287C40.9505 4.48287 41.1981 4.44146 41.3962 4.35864C41.5943 4.26944 41.7499 4.15476 41.8631 4.01459C41.9834 3.87442 42.0683 3.73107 42.1178 3.58453C42.1674 3.43163 42.1921 3.29465 42.1921 3.17359C42.1921 2.98883 42.1426 2.79769 42.0435 2.60018C41.9516 2.40268 41.7959 2.23703 41.5766 2.10323C41.3643 1.96943 41.0743 1.90254 40.7064 1.90254H39.5178V4.48287H40.6533Z" fill="#B4B4B4"/>
<path d="M50.2123 1.01375H51.2417V7.92332H50.2123V1.01375Z" fill="#B4B4B4"/>
<path d="M58.8582 1.01375H63.8461V1.90254H59.8876V4.00503H63.4216V4.89382H59.8876V7.02498H63.9947V7.92332H58.8582V1.01375Z" fill="#B4B4B4"/>
<path d="M71.204 7.92332V1.01375H73.3053C74.0623 1.01375 74.7062 1.11888 75.2368 1.32913C75.7674 1.53301 76.1955 1.80697 76.5209 2.15101C76.8534 2.49506 77.094 2.87733 77.2426 3.29783C77.3982 3.71196 77.4761 4.12927 77.4761 4.54977C77.4761 5.06584 77.3735 5.53412 77.1683 5.95462C76.9631 6.36875 76.6836 6.72235 76.3299 7.01543C75.9761 7.3085 75.5693 7.53468 75.1095 7.69396C74.6567 7.84687 74.1791 7.92332 73.6768 7.92332H71.204ZM72.2335 7.02498H73.4751C74.034 7.02498 74.5328 6.92623 74.9715 6.72872C75.4172 6.53122 75.7674 6.24451 76.0221 5.86861C76.2768 5.48634 76.4042 5.02443 76.4042 4.48287C76.4042 3.92221 76.2698 3.45074 76.0009 3.06847C75.7391 2.6862 75.3889 2.39631 74.9503 2.1988C74.5187 2.00129 74.0588 1.90254 73.5706 1.90254H72.2335V7.02498Z" fill="#B4B4B4"/>
<path d="M83.4387 7.92332L86.7922 0.727051H86.8559L90.2095 7.92332H89.0209L88.2249 6.10753H85.2746L84.4575 7.92332H83.4387ZM85.6355 5.30476H87.8747L86.7816 2.79132L85.6355 5.30476Z" fill="#B4B4B4"/>
<path d="M97.0564 7.92332V1.01375H99.1577C99.9147 1.01375 100.559 1.11888 101.089 1.32913C101.62 1.53301 102.048 1.80697 102.373 2.15101C102.706 2.49506 102.946 2.87733 103.095 3.29783C103.251 3.71196 103.328 4.12927 103.328 4.54977C103.328 5.06584 103.226 5.53412 103.021 5.95462C102.815 6.36875 102.536 6.72235 102.182 7.01543C101.828 7.3085 101.422 7.53468 100.962 7.69396C100.509 7.84687 100.031 7.92332 99.5291 7.92332H97.0564ZM98.0858 7.02498H99.3275C99.8864 7.02498 100.385 6.92623 100.824 6.72872C101.27 6.53122 101.62 6.24451 101.874 5.86861C102.129 5.48634 102.257 5.02443 102.257 4.48287C102.257 3.92221 102.122 3.45074 101.853 3.06847C101.591 2.6862 101.241 2.39631 100.803 2.1988C100.371 2.00129 99.9112 1.90254 99.423 1.90254H98.0858V7.02498Z" fill="#B4B4B4"/>
<path d="M110.47 1.01375H115.458V1.90254H111.499V4.00503H115.033V4.89382H111.499V7.02498H115.606V7.92332H110.47V1.01375Z" fill="#B4B4B4"/>
<path d="M126.785 2.24658C126.523 2.12553 126.236 2.0204 125.925 1.93121C125.614 1.84201 125.313 1.79741 125.023 1.79741C124.605 1.79741 124.273 1.88342 124.025 2.05545C123.785 2.22747 123.664 2.46002 123.664 2.75309C123.664 2.96334 123.742 3.14174 123.898 3.28827C124.061 3.43481 124.266 3.56542 124.513 3.6801C124.768 3.78841 125.037 3.89035 125.32 3.98592C125.638 4.09423 125.946 4.22484 126.243 4.37775C126.54 4.53066 126.785 4.73772 126.976 4.99894C127.174 5.25379 127.273 5.59784 127.273 6.03108C127.273 6.40061 127.17 6.7351 126.965 7.03454C126.76 7.32762 126.47 7.56335 126.095 7.74174C125.72 7.91377 125.274 7.99978 124.758 7.99978C124.248 7.99978 123.774 7.92651 123.335 7.77997C122.904 7.63343 122.536 7.4646 122.232 7.27346L122.688 6.53759C122.936 6.70961 123.24 6.85933 123.601 6.98676C123.969 7.11418 124.319 7.17789 124.651 7.17789C124.899 7.17789 125.14 7.13967 125.373 7.06321C125.614 6.98676 125.812 6.8657 125.967 6.70005C126.123 6.52803 126.201 6.30822 126.201 6.04063C126.201 5.81127 126.13 5.61695 125.989 5.45767C125.847 5.29839 125.663 5.16459 125.437 5.05628C125.217 4.9416 124.977 4.83966 124.715 4.75047C124.475 4.67401 124.23 4.58481 123.983 4.48287C123.735 4.38094 123.505 4.25988 123.293 4.11972C123.088 3.97318 122.922 3.79478 122.794 3.58453C122.667 3.37429 122.603 3.11944 122.603 2.81999C122.603 2.45683 122.699 2.14146 122.89 1.87387C123.088 1.59991 123.357 1.38647 123.696 1.23356C124.036 1.07428 124.429 0.98827 124.874 0.975527C125.362 0.975527 125.794 1.02968 126.169 1.13799C126.551 1.2463 126.887 1.37691 127.177 1.52982L126.785 2.24658Z" fill="#B4B4B4"/>
</svg>
