<svg width="47" height="37" viewBox="0 0 47 37" fill="none" xmlns="http://www.w3.org/2000/svg">
<path fill-rule="evenodd" clip-rule="evenodd" d="M0 -0.000244141V36.529H33.7896V33.9198C33.7896 33.0418 33.7563 32.1717 33.6911 31.3105C32.4958 15.5369 20.5535 2.77886 5.19839 0.398698C3.50387 0.136035 1.76779 -0.000244141 0 -0.000244141ZM5.19839 5.69147V31.3105H28.4746C27.3177 18.4231 17.6749 7.99208 5.19839 5.69147Z" fill="#C49A6A"/>
<path fill-rule="evenodd" clip-rule="evenodd" d="M46.5748 -0.000244141V36.529H12.7852V33.9198C12.7852 33.0418 12.8184 32.1717 12.8837 31.3105C14.079 15.5369 26.0212 2.77886 41.3764 0.398698C43.0709 0.136035 44.807 -0.000244141 46.5748 -0.000244141ZM41.3764 5.69147V31.3105H18.1002C19.257 18.4231 28.8999 7.99208 41.3764 5.69147Z" fill="#C49A6A"/>
</svg>
