<svg width="215" height="37" viewBox="0 0 215 37" fill="none" xmlns="http://www.w3.org/2000/svg">
<path fill-rule="evenodd" clip-rule="evenodd" d="M0 -0.000244141V36.529H33.7896V33.9198C33.7896 33.0418 33.7563 32.1717 33.6911 31.3105C32.4958 15.5369 20.5535 2.77886 5.19839 0.398698C3.50387 0.136035 1.76779 -0.000244141 0 -0.000244141ZM5.19839 5.69147V31.3105H28.4746C27.3177 18.4231 17.6749 7.99208 5.19839 5.69147Z" fill="#C49A6A"/>
<path fill-rule="evenodd" clip-rule="evenodd" d="M46.5748 -0.000244141V36.529H12.7852V33.9198C12.7852 33.0418 12.8184 32.1717 12.8837 31.3105C14.079 15.5369 26.0212 2.77886 41.3764 0.398698C43.0709 0.136035 44.807 -0.000244141 46.5748 -0.000244141ZM41.3764 5.69147V31.3105H18.1002C19.257 18.4231 28.8999 7.99208 41.3764 5.69147Z" fill="#C49A6A"/>
<path d="M76.556 27.5112C77.1678 27.5112 77.6488 27.6654 77.9991 27.9739C78.3494 28.2824 78.5246 28.7137 78.5246 29.268C78.5246 29.4928 78.4906 29.715 78.4226 29.9346C78.3546 30.149 78.2448 30.3451 78.0932 30.5228C77.9468 30.6954 77.7534 30.8366 77.5128 30.9464C77.2723 31.0509 76.9795 31.1032 76.6344 31.1032H75.7952V33.1816H75.0345V27.5112H76.556ZM76.6344 30.3581C76.854 30.3581 77.037 30.3242 77.1834 30.2562C77.3298 30.183 77.4449 30.0889 77.5285 29.9738C77.6174 29.8588 77.6802 29.7412 77.7168 29.6209C77.7534 29.4954 77.7717 29.383 77.7717 29.2837C77.7717 29.132 77.7351 28.9752 77.6619 28.8131C77.5939 28.651 77.4789 28.5151 77.3168 28.4053C77.1599 28.2955 76.9455 28.2406 76.6737 28.2406H75.7952V30.3581H76.6344Z" fill="#01173C"/>
<path d="M85.2124 27.5112C85.5889 27.5112 85.9288 27.5791 86.232 27.7151C86.5353 27.8458 86.7758 28.0445 86.9536 28.3111C87.1313 28.5726 87.2202 28.8915 87.2202 29.268C87.2202 29.5922 87.147 29.9059 87.0006 30.2091C86.8594 30.5124 86.6189 30.7424 86.2791 30.8993L87.7065 33.1816H86.8202L85.4791 31.0875C85.4216 31.0928 85.3614 31.0954 85.2987 31.0954H84.4595V33.1816H83.6988V27.5112H85.2124ZM85.283 30.3581C85.5863 30.3581 85.819 30.3032 85.981 30.1934C86.1484 30.0784 86.266 29.9399 86.334 29.7778C86.4019 29.6105 86.4359 29.451 86.4359 29.2993C86.4359 29.1477 86.3993 28.9909 86.3261 28.8288C86.2529 28.6667 86.1353 28.5281 85.9732 28.4131C85.8163 28.2981 85.6046 28.2406 85.3379 28.2406H84.4595V30.3581H85.283Z" fill="#01173C"/>
<path d="M92.4007 30.3503C92.4007 29.9582 92.4739 29.5869 92.6203 29.2366C92.7719 28.8863 92.9811 28.5778 93.2477 28.3111C93.5144 28.0445 93.8203 27.8353 94.1654 27.6837C94.5157 27.5269 94.8895 27.4484 95.2869 27.4484C95.6843 27.4484 96.0581 27.5269 96.4084 27.6837C96.764 27.8353 97.0751 28.0445 97.3417 28.3111C97.6084 28.5778 97.8175 28.8863 97.9692 29.2366C98.1208 29.5869 98.1966 29.9582 98.1966 30.3503C98.1966 30.7529 98.1208 31.1294 97.9692 31.4797C97.8175 31.8248 97.6084 32.1306 97.3417 32.3973C97.0751 32.664 96.764 32.8731 96.4084 33.0247C96.0581 33.1711 95.6843 33.2443 95.2869 33.2443C94.8895 33.2443 94.5157 33.1711 94.1654 33.0247C93.8203 32.8783 93.5144 32.6744 93.2477 32.413C92.9811 32.1516 92.7719 31.8457 92.6203 31.4954C92.4739 31.1398 92.4007 30.7581 92.4007 30.3503ZM93.185 30.3581C93.185 30.6562 93.2399 30.9359 93.3497 31.1973C93.4595 31.4535 93.6111 31.681 93.8046 31.8797C93.998 32.0784 94.2229 32.2326 94.4791 32.3424C94.7353 32.4522 95.0124 32.5071 95.3104 32.5071C95.7026 32.5071 96.0555 32.413 96.3692 32.2248C96.6882 32.0313 96.9417 31.7725 97.13 31.4483C97.3182 31.1189 97.4123 30.7529 97.4123 30.3503C97.4123 30.0523 97.3574 29.7725 97.2476 29.5111C97.1378 29.2444 96.9862 29.0118 96.7927 28.8131C96.5993 28.6144 96.3744 28.4602 96.1182 28.3504C95.862 28.2353 95.5875 28.1778 95.2947 28.1778C94.8974 28.1778 94.5392 28.2772 94.2203 28.4758C93.9013 28.6745 93.6477 28.9386 93.4595 29.268C93.2765 29.5974 93.185 29.9608 93.185 30.3581Z" fill="#01173C"/>
<path d="M105 27.5112C105.611 27.5112 106.092 27.6654 106.443 27.9739C106.793 28.2824 106.968 28.7137 106.968 29.268C106.968 29.4928 106.934 29.715 106.866 29.9346C106.798 30.149 106.689 30.3451 106.537 30.5228C106.391 30.6954 106.197 30.8366 105.957 30.9464C105.716 31.0509 105.423 31.1032 105.078 31.1032H104.239V33.1816H103.478V27.5112H105ZM105.078 30.3581C105.298 30.3581 105.481 30.3242 105.627 30.2562C105.774 30.183 105.889 30.0889 105.972 29.9738C106.061 29.8588 106.124 29.7412 106.16 29.6209C106.197 29.4954 106.215 29.383 106.215 29.2837C106.215 29.132 106.179 28.9752 106.106 28.8131C106.038 28.651 105.923 28.5151 105.76 28.4053C105.604 28.2955 105.389 28.2406 105.117 28.2406H104.239V30.3581H105.078Z" fill="#01173C"/>
<path d="M112.142 27.5112H112.903V33.1816H112.142V27.5112Z" fill="#01173C"/>
<path d="M118.532 27.5112H122.218V28.2406H119.293V29.966H121.904V30.6954H119.293V32.4444H122.328V33.1816H118.532V27.5112Z" fill="#01173C"/>
<path d="M127.656 33.1816V27.5112H129.209C129.768 27.5112 130.244 27.5974 130.636 27.77C131.028 27.9373 131.345 28.1621 131.585 28.4445C131.831 28.7268 132.009 29.0405 132.118 29.3856C132.233 29.7255 132.291 30.068 132.291 30.413C132.291 30.8366 132.215 31.2209 132.064 31.5659C131.912 31.9058 131.705 32.196 131.444 32.4365C131.182 32.677 130.882 32.8626 130.542 32.9934C130.207 33.1188 129.854 33.1816 129.483 33.1816H127.656ZM128.417 32.4444H129.334C129.747 32.4444 130.116 32.3633 130.44 32.2012C130.769 32.0391 131.028 31.8039 131.216 31.4954C131.405 31.1816 131.499 30.8026 131.499 30.3581C131.499 29.898 131.399 29.5111 131.201 29.1974C131.007 28.8837 130.749 28.6458 130.424 28.4837C130.105 28.3216 129.766 28.2406 129.405 28.2406H128.417V32.4444Z" fill="#01173C"/>
<path d="M136.697 33.1816L139.176 27.2759H139.223L141.701 33.1816H140.823L140.235 31.6914H138.054L137.45 33.1816H136.697ZM138.321 31.0326H139.976L139.168 28.9699L138.321 31.0326Z" fill="#01173C"/>
<path d="M146.761 33.1816V27.5112H148.314C148.874 27.5112 149.349 27.5974 149.742 27.77C150.134 27.9373 150.45 28.1621 150.691 28.4445C150.936 28.7268 151.114 29.0405 151.224 29.3856C151.339 29.7255 151.396 30.068 151.396 30.413C151.396 30.8366 151.321 31.2209 151.169 31.5659C151.017 31.9058 150.811 32.196 150.549 32.4365C150.288 32.677 149.987 32.8626 149.647 32.9934C149.313 33.1188 148.96 33.1816 148.589 33.1816H146.761ZM147.522 32.4444H148.44C148.853 32.4444 149.221 32.3633 149.545 32.2012C149.875 32.0391 150.134 31.8039 150.322 31.4954C150.51 31.1816 150.604 30.8026 150.604 30.3581C150.604 29.898 150.505 29.5111 150.306 29.1974C150.113 28.8837 149.854 28.6458 149.53 28.4837C149.211 28.3216 148.871 28.2406 148.51 28.2406H147.522V32.4444Z" fill="#01173C"/>
<path d="M156.674 27.5112H160.36V28.2406H157.435V29.966H160.046V30.6954H157.435V32.4444H160.47V33.1816H156.674V27.5112Z" fill="#01173C"/>
<path d="M168.731 28.5229C168.538 28.4236 168.326 28.3373 168.096 28.2641C167.866 28.1909 167.643 28.1543 167.429 28.1543C167.121 28.1543 166.875 28.2249 166.692 28.366C166.514 28.5072 166.425 28.6981 166.425 28.9386C166.425 29.1111 166.483 29.2575 166.598 29.3778C166.718 29.498 166.87 29.6052 167.053 29.6993C167.241 29.7882 167.44 29.8719 167.649 29.9503C167.884 30.0392 168.111 30.1464 168.331 30.2719C168.551 30.3974 168.731 30.5673 168.872 30.7817C169.019 30.9908 169.092 31.2731 169.092 31.6287C169.092 31.932 169.016 32.2065 168.864 32.4522C168.713 32.6927 168.498 32.8862 168.221 33.0326C167.944 33.1737 167.615 33.2443 167.233 33.2443C166.857 33.2443 166.506 33.1842 166.182 33.0639C165.863 32.9437 165.591 32.8051 165.366 32.6483L165.704 32.0444C165.887 32.1855 166.111 32.3084 166.378 32.413C166.65 32.5176 166.909 32.5698 167.155 32.5698C167.338 32.5698 167.515 32.5385 167.688 32.4757C167.866 32.413 168.012 32.3136 168.127 32.1777C168.242 32.0365 168.3 31.8561 168.3 31.6365C168.3 31.4483 168.247 31.2888 168.143 31.1581C168.038 31.0274 167.902 30.9176 167.735 30.8287C167.573 30.7346 167.395 30.6509 167.202 30.5777C167.024 30.515 166.843 30.4418 166.66 30.3581C166.477 30.2745 166.308 30.1751 166.151 30.0601C165.999 29.9399 165.876 29.7935 165.782 29.6209C165.688 29.4484 165.641 29.2392 165.641 28.9935C165.641 28.6954 165.711 28.4366 165.853 28.217C165.999 27.9922 166.198 27.817 166.449 27.6916C166.7 27.5608 166.99 27.4903 167.319 27.4798C167.68 27.4798 167.999 27.5242 168.276 27.6131C168.558 27.702 168.807 27.8092 169.021 27.9347L168.731 28.5229Z" fill="#01173C"/>
<path d="M75.0343 20.0059V3.62915H75.0557L83.0076 14.9389L91.1513 3.62915H91.194V20.0059H88.1027V12.5016L82.9862 19.7921H82.9436L78.019 12.972V20.0059H75.0343Z" fill="#01173C"/>
<path d="M98.5541 12.1596C98.5541 11.0763 98.7602 10.0501 99.1724 9.08092C99.5845 8.11172 100.153 7.25654 100.878 6.51538C101.617 5.75997 102.47 5.16847 103.436 4.74088C104.403 4.31329 105.44 4.0995 106.549 4.0995C107.643 4.0995 108.673 4.31329 109.64 4.74088C110.606 5.16847 111.459 5.75997 112.198 6.51538C112.951 7.25654 113.534 8.11172 113.946 9.08092C114.373 10.0501 114.586 11.0763 114.586 12.1596C114.586 13.2713 114.373 14.3118 113.946 15.281C113.534 16.2502 112.951 17.1054 112.198 17.8465C111.459 18.5734 110.606 19.1435 109.64 19.5569C108.673 19.9702 107.643 20.1769 106.549 20.1769C105.44 20.1769 104.403 19.9702 103.436 19.5569C102.47 19.1435 101.617 18.5734 100.878 17.8465C100.153 17.1054 99.5845 16.2502 99.1724 15.281C98.7602 14.3118 98.5541 13.2713 98.5541 12.1596ZM101.752 12.1596C101.752 13.086 101.965 13.9341 102.392 14.7037C102.832 15.4591 103.422 16.0649 104.161 16.521C104.9 16.9628 105.731 17.1838 106.655 17.1838C107.551 17.1838 108.354 16.9628 109.064 16.521C109.789 16.0649 110.358 15.4591 110.77 14.7037C111.182 13.9341 111.388 13.086 111.388 12.1596C111.388 11.2046 111.175 10.3494 110.748 9.59403C110.322 8.82437 109.746 8.21862 109.022 7.77677C108.297 7.32068 107.48 7.09263 106.57 7.09263C105.66 7.09263 104.843 7.32068 104.118 7.77677C103.393 8.21862 102.818 8.82437 102.392 9.59403C101.965 10.3494 101.752 11.2046 101.752 12.1596Z" fill="#01173C"/>
<path d="M121.932 20.0059V4.27053H126.622C128.199 4.27053 129.542 4.50571 130.651 4.97606C131.759 5.44641 132.648 6.07354 133.316 6.85746C133.998 7.64137 134.495 8.51793 134.808 9.48714C135.121 10.4563 135.277 11.4327 135.277 12.4161C135.277 13.5849 135.064 14.6396 134.638 15.5803C134.225 16.5067 133.657 17.3049 132.932 17.9748C132.207 18.6304 131.369 19.1364 130.416 19.4927C129.464 19.8348 128.455 20.0059 127.389 20.0059H121.932ZM125.023 17.0127H126.856C128.42 17.0127 129.677 16.6065 130.63 15.7941C131.596 14.9817 132.079 13.7844 132.079 12.2023C132.079 11.1761 131.909 10.3423 131.568 9.70093C131.241 9.04529 130.829 8.53931 130.331 8.18298C129.848 7.82666 129.35 7.58436 128.839 7.45608C128.327 7.31355 127.894 7.24229 127.538 7.24229H125.023V17.0127Z" fill="#01173C"/>
<path d="M142.642 4.27053H153.344V7.26367H145.734V10.6202H151.264V13.6134H145.734V17.0127H153.643V20.0059H142.642V4.27053Z" fill="#01173C"/>
<path d="M165.859 4.27053C167.834 4.27053 169.348 4.75514 170.4 5.72434C171.466 6.67929 171.999 7.96206 171.999 9.57265C171.999 10.4706 171.807 11.3543 171.423 12.2237C171.054 13.0931 170.421 13.7844 169.526 14.2975L173.171 20.0059H169.568L166.264 15.003H164.196V20.0059H161.105V4.27053H165.859ZM166.392 12.0099C167.017 12.0099 167.5 11.8816 167.842 11.6251C168.197 11.3543 168.446 11.0407 168.588 10.6844C168.73 10.3138 168.801 9.97886 168.801 9.67955C168.801 9.50851 168.772 9.29472 168.716 9.03817C168.673 8.76736 168.573 8.49655 168.417 8.22574C168.261 7.95494 168.019 7.72689 167.692 7.5416C167.38 7.35631 166.953 7.26367 166.413 7.26367H164.196V12.0099H166.392Z" fill="#01173C"/>
<path d="M194.033 20.6472L183.053 10.7058L183.117 20.0059H179.984V3.65053H180.111L191.069 13.7417L191.005 4.27053H194.118V20.6472H194.033Z" fill="#01173C"/>
<path d="M207.918 3.61963H207.753L200.671 19.985H203.717L207.808 10.4814L211.899 20.0034H215L207.918 3.61963Z" fill="#01173C"/>
</svg>
