<svg width="211" height="36" viewBox="0 0 211 36" fill="none" xmlns="http://www.w3.org/2000/svg">
<path fill-rule="evenodd" clip-rule="evenodd" d="M0 0.00012207V35.8497H33.1609V33.289C33.1609 32.4274 33.1283 31.5735 33.0642 30.7283C31.8912 15.2482 20.1711 2.72752 5.10167 0.391642C3.43868 0.133865 1.7349 0.00012207 0 0.00012207ZM5.10167 5.58594V30.7283H27.9448C26.8095 18.0807 17.3461 7.84374 5.10167 5.58594Z" fill="#C49A6A"/>
<path fill-rule="evenodd" clip-rule="evenodd" d="M45.708 0.00012207V35.8497H12.5471V33.289C12.5471 32.4274 12.5797 31.5735 12.6438 30.7283C13.8168 15.2482 25.5369 2.72752 40.6063 0.391642C42.2693 0.133865 43.9731 0.00012207 45.708 0.00012207ZM40.6063 5.58594V30.7283H17.7632C18.8985 18.0807 28.3619 7.84374 40.6063 5.58594Z" fill="#C49A6A"/>
<path d="M75.1309 26.9996C75.7313 26.9996 76.2034 27.151 76.5472 27.4537C76.891 27.7565 77.0629 28.1798 77.0629 28.7237C77.0629 28.9444 77.0295 29.1624 76.9628 29.378C76.8961 29.5883 76.7883 29.7808 76.6395 29.9552C76.4958 30.1246 76.306 30.2631 76.0699 30.3709C75.8339 30.4735 75.5465 30.5248 75.2079 30.5248H74.3843V32.5645H73.6377V26.9996H75.1309ZM75.2079 29.7936C75.4234 29.7936 75.603 29.7602 75.7467 29.6935C75.8903 29.6217 76.0032 29.5293 76.0853 29.4164C76.1726 29.3036 76.2341 29.1881 76.2701 29.0701C76.306 28.9469 76.3239 28.8366 76.3239 28.7391C76.3239 28.5903 76.288 28.4364 76.2162 28.2773C76.1495 28.1182 76.0366 27.9848 75.8775 27.877C75.7236 27.7693 75.5132 27.7154 75.2464 27.7154H74.3843V29.7936H75.2079Z" fill="white"/>
<path d="M83.6263 26.9996C83.9957 26.9996 84.3293 27.0663 84.6269 27.1997C84.9245 27.328 85.1605 27.523 85.335 27.7847C85.5095 28.0412 85.5967 28.3543 85.5967 28.7237C85.5967 29.0419 85.5249 29.3497 85.3812 29.6473C85.2426 29.945 85.0066 30.1707 84.6731 30.3247L86.0739 32.5645H85.2042L83.888 30.5094C83.8315 30.5145 83.7725 30.5171 83.7109 30.5171H82.8874V32.5645H82.1408V26.9996H83.6263ZM83.6955 29.7936C83.9932 29.7936 84.2215 29.7397 84.3806 29.632C84.5448 29.5191 84.6602 29.3831 84.7269 29.224C84.7937 29.0598 84.827 28.9033 84.827 28.7545C84.827 28.6057 84.7911 28.4518 84.7192 28.2927C84.6474 28.1336 84.532 27.9976 84.3729 27.8847C84.2189 27.7718 84.0111 27.7154 83.7494 27.7154H82.8874V29.7936H83.6955Z" fill="white"/>
<path d="M90.6808 29.7859C90.6808 29.401 90.7526 29.0367 90.8963 28.6929C91.0451 28.3491 91.2504 28.0464 91.5121 27.7847C91.7738 27.523 92.074 27.3177 92.4126 27.1689C92.7564 27.015 93.1233 26.938 93.5133 26.938C93.9033 26.938 94.2702 27.015 94.614 27.1689C94.9629 27.3177 95.2682 27.523 95.5299 27.7847C95.7916 28.0464 95.9968 28.3491 96.1457 28.6929C96.2945 29.0367 96.3689 29.401 96.3689 29.7859C96.3689 30.181 96.2945 30.5505 96.1457 30.8943C95.9968 31.2329 95.7916 31.5331 95.5299 31.7948C95.2682 32.0565 94.9629 32.2618 94.614 32.4106C94.2702 32.5542 93.9033 32.6261 93.5133 32.6261C93.1233 32.6261 92.7564 32.5542 92.4126 32.4106C92.074 32.2669 91.7738 32.0668 91.5121 31.8102C91.2504 31.5536 91.0451 31.2535 90.8963 30.9097C90.7526 30.5607 90.6808 30.1861 90.6808 29.7859ZM91.4505 29.7936C91.4505 30.0861 91.5044 30.3606 91.6121 30.6172C91.7199 30.8686 91.8687 31.0918 92.0586 31.2868C92.2484 31.4818 92.4691 31.6332 92.7205 31.7409C92.9719 31.8487 93.2439 31.9026 93.5364 31.9026C93.9212 31.9026 94.2676 31.8102 94.5755 31.6255C94.8885 31.4356 95.1374 31.1816 95.3221 30.8635C95.5068 30.5402 95.5992 30.181 95.5992 29.7859C95.5992 29.4934 95.5453 29.2189 95.4375 28.9623C95.3298 28.7006 95.181 28.4723 94.9911 28.2773C94.8013 28.0823 94.5806 27.9309 94.3292 27.8232C94.0777 27.7103 93.8083 27.6538 93.521 27.6538C93.131 27.6538 92.7795 27.7513 92.4665 27.9463C92.1535 28.1413 91.9046 28.4004 91.7199 28.7237C91.5403 29.047 91.4505 29.4036 91.4505 29.7936Z" fill="white"/>
<path d="M103.045 26.9996C103.646 26.9996 104.118 27.151 104.462 27.4537C104.805 27.7565 104.977 28.1798 104.977 28.7237C104.977 28.9444 104.944 29.1624 104.877 29.378C104.811 29.5883 104.703 29.7808 104.554 29.9552C104.41 30.1246 104.22 30.2631 103.984 30.3709C103.748 30.4735 103.461 30.5248 103.122 30.5248H102.299V32.5645H101.552V26.9996H103.045ZM103.122 29.7936C103.338 29.7936 103.517 29.7602 103.661 29.6935C103.805 29.6217 103.918 29.5293 104 29.4164C104.087 29.3036 104.149 29.1881 104.185 29.0701C104.22 28.9469 104.238 28.8366 104.238 28.7391C104.238 28.5903 104.203 28.4364 104.131 28.2773C104.064 28.1182 103.951 27.9848 103.792 27.877C103.638 27.7693 103.428 27.7154 103.161 27.7154H102.299V29.7936H103.122Z" fill="white"/>
<path d="M110.055 26.9996H110.802V32.5645H110.055V26.9996Z" fill="white"/>
<path d="M116.326 26.9996H119.943V27.7154H117.072V29.4087H119.636V30.1246H117.072V31.841H120.051V32.5645H116.326V26.9996Z" fill="white"/>
<path d="M125.28 32.5645V26.9996H126.804C127.353 26.9996 127.82 27.0843 128.205 27.2536C128.59 27.4178 128.9 27.6384 129.136 27.9155C129.377 28.1926 129.552 28.5005 129.66 28.8392C129.772 29.1727 129.829 29.5088 129.829 29.8475C129.829 30.2631 129.754 30.6403 129.606 30.9789C129.457 31.3125 129.254 31.5973 128.998 31.8333C128.741 32.0693 128.446 32.2515 128.112 32.3798C127.784 32.5029 127.438 32.5645 127.073 32.5645H125.28ZM126.027 31.841H126.927C127.332 31.841 127.694 31.7615 128.012 31.6024C128.336 31.4433 128.59 31.2124 128.774 30.9097C128.959 30.6018 129.051 30.2298 129.051 29.7936C129.051 29.342 128.954 28.9623 128.759 28.6544C128.569 28.3466 128.315 28.1131 127.997 27.954C127.684 27.7949 127.35 27.7154 126.996 27.7154H126.027V31.841Z" fill="white"/>
<path d="M134.153 32.5645L136.586 26.7687H136.632L139.064 32.5645H138.202L137.625 31.1021H135.485L134.892 32.5645H134.153ZM135.747 30.4555H137.371L136.578 28.4312L135.747 30.4555Z" fill="white"/>
<path d="M144.03 32.5645V26.9996H145.554C146.103 26.9996 146.57 27.0843 146.955 27.2536C147.34 27.4178 147.65 27.6384 147.886 27.9155C148.127 28.1926 148.302 28.5005 148.41 28.8392C148.522 29.1727 148.579 29.5088 148.579 29.8475C148.579 30.2631 148.504 30.6403 148.356 30.9789C148.207 31.3125 148.004 31.5973 147.748 31.8333C147.491 32.0693 147.196 32.2515 146.862 32.3798C146.534 32.5029 146.188 32.5645 145.823 32.5645H144.03ZM144.777 31.841H145.677C146.082 31.841 146.444 31.7615 146.762 31.6024C147.086 31.4433 147.34 31.2124 147.524 30.9097C147.709 30.6018 147.801 30.2298 147.801 29.7936C147.801 29.342 147.704 28.9623 147.509 28.6544C147.319 28.3466 147.065 28.1131 146.747 27.954C146.434 27.7949 146.1 27.7154 145.746 27.7154H144.777V31.841Z" fill="white"/>
<path d="M153.758 26.9996H157.376V27.7154H154.505V29.4087H157.068V30.1246H154.505V31.841H157.484V32.5645H153.758V26.9996Z" fill="white"/>
<path d="M165.591 27.9925C165.401 27.895 165.193 27.8103 164.967 27.7385C164.742 27.6667 164.524 27.6307 164.313 27.6307C164.01 27.6307 163.769 27.7 163.59 27.8386C163.415 27.9771 163.328 28.1644 163.328 28.4004C163.328 28.5698 163.384 28.7134 163.497 28.8315C163.615 28.9495 163.764 29.0547 163.944 29.147C164.128 29.2343 164.323 29.3164 164.529 29.3933C164.76 29.4806 164.983 29.5858 165.198 29.7089C165.414 29.8321 165.591 29.9988 165.729 30.2092C165.873 30.4145 165.945 30.6916 165.945 31.0405C165.945 31.3381 165.871 31.6075 165.722 31.8487C165.573 32.0847 165.363 32.2746 165.091 32.4183C164.819 32.5568 164.495 32.6261 164.121 32.6261C163.751 32.6261 163.408 32.5671 163.089 32.4491C162.776 32.331 162.51 32.1951 162.289 32.0411L162.62 31.4484C162.799 31.587 163.02 31.7076 163.282 31.8102C163.549 31.9128 163.803 31.9641 164.044 31.9641C164.223 31.9641 164.398 31.9334 164.567 31.8718C164.742 31.8102 164.885 31.7127 164.998 31.5793C165.111 31.4407 165.168 31.2637 165.168 31.0482C165.168 30.8635 165.116 30.707 165.014 30.5787C164.911 30.4504 164.778 30.3426 164.613 30.2554C164.454 30.163 164.28 30.0809 164.09 30.0091C163.916 29.9475 163.739 29.8757 163.559 29.7936C163.379 29.7115 163.213 29.614 163.059 29.5011C162.91 29.3831 162.789 29.2394 162.697 29.0701C162.604 28.9007 162.558 28.6955 162.558 28.4543C162.558 28.1618 162.628 27.9078 162.766 27.6923C162.91 27.4717 163.105 27.2998 163.351 27.1766C163.597 27.0483 163.882 26.9791 164.205 26.9688C164.56 26.9688 164.873 27.0124 165.144 27.0996C165.422 27.1869 165.665 27.2921 165.876 27.4152L165.591 27.9925Z" fill="white"/>
<path d="M73.6372 19.633V3.56104H73.6581L81.4621 14.6604L89.4543 3.56104H89.4962V19.633H86.4625V12.2685L81.4412 19.4232H81.3993L76.5663 12.73V19.633H73.6372Z" fill="white"/>
<path d="M96.7194 11.9327C96.7194 10.8697 96.9216 9.86255 97.3261 8.91138C97.7306 7.9602 98.2886 7.12093 98.9999 6.39357C99.7252 5.65221 100.562 5.07172 101.511 4.65208C102.459 4.23245 103.477 4.02263 104.565 4.02263C105.639 4.02263 106.65 4.23245 107.599 4.65208C108.547 5.07172 109.384 5.65221 110.11 6.39357C110.849 7.12093 111.421 7.9602 111.825 8.91138C112.244 9.86255 112.453 10.8697 112.453 11.9327C112.453 13.0238 112.244 14.0449 111.825 14.9961C111.421 15.9472 110.849 16.7865 110.11 17.5139C109.384 18.2273 108.547 18.7868 107.599 19.1924C106.65 19.5981 105.639 19.8009 104.565 19.8009C103.477 19.8009 102.459 19.5981 101.511 19.1924C100.562 18.7868 99.7252 18.2273 98.9999 17.5139C98.2886 16.7865 97.7306 15.9472 97.3261 14.9961C96.9216 14.0449 96.7194 13.0238 96.7194 11.9327ZM99.8577 11.9327C99.8577 12.842 100.067 13.6742 100.485 14.4296C100.918 15.1709 101.497 15.7654 102.222 16.213C102.947 16.6466 103.763 16.8635 104.67 16.8635C105.549 16.8635 106.337 16.6466 107.034 16.213C107.745 15.7654 108.303 15.1709 108.708 14.4296C109.112 13.6742 109.315 12.842 109.315 11.9327C109.315 10.9956 109.105 10.1563 108.687 9.41494C108.268 8.65959 107.704 8.06511 106.992 7.63149C106.281 7.18388 105.479 6.96007 104.586 6.96007C103.693 6.96007 102.891 7.18388 102.18 7.63149C101.469 8.06511 100.904 8.65959 100.485 9.41494C100.067 10.1563 99.8577 10.9956 99.8577 11.9327Z" fill="white"/>
<path d="M119.662 19.633V4.19049H124.265C125.813 4.19049 127.131 4.42129 128.219 4.88288C129.307 5.34448 130.179 5.95995 130.834 6.72928C131.504 7.49861 131.992 8.35886 132.299 9.31003C132.606 10.2612 132.759 11.2194 132.759 12.1845C132.759 13.3315 132.55 14.3666 132.131 15.2898C131.727 16.199 131.169 16.9823 130.458 17.6398C129.746 18.2832 128.923 18.7798 127.989 19.1295C127.054 19.4652 126.064 19.633 125.018 19.633H119.662ZM122.696 16.6956H124.495C126.029 16.6956 127.264 16.2969 128.198 15.4996C129.147 14.7023 129.621 13.5274 129.621 11.9747C129.621 10.9676 129.453 10.1493 129.119 9.51985C128.798 8.87641 128.393 8.37984 127.905 8.03014C127.431 7.68045 126.943 7.44265 126.441 7.31676C125.938 7.17689 125.513 7.10695 125.164 7.10695H122.696V16.6956Z" fill="white"/>
<path d="M139.987 4.19049H150.49V7.12793H143.021V10.4221H148.448V13.3595H143.021V16.6956H150.783V19.633H139.987V4.19049Z" fill="white"/>
<path d="M162.772 4.19049C164.711 4.19049 166.196 4.66607 167.228 5.61724C168.274 6.55443 168.797 7.81333 168.797 9.39396C168.797 10.2752 168.609 11.1424 168.233 11.9957C167.87 12.8489 167.249 13.5274 166.37 14.0309L169.948 19.633H166.412L163.169 14.7233H161.14V19.633H158.106V4.19049H162.772ZM163.295 11.7859C163.909 11.7859 164.383 11.66 164.718 11.4082C165.066 11.1424 165.31 10.8347 165.45 10.485C165.589 10.1213 165.659 9.79261 165.659 9.49886C165.659 9.33101 165.631 9.12119 165.575 8.86941C165.534 8.60364 165.436 8.33788 165.283 8.07211C165.129 7.80634 164.892 7.58253 164.571 7.40069C164.264 7.21885 163.846 7.12793 163.316 7.12793H161.14V11.7859H163.295Z" fill="white"/>
<path d="M190.421 20.2625L179.647 10.506L179.709 19.633H176.634V3.58202H176.759L187.513 13.4854L187.451 4.19049H190.505V20.2625H190.421Z" fill="white"/>
<path d="M204.049 3.55249H203.887L196.937 19.6134H199.926L203.941 10.2865L207.956 19.6314H210.999L204.049 3.55249Z" fill="white"/>
</svg>
