<svg width="126" height="124" viewBox="0 0 126 124" fill="none" xmlns="http://www.w3.org/2000/svg">
<path d="M54.0744 45.5433C54.0744 43.3336 52.6755 41.603 50.8897 41.603C49.1049 41.603 47.706 43.3336 47.706 45.5433C47.706 47.753 49.1039 49.4836 50.8897 49.4836C52.6755 49.4836 54.0744 47.753 54.0744 45.5433Z" fill="#C4C4C4"/>
<path d="M74.8031 49.4836C76.5889 49.4836 77.9879 47.753 77.9879 45.5433C77.9879 43.3336 76.5889 41.603 74.8031 41.603C73.0174 41.603 71.6194 43.3336 71.6194 45.5433C71.6194 47.753 73.0174 49.4836 74.8031 49.4836Z" fill="#C4C4C4"/>
<path d="M64.8942 58.8003C65.0926 58.8003 65.294 58.7963 65.4995 58.7883C66.5697 58.7432 67.4015 57.8393 67.3564 56.769C67.3123 55.6988 66.4124 54.87 65.3381 54.9121C64.3911 54.9522 62.7226 54.8961 62.2075 54.0763C61.5431 53.0201 62.3077 50.5088 63.0343 49.1429C63.5403 48.2009 63.1876 47.0264 62.2456 46.5184C61.3026 46.0113 60.1261 46.364 59.6181 47.307C59.3234 47.8532 56.8011 52.7485 58.9176 56.1317C60.0269 57.9044 62.0362 58.8003 64.8942 58.8003Z" fill="#C4C4C4"/>
<path d="M52.8719 60.8517C51.976 61.4399 51.7265 62.6415 52.3137 63.5373C52.469 63.7748 56.1989 69.3446 62.847 69.3446C69.494 69.3446 73.2249 63.7748 73.3802 63.5373C73.9654 62.6445 73.7169 61.4509 72.827 60.8607C71.9371 60.2714 70.7356 60.516 70.1414 61.4028C70.1143 61.4429 67.3685 65.4654 62.847 65.4654C58.3254 65.4654 55.5796 61.4439 55.5566 61.4099C54.9693 60.514 53.7668 60.2644 52.8719 60.8517Z" fill="#C4C4C4"/>
<path d="M25.9301 127.863H4.34651C4.5289 126.545 4.84456 124.709 5.37268 122.703C6.29563 119.198 8.06537 114.479 11.2541 111.901C16.888 107.346 40.7193 94.581 48.5659 90.4212C49.9719 97.0152 55.8392 101.977 62.847 101.977C69.8538 101.977 75.7222 97.0142 77.1282 90.4202C80.0634 91.9765 85.2303 94.7333 90.8131 97.7978C91.7411 98.3059 92.9386 97.9561 93.4467 97.0302C93.9617 96.0912 93.619 94.9127 92.68 94.3966C85.9498 90.7028 79.8209 87.454 77.4499 86.2023V77.1582C77.9099 76.7423 78.3588 76.3074 78.7927 75.8434C81.0094 73.4674 82.8403 70.5032 84.2813 66.9797C84.9297 67.095 85.568 67.1531 86.1923 67.1531C89.2879 67.1531 92.0327 65.7441 94.0219 63.0484C97.5523 58.2603 98.0915 50.1803 95.1533 46.0956C95.023 45.9142 94.8887 45.7419 94.7524 45.5755C98.2197 33.6313 97.1705 23.5119 91.6268 15.483C83.7091 4.01477 69.3317 0.724823 64.4604 0.425191C57.5749 0.00229746 52.7207 3.84842 50.5751 5.99295C47.8033 4.39257 44.821 4.06788 41.8607 5.06298C36.7048 6.79564 32.2314 12.5137 30.1851 19.9855C29.7662 21.5147 29.4796 23.3496 29.3343 25.437C29.2591 26.5053 30.0648 27.4322 31.1331 27.5074C32.1983 27.5835 33.1283 26.7758 33.2035 25.7076C33.3317 23.8747 33.5752 22.2934 33.926 21.0097C35.6095 14.8617 39.2091 10.0455 43.0963 8.73875C45.3461 7.98315 47.5718 8.4311 49.7083 10.0726C50.5561 10.7249 51.7757 10.5616 52.429 9.71481C52.4751 9.65668 57.0358 3.85543 64.2209 4.29636C68.2775 4.54689 81.4303 7.54222 88.4351 17.6866C93.0789 24.4128 94.07 32.9699 91.3983 43.1464C90.3571 42.7876 89.2388 42.6954 88.0723 42.8778C88.0523 42.2335 88.0282 41.8527 88.0242 41.7956C87.9701 40.9778 87.4079 40.2814 86.6192 40.0579C65.6389 34.1003 56.4024 20.4655 56.3143 20.3312C55.9154 19.7249 55.2099 19.3922 54.4894 19.4684C53.7669 19.5446 53.1486 20.0186 52.886 20.695C48.1099 32.9849 38.4024 40.4577 38.3062 40.5309C37.8543 40.8726 37.5737 41.3967 37.5396 41.9629C37.5366 42.014 37.5196 42.3287 37.5045 42.8608C36.3641 42.7005 35.2698 42.8037 34.2507 43.1644C33.7215 39.4286 33.3678 35.9763 33.2024 32.8797C33.1453 31.8105 32.2314 30.9877 31.1621 31.0469C30.0929 31.104 29.2721 32.0179 29.3283 33.0872C29.5317 36.8802 30.0037 41.1712 30.7272 45.8451C30.6641 45.9273 30.602 46.0094 30.5408 46.0946C27.6056 50.1752 28.1408 58.2513 31.6652 63.0384C33.6544 65.7411 36.4012 67.1541 39.5018 67.1541C40.1181 67.1541 40.7494 67.096 41.3907 66.9837C42.8629 70.5593 44.7358 73.5556 46.9976 75.9487C47.4004 76.3746 47.8183 76.7734 48.2432 77.1582V86.2023C42.466 89.2477 15.2295 103.699 8.81595 108.884C1.27703 114.98 0.284937 129.081 0.246856 129.678C0.175706 130.78 1.07861 131.742 2.18194 131.742H25.9301C27.0014 131.742 27.8702 130.875 27.8702 129.803C27.8702 128.732 27.0014 127.863 25.9301 127.863ZM87.461 54.3992C87.8428 51.5481 88.0082 48.9426 88.0693 46.8482C90.1186 46.2369 91.241 47.3002 92.0036 48.3604C93.7894 50.8417 93.6301 57.0437 90.8993 60.7456C89.5204 62.6165 87.7396 63.4503 85.5921 63.2478C86.4038 60.5572 87.0301 57.6099 87.461 54.3992ZM73.5707 87.3738C73.5707 93.2873 68.7605 98.0974 62.847 98.0974C56.9336 98.0974 52.1234 93.2873 52.1234 87.3738V79.9381C55.254 81.6557 58.8326 82.5226 62.826 82.5226H62.9172C66.8946 82.5095 70.4561 81.6397 73.5707 79.9321V87.3738ZM34.7888 60.7396C32.064 57.0377 31.9067 50.8376 33.6895 48.3594C34.7547 46.8793 35.9643 46.3822 37.5226 46.8162C37.5927 48.9436 37.7741 51.6233 38.188 54.5625C38.6309 57.7112 39.2622 60.6063 40.07 63.2519C37.9344 63.4423 36.1627 62.6055 34.7888 60.7396ZM41.3827 43.0352C43.6565 41.1472 50.5892 34.8759 55.1779 25.1745C59.014 29.6459 68.2304 38.5166 84.2021 43.3899C84.3013 48.172 84.0117 64.5706 75.9497 73.2039C72.5956 76.7955 68.2064 78.6263 62.9042 78.6434C57.603 78.6654 53.2017 76.8596 49.8225 73.2901C41.3937 64.3832 41.2875 47.0486 41.3827 43.0352Z" fill="#C4C4C4"/>
<path d="M125.447 129.678C125.408 129.081 124.416 114.979 116.878 108.884C114.393 106.875 108.537 103.27 99.4743 98.1705C98.5413 97.6454 97.3588 97.9761 96.8327 98.909C96.3076 99.843 96.6383 101.026 97.5722 101.551C108.627 107.771 112.845 110.612 114.439 111.9C119.138 115.699 120.807 123.993 121.344 127.863H33.6883C32.6171 127.863 31.7492 128.731 31.7492 129.802C31.7492 130.874 32.6171 131.742 33.6883 131.742H123.511C124.615 131.742 125.518 130.78 125.447 129.678Z" fill="#C4C4C4"/>
</svg>
