<svg width="158" height="193" viewBox="0 0 158 193" fill="none" xmlns="http://www.w3.org/2000/svg">
<path fill-rule="evenodd" clip-rule="evenodd" d="M34.5561 158.145C34.5561 156.59 35.8166 155.329 37.3714 155.329C38.9263 155.329 40.1868 156.59 40.1868 158.145V167.892C40.1868 169.523 39.5986 171.121 38.5302 172.391C34.874 176.739 32.8605 182.211 32.8605 187.798V189.587C32.8605 191.142 31.6 192.403 30.0451 192.403C28.4903 192.403 27.2298 191.142 27.2298 189.587V187.798C27.2298 180.888 29.7126 174.129 34.2209 168.767C34.4371 168.51 34.5561 168.199 34.5561 167.892V158.145ZM133.755 127.665C140.542 129.73 146.362 133.835 150.586 139.535C154.81 145.235 157.042 151.999 157.042 159.094V189.587C157.042 191.142 155.782 192.403 154.227 192.403C152.672 192.403 151.412 191.142 151.412 189.587V159.094C151.412 147.03 143.658 136.565 132.116 133.053L123.131 130.319V167.892C123.131 168.199 123.25 168.51 123.466 168.766C127.974 174.128 130.457 180.887 130.457 187.798V189.587C130.457 191.142 129.196 192.403 127.642 192.403C126.087 192.403 124.826 191.142 124.826 189.587V187.798C124.826 182.211 122.813 176.74 119.157 172.391C118.089 171.121 117.5 169.524 117.5 167.892V128.605C117.177 128.558 116.175 128.217 115.1 127.851C113.697 127.373 112.169 126.853 111.87 126.892V160.824C111.87 162.048 111.316 163.18 110.35 163.931C109.379 164.686 108.136 164.944 106.941 164.639C105.12 164.175 103.245 163.94 101.367 163.94H101.361C94.2272 163.941 87.5653 167.134 83.0844 172.701C82.0469 173.99 80.5011 174.729 78.8438 174.729C77.1865 174.729 75.6406 173.99 74.6031 172.701C70.1222 167.134 63.4603 163.941 56.3262 163.94H56.3206C54.4422 163.94 52.5672 164.175 50.7462 164.639C49.5503 164.943 48.3085 164.686 47.337 163.931C46.3715 163.18 45.8175 162.048 45.8175 160.824V126.892C45.3081 127.089 44.4153 127.326 43.4722 127.578C42.1925 127.919 40.8202 128.284 40.1868 128.605V145.005C40.1868 146.56 38.9263 147.82 37.3714 147.82C35.8166 147.82 34.5561 146.56 34.5561 145.005V130.319L25.5706 133.053C14.0292 136.565 6.27498 147.03 6.27498 159.094V189.587C6.27498 191.142 5.01446 192.403 3.45963 192.403C1.90481 192.403 0.644287 191.142 0.644287 189.587V159.094C0.644287 151.999 2.87704 145.235 7.10082 139.535C11.3246 133.835 17.1441 129.73 23.9313 127.665L35.2622 124.217C28.7538 119.245 24.7962 111.472 24.7962 103.009V63.9908C24.7962 63.9765 24.7951 63.9619 24.7951 63.9476C24.7951 63.9405 24.7954 63.9334 24.7956 63.9263C24.7959 63.9191 24.7962 63.9118 24.7962 63.9044V54.2363C24.7962 24.4304 49.0416 0.181587 78.8434 0.181587C93.2797 0.181587 106.853 5.80518 117.062 16.0162C118.161 17.1155 118.161 18.8984 117.062 19.998C115.962 21.0977 114.18 21.0977 113.081 19.998C103.935 10.8506 91.7756 5.81307 78.8434 5.81307C52.1464 5.81307 30.4269 27.5356 30.4265 54.2367V54.2494C32.0617 53.3109 33.9536 52.771 35.9701 52.771H38.8103C47.5405 52.0945 55.9103 49.8715 63.6885 46.1615C67.9829 44.1135 72.0895 41.6056 75.8948 38.7081C77.5708 37.4316 79.8914 37.3272 81.6692 38.4486C86.5518 41.5283 91.726 44.21 97.0489 46.4194C104.09 49.3422 111.478 51.4769 119.011 52.771H121.716C123.732 52.771 125.624 53.3109 127.259 54.2494V54.2367C127.259 45.6108 124.963 37.1418 120.618 29.745C119.83 28.4039 120.279 26.6788 121.619 25.8908C122.96 25.1031 124.685 25.5514 125.473 26.8921C130.325 35.1527 132.89 44.608 132.89 54.2363V63.9048C132.89 63.9119 132.89 63.9192 132.891 63.9264C132.891 63.9336 132.891 63.9408 132.891 63.948C132.891 63.9552 132.891 63.9624 132.891 63.9696C132.89 63.9767 132.89 63.9839 132.89 63.9911V103.009C132.89 111.472 128.933 119.245 122.424 124.217L133.755 127.665ZM127.26 63.9258C127.253 60.8372 124.661 58.3071 121.572 58.4021V69.4931C124.673 69.5795 127.246 67.0603 127.26 63.9694V63.9258ZM66.1131 51.2441C58.4535 54.8971 50.268 57.2165 41.7457 58.1524L41.7461 71.2411C41.7461 91.8677 58.3293 108.706 78.7124 108.777H78.8441C88.8705 108.777 97.9776 104.984 105.03 97.955C112.066 90.9423 115.941 81.6087 115.941 71.674V57.9384C108.729 56.5512 101.658 54.4296 94.8912 51.6203C89.3968 49.3395 84.0518 46.5816 78.9995 43.4209C74.9736 46.454 70.6398 49.085 66.1131 51.2441ZM57.8546 123.296C57.8398 123.276 57.8249 123.255 57.8101 123.234C62.0894 121.851 64.9543 117.933 64.9543 113.419V112.062C69.2663 113.566 73.8876 114.391 78.6929 114.408H78.8445C83.6437 114.408 88.3213 113.62 92.7324 112.108V113.42C92.7324 117.934 95.5973 121.851 99.8767 123.235C99.8619 123.255 99.8472 123.276 99.8324 123.296L105.481 124.991C105.488 124.979 105.496 124.967 105.504 124.955L106.239 125.178V158.732C104.631 158.45 103 158.308 101.367 158.308H101.36C92.5894 158.31 84.3964 162.2 78.8434 168.99C73.2904 162.2 65.097 158.31 56.327 158.308H56.3198C54.6869 158.308 53.0555 158.45 51.4478 158.732V125.178L52.1828 124.955C52.1904 124.967 52.1981 124.979 52.2057 124.991L57.8546 123.296ZM36.115 58.4021C33.0174 58.3176 30.4355 60.8323 30.4269 63.9258V63.9694C30.4408 67.0663 33.0133 69.5768 36.115 69.4931V58.4021ZM30.4269 103.009C30.4269 111.186 35.1101 118.548 42.4379 122.034L55.9963 117.908C57.9862 117.303 59.3233 115.499 59.3233 113.42V109.627C46.6373 103.008 37.6271 90.1531 36.2903 75.125H35.9705C33.954 75.125 32.0621 74.5851 30.4269 73.6465V103.009ZM101.69 117.908L115.249 122.034C122.577 118.548 127.26 111.186 127.26 103.009V73.6465C125.573 74.6264 123.493 75.1633 121.433 75.125C120.629 85.265 116.288 94.6846 109.004 101.944C105.827 105.111 102.239 107.714 98.3631 109.709V113.42C98.3631 115.499 99.7002 117.303 101.69 117.908ZM63.4539 69.9564C63.4539 71.5114 62.1934 72.7721 60.6386 72.7721C59.0838 72.7721 57.8232 71.5114 57.8232 69.9564V63.5151C57.8232 61.9601 59.0838 60.6994 60.6386 60.6994C62.1934 60.6994 63.4539 61.9601 63.4539 63.5151V69.9564ZM78.8456 94.3662C75.3944 94.3662 72.8339 92.9276 71.588 92.0446C70.3193 91.1454 70.0197 89.3876 70.918 88.119C71.817 86.8497 73.5745 86.5505 74.843 87.4493C75.5618 87.9587 77.0757 88.8031 79.0908 88.7302C80.8772 88.6664 82.2068 87.9017 82.8404 87.4515C84.1081 86.5512 85.866 86.8486 86.7661 88.1164C87.6667 89.3843 87.369 91.142 86.1013 92.0427C84.6805 93.0518 81.8592 94.3662 78.8456 94.3662ZM99.8635 69.9564C99.8635 71.5114 98.603 72.7721 97.0482 72.7721C95.493 72.7721 94.2328 71.5114 94.2328 69.9564V63.5151C94.2328 61.9601 95.4934 60.6994 97.0482 60.6994C98.603 60.6994 99.8635 61.9601 99.8635 63.5151V69.9564Z" fill="#C4C4C4"/>
</svg>
