<svg width="20" height="20" viewBox="0 0 20 20" fill="none" xmlns="http://www.w3.org/2000/svg">
<path d="M1.59929 9.31831C1.07732 9.31831 0.654176 9.74145 0.654177 10.2634C0.654178 10.7854 1.07732 11.2085 1.5993 11.2085L9.31781 11.2086L9.31783 18.927C9.31783 19.449 9.74098 19.8721 10.263 19.8721C10.7849 19.8721 11.2081 19.449 11.2081 18.927L11.2081 11.2086L18.9265 11.2086C19.4485 11.2086 19.8716 10.7854 19.8716 10.2635C19.8716 9.74149 19.4485 9.31835 18.9265 9.31835L11.208 9.31833L11.208 1.59981C11.208 1.07784 10.7849 0.654693 10.2629 0.654693C9.74094 0.654691 9.31779 1.07784 9.31779 1.59981L9.31781 9.31833L1.59929 9.31831Z" fill="white"/>
</svg>
