<svg width="100" height="105" viewBox="0 0 100 105" fill="none" xmlns="http://www.w3.org/2000/svg">
<path d="M69.5936 41.8768C68.7455 41.8768 68.0582 42.5643 68.0582 43.4122V91.5289C68.0582 97.1617 63.4746 101.744 57.8408 101.744H36.4131C30.7803 101.744 26.1979 97.1617 26.1979 91.5289V65.3139C26.1979 64.4659 25.5107 63.7785 24.6626 63.7785C23.8144 63.7785 23.1272 64.4659 23.1272 65.3139V91.5289C23.1272 98.8549 29.0871 104.815 36.4131 104.815H57.8408C65.168 104.815 71.129 98.8549 71.129 91.5289V43.4122C71.129 42.5643 70.4418 41.8768 69.5936 41.8768Z" fill="#01173C"/>
<path d="M51.7761 77.917C54.0675 76.3792 55.4561 73.8102 55.4561 71.0066C55.4561 68.7064 54.4913 66.4867 52.8089 64.9165C51.1028 63.3244 48.8751 62.535 46.5389 62.6982C42.5299 62.975 39.219 66.1968 38.8374 70.1922C38.5418 73.2863 39.9515 76.222 42.4783 77.917V81.9481C42.4783 84.5116 44.5639 86.597 47.1272 86.597C49.6905 86.597 51.7761 84.5114 51.7761 81.9481V77.917ZM49.5357 75.6801C49.0258 75.9438 48.7052 76.4699 48.7052 77.0441V81.9483C48.7052 82.8186 47.9973 83.5265 47.127 83.5265C46.2568 83.5265 45.5488 82.8186 45.5488 81.9483V77.0441C45.5488 76.4699 45.2285 75.9438 44.7183 75.6801C42.7958 74.6866 41.6871 72.6474 41.8938 70.4846C42.1344 67.9668 44.2221 65.9364 46.7501 65.762C46.877 65.7532 47.0034 65.7489 47.1293 65.7489C48.4683 65.7489 49.7292 66.2433 50.7136 67.162C51.7917 68.168 52.3852 69.5335 52.3852 71.007C52.3852 72.9811 51.2934 74.7718 49.5357 75.6801Z" fill="#01173C"/>
<path d="M95.7391 30.2086H71.1285V13.2861C71.1285 5.96013 65.1675 0 57.8403 0H36.4126C29.0866 0 23.1267 5.96013 23.1267 13.2861V44.5226C21.3909 45.0881 20.1319 46.7199 20.1319 48.6419V50.5587H18.2153C15.8259 50.5587 13.8821 52.5027 13.8821 54.8919C13.8821 57.2812 15.8259 59.2252 18.2153 59.2252H20.1319V61.1418C20.1319 63.531 22.0757 65.475 24.4651 65.475C26.8546 65.475 28.7984 63.531 28.7984 61.1418V59.2252H30.7149C33.1044 59.2252 35.0482 57.2812 35.0482 54.8919C35.0482 52.5027 33.1044 50.5587 30.7149 50.5587H28.7984V48.6419C28.7984 46.8685 27.7265 45.3425 26.1974 44.6725V13.2861C26.1974 7.65334 30.78 3.07075 36.4126 3.07075H57.8403C63.4743 3.07075 68.0577 7.65334 68.0577 13.2861V30.2088H63.7628C63.2487 29.4201 62.6503 28.7019 61.9848 28.0618C59.6498 21.9182 53.73 17.8165 47.1273 17.8165C38.3609 17.8165 31.229 24.9476 31.229 33.7128C31.229 42.4791 38.3609 49.6111 47.1273 49.6111C52.0988 49.6111 56.7625 47.2871 59.7642 43.3568H91.1129C96.0132 43.3568 99.9999 39.3699 99.9999 34.4696C99.9999 32.1201 98.0885 30.2086 95.7391 30.2086ZM30.7149 53.6293C31.411 53.6293 31.9774 54.1957 31.9774 54.8917C31.9774 55.5878 31.411 56.1542 30.7149 56.1542H27.263C26.4148 56.1542 25.7276 56.8417 25.7276 57.6896V61.1415C25.7276 61.8376 25.1612 62.404 24.4651 62.404C23.7691 62.404 23.2026 61.8376 23.2026 61.1415V57.6896C23.2026 56.8417 22.5154 56.1542 21.6673 56.1542H18.2153C17.5193 56.1542 16.9528 55.5878 16.9528 54.8917C16.9528 54.1957 17.5193 53.6293 18.2153 53.6293H21.6673C22.5154 53.6293 23.2026 52.9418 23.2026 52.0939V48.6417C23.2026 47.9457 23.7691 47.3792 24.4651 47.3792C25.1612 47.3792 25.7276 47.9457 25.7276 48.6417V52.0939C25.7276 52.9418 26.4148 53.6293 27.263 53.6293H30.7149ZM47.1275 46.5403C40.0543 46.5403 34.2999 40.7859 34.2999 33.7128C34.2999 26.6408 40.0543 20.8873 47.1275 20.8873C50.7811 20.8873 54.1747 22.4447 56.5553 25.0209C55.5551 24.7603 54.5137 24.6231 53.4522 24.6231H48.165C43.0002 24.6231 38.7982 28.8249 38.7982 33.99C38.7982 39.155 43 43.3568 48.165 43.3568H55.5831C53.2688 45.3857 50.2746 46.5403 47.1275 46.5403ZM91.1129 40.286H48.1648C44.6932 40.286 41.8687 37.4615 41.8687 33.99C41.8687 30.5184 44.6932 27.6939 48.1648 27.6939H53.452C55.7743 27.6939 57.9691 28.5654 59.6406 30.0733L59.6437 30.0764C60.397 30.7567 61.0445 31.5659 61.5488 32.4836C61.8184 32.9746 62.3343 33.2798 62.8944 33.2798H95.7387C96.3948 33.2798 96.9287 33.8137 96.9287 34.4698C96.9292 37.6767 94.32 40.286 91.1129 40.286Z" fill="#01173C"/>
<path d="M44.4004 93.166C43.5522 93.166 42.865 93.8535 42.865 94.7014C42.865 95.5493 43.5522 96.2368 44.4004 96.2368H49.8542C50.7024 96.2368 51.3896 95.5493 51.3896 94.7014C51.3896 93.8535 50.7024 93.166 49.8542 93.166H44.4004Z" fill="#01173C"/>
<path d="M7.90944 39.5572H6.25778V37.9056C6.25778 37.0576 5.57055 36.3702 4.72241 36.3702C3.87427 36.3702 3.18703 37.0576 3.18703 37.9056V39.5572H1.53538C0.687234 39.5572 0 40.2447 0 41.0926C0 41.9405 0.687234 42.628 1.53538 42.628H3.18703V44.2798C3.18703 45.1278 3.87427 45.8152 4.72241 45.8152C5.57055 45.8152 6.25778 45.1278 6.25778 44.2798V42.628H7.90944C8.75758 42.628 9.44482 41.9405 9.44482 41.0926C9.44482 40.2447 8.75738 39.5572 7.90944 39.5572Z" fill="#01173C"/>
</svg>
