<svg width="15" height="15" viewBox="0 0 15 15" fill="none" xmlns="http://www.w3.org/2000/svg">
<path fill-rule="evenodd" clip-rule="evenodd" d="M11.3646 10.2443C13.3041 7.75337 13.129 4.14958 10.8391 1.85969C8.35948 -0.619897 4.33927 -0.619896 1.85969 1.85969C-0.619896 4.33927 -0.619896 8.35948 1.85969 10.8391C4.14958 13.129 7.75337 13.3041 10.2443 11.3646C10.255 11.3768 10.2662 11.3887 10.2779 11.4003L13.6451 14.7675C13.9551 15.0775 14.4576 15.0775 14.7675 14.7675C15.0775 14.4576 15.0775 13.9551 14.7675 13.6451L11.4003 10.2779C11.3887 10.2662 11.3768 10.255 11.3646 10.2443ZM9.71664 2.98211C11.5763 4.8418 11.5763 7.85695 9.71664 9.71664C7.85695 11.5763 4.8418 11.5763 2.98211 9.71664C1.12242 7.85695 1.12242 4.8418 2.98211 2.98211C4.8418 1.12242 7.85695 1.12242 9.71664 2.98211Z" fill="#A2A2A2"/>
</svg>
