<svg width="95" height="112" viewBox="0 0 95 112" fill="none" xmlns="http://www.w3.org/2000/svg">
<path d="M66.6475 102.385C78.2194 94.8886 86.2018 84.3212 90.3696 70.9788C92.778 63.2679 94.0032 54.8351 94.2262 44.4354C94.3255 39.804 94.2372 35.0821 94.1534 30.5169C94.1247 29.0004 94.0982 27.4838 94.0761 25.9694C94.001 20.7089 89.8244 16.0686 84.5682 15.4064C83.6013 15.285 82.6124 15.1812 81.6543 15.0797C80.1664 14.9229 78.63 14.7618 77.1178 14.5278C68.025 13.1216 60.0536 9.37981 53.4221 3.40622L53.3096 3.30468C51.7532 1.90289 50.2808 0.576166 48.3559 0H45.9739C44.5832 0.450337 43.2851 1.25388 41.7818 2.58944C40.2697 3.93603 38.4595 5.49897 36.5058 6.8853C31.4263 10.4902 25.7397 12.9097 19.6049 14.0752C17.3047 14.5123 14.9492 14.7816 12.6711 15.0443C11.6401 15.1636 10.5761 15.285 9.53637 15.4196C4.73719 16.0444 0.399384 20.7751 0.253686 25.5434C-0.0553683 35.6186 -0.238594 44.7026 0.659873 53.8153C1.26915 59.9919 2.18749 65.0516 3.54953 69.7382C6.28246 79.1379 10.8454 87.2086 17.1148 93.7231C24.2253 101.114 33.3292 106.659 44.9496 110.681C46.4971 111.216 48.1042 111.169 49.8614 110.538C56.2103 108.255 61.7004 105.589 66.6475 102.385ZM47.1086 106.065C46.7775 106.065 46.4353 106.019 46.1152 105.906C37.3314 102.809 30.2033 98.8578 24.3246 93.8224C16.5784 87.1865 11.1501 78.5529 8.19198 68.1642C6.18092 61.1045 5.14337 53.5702 5.01534 45.1264C4.92924 39.3537 5.00209 33.4905 5.07052 27.8171L5.08598 26.4926C5.12792 23.0709 7.2317 20.7221 10.7108 20.2122C11.9249 20.0334 13.1589 19.8766 14.3532 19.7221C17.1457 19.3623 20.0354 18.9914 22.7904 18.3534C30.9649 16.4594 38.3646 12.4748 44.7819 6.50781C44.9496 6.35107 45.1019 6.20759 45.2388 6.07955C46.8878 4.51661 47.4287 4.51661 49.0821 6.08396C49.2168 6.212 49.3669 6.35328 49.5325 6.50781C56.2964 12.8015 64.2964 16.934 73.3142 18.7927C75.5571 19.2541 77.8971 19.5278 80.1598 19.7927C81.2856 19.9252 82.449 20.0599 83.5947 20.2188C87.0848 20.7 89.193 23.0886 89.2327 26.6052C89.2614 29.1196 89.2548 31.6737 89.2482 34.1439C89.246 35.2278 89.2416 36.3117 89.2416 37.3934C89.5065 46.7799 89.0054 54.4621 87.6676 61.5681C85.2239 74.5484 79.9258 84.6611 71.4687 92.4846C66.6055 96.9814 60.8814 100.637 53.963 103.659C52.3051 104.383 50.4817 105.098 48.3868 105.847C48.0446 105.97 47.5876 106.065 47.1086 106.065Z" fill="#01173C"/>
<path d="M50.1749 28.4639C49.1506 28.3536 48.1329 28.3006 47.1197 28.3006C40.7686 28.3006 34.7244 30.4441 29.8347 34.4817C24.3092 39.0446 20.85 45.4642 20.0906 52.5592C19.2738 60.2149 21.5829 67.6079 26.5918 73.374C31.5279 79.0562 38.6229 82.458 46.0534 82.7097H46.0645C46.4795 82.7295 46.8945 82.7384 47.3073 82.7384C61.0426 82.7384 72.7403 72.3056 74.2127 58.4798C75.811 43.5237 65.0272 30.0578 50.1749 28.4639ZM62.8638 71.4027C58.6805 75.5595 53.1286 77.8443 47.2212 77.8443C47.1837 77.8443 47.1462 77.8443 47.1086 77.8443C41.0754 77.8156 35.4286 75.438 31.21 71.1554C27.0399 66.9192 24.775 61.3297 24.8368 55.4113C24.8986 49.4201 27.2497 43.8173 31.4594 39.6363C35.6692 35.453 41.2565 33.1682 47.2102 33.1969C53.2367 33.2256 58.877 35.5965 63.089 39.8681C67.2634 44.0999 69.5306 49.6982 69.4754 55.6299C69.4202 61.6211 67.0714 67.2216 62.8638 71.4027Z" fill="#01173C"/>
<path d="M55.4512 47.8505C52.2856 50.9411 49.2149 54.0228 45.9654 57.2877C44.9014 58.3562 43.8263 59.4334 42.7424 60.5218L42.1066 61.1597L41.4819 60.5107C41.1199 60.1354 40.7689 59.7668 40.4223 59.4047C39.6342 58.5791 38.8902 57.7999 38.1242 57.0338C37.5657 56.4753 36.9829 56.1972 36.3516 56.1972C36.1595 56.1972 35.9653 56.2237 35.7644 56.2745C34.8637 56.504 34.2081 57.1133 33.963 57.9478C33.7158 58.7933 33.9476 59.6763 34.601 60.3738C35.899 61.758 37.2787 63.1178 38.6121 64.4357C39.0779 64.8949 39.5437 65.3562 40.0073 65.8176C41.5923 67.396 42.7733 67.3916 44.3605 65.8066C48.1111 62.0604 51.8595 58.3076 55.6057 54.557L57.0406 53.1199C57.2613 52.8991 57.4865 52.6784 57.7095 52.4576C58.279 51.8969 58.8684 51.3185 59.3982 50.7247C60.0804 49.9609 60.1952 49.0933 59.7492 48.0757C59.3982 47.2721 58.5263 46.5635 57.5351 46.76C56.8044 46.8991 55.9854 47.3295 55.4512 47.8505Z" fill="#01173C"/>
</svg>
