<svg width="120" height="102" viewBox="0 0 120 102" fill="none" xmlns="http://www.w3.org/2000/svg">
<path d="M96.4272 90.3076H83.2113C82.3392 90.3076 81.6323 91.0145 81.6323 91.8866C81.6323 92.7587 82.3392 93.4656 83.2113 93.4656H96.4272C97.2993 93.4656 98.0062 92.7587 98.0062 91.8866C98.0062 91.0145 97.2993 90.3076 96.4272 90.3076Z" fill="#01173C"/>
<path d="M83.2113 87.5922H92.0219C92.894 87.5922 93.6009 86.8853 93.6009 86.0132C93.6009 85.1411 92.894 84.4342 92.0219 84.4342H83.2113C82.3392 84.4342 81.6323 85.1411 81.6323 86.0132C81.6323 86.8853 82.3392 87.5922 83.2113 87.5922Z" fill="#01173C"/>
<path d="M96.4272 78.5596H83.2113C82.3392 78.5596 81.6323 79.2664 81.6323 80.1386C81.6323 81.0107 82.3392 81.7175 83.2113 81.7175H96.4272C97.2993 81.7175 98.0062 81.0107 98.0062 80.1386C98.0062 79.2664 97.2993 78.5596 96.4272 78.5596Z" fill="#01173C"/>
<path d="M114.918 60.9922C114.93 58.2489 114.065 55.5737 112.45 53.3565L110.654 50.9286C119.495 42.6754 122.385 29.8522 117.938 18.6048C113.492 7.35716 102.615 -0.0233042 90.5201 0.000133343C79.7752 -0.0322104 69.8749 5.82154 64.7252 15.2519C57.1446 14.4287 49.4948 15.9653 42.8203 19.652C37.7515 22.6951 34.961 26.7287 34.9202 31.0241C34.92 31.0365 34.9132 31.0468 34.9132 31.0593V31.1197C34.9132 31.1441 34.9076 31.168 34.9078 31.1926C34.908 31.214 34.913 31.2348 34.9132 31.2561V37.3968L30.7275 39.9083C30.4221 40.0921 30.1875 40.3733 30.0621 40.7071L29.0344 43.4401L22.5766 43.5943C21.7441 43.614 21.0701 44.2771 21.037 45.1093L20.9084 48.3229L13.6118 48.4963C12.7793 48.516 12.1052 49.179 12.0722 50.0113L11.9234 53.7175L4.10484 53.9165C3.83227 53.924 3.56625 54.0013 3.33234 54.1417L0.765938 55.6818C0.279141 55.9738 -0.0133587 56.5049 0.000469463 57.0726L0.193126 65.1554V71.6903L0.189376 71.7072C0.189141 71.7151 0.19336 71.7219 0.193126 71.7299V71.758C0.20086 71.8098 0.211173 71.8614 0.224298 71.912C0.232735 72.0634 0.262969 72.2129 0.313829 72.3559C0.348282 72.4204 0.387188 72.4822 0.430548 72.5408C0.488438 72.6538 0.559688 72.7595 0.642657 72.8556C0.714141 72.9175 0.791251 72.9728 0.872579 73.0208C0.953438 73.0883 1.04086 73.1472 1.13367 73.1969C1.24805 73.2379 1.36664 73.2655 1.48734 73.2794C1.56328 73.3037 1.64133 73.3218 1.72008 73.3337L1.76274 73.3349L1.77164 73.3368L1.7782 73.3354L15.4941 73.7453H15.5121L15.5351 73.75C15.5552 73.75 15.5721 73.7392 15.592 73.7385C15.7556 73.7317 15.9171 73.6991 16.0704 73.6419C16.1224 73.6229 16.1735 73.6011 16.2232 73.5763C16.2661 73.5557 16.3127 73.5449 16.3538 73.5203L52.7541 51.6796C54.506 51.9245 56.2727 52.0494 58.0418 52.0534C61.9912 52.0553 65.9187 51.4647 69.6928 50.3012C71.4267 52.048 73.3779 53.5651 75.4983 54.815C74.4731 56.7125 73.9352 58.8351 73.9331 60.992V95.499C73.8047 98.6387 76.2356 101.293 79.3746 101.44H109.478C112.616 101.292 115.046 98.6383 114.918 95.499V60.9922H114.918ZM64.6294 24.7527C65.0733 22.2702 65.8807 19.8667 67.0256 17.6197C71.8263 8.08795 81.9087 2.3999 92.5493 3.22021C103.19 4.04029 112.282 11.2063 115.565 21.3613C118.848 31.5161 115.673 42.6482 107.526 49.5428C104.688 51.9697 101.359 53.7554 97.7672 54.7785C95.9365 55.3061 94.0526 55.6283 92.1504 55.739C91.5727 54.9536 91.4501 53.9226 91.8277 53.0237C104.585 52.3138 114.459 41.5778 114.101 28.8058C113.743 16.0337 103.283 5.86748 90.506 5.87334C82.2012 5.9031 74.5153 10.2702 70.2387 17.3894C68.8252 19.7394 67.8394 22.3215 67.3275 25.0159C67.1135 26.1475 66.987 27.2936 66.9483 28.4446C66.0841 28.7997 65.1562 28.9738 64.222 28.9562C64.2391 27.5458 64.3753 26.1397 64.6294 24.7527ZM77.0281 18.864C76.0669 18.317 75.0682 17.8386 74.0393 17.4327C78.5285 11.2684 86.0794 8.12029 93.618 9.27037C101.157 10.4204 107.426 15.6765 109.873 22.899C112.32 30.1215 110.537 38.1058 105.25 43.6014L100.849 37.6433C99.3687 35.5604 96.9809 34.3115 94.4255 34.2833H94.4238C91.8684 34.3124 89.4813 35.5621 88.0017 37.6454L80.7626 47.4503C79.954 47.0078 79.1768 46.5104 78.4362 45.9615C81.7287 43.7556 83.8369 40.1699 84.1634 36.2202L84.1652 36.2108V29.6699L84.1683 29.6429C84.2937 25.4319 81.7573 21.6032 77.0281 18.864ZM13.9566 70.5388L3.35109 70.2219V66.7787L13.9566 67.0972V70.5388ZM15.12 63.9711L3.315 63.6179L3.1793 57.9158L4.60102 57.0632L13.4827 56.8365C14.3145 56.815 14.9866 56.1522 15.0199 55.3208L15.1688 51.6179L22.4653 51.4445C23.2978 51.4248 23.9719 50.7618 24.0049 49.9295L24.1336 46.716L30.1758 46.5718C30.8196 46.5566 31.3896 46.1518 31.616 45.5488L32.8249 42.3332L38.4984 38.9286C39.5693 39.9711 40.766 40.8758 42.0612 41.6216C42.1763 41.6884 42.3026 41.7451 42.4193 41.8105L12.393 59.8265C11.6454 60.2753 11.403 61.2451 11.8519 61.9928C12.3007 62.7404 13.2705 62.9828 14.0182 62.534L45.8993 43.4047C46.6345 43.6776 47.3955 43.919 48.1741 44.1383L15.12 63.9711ZM50.8205 49.1572L17.1145 69.3808V66.4581L50.8207 46.2336V49.1572H50.8205ZM43.6474 38.8916C40.0936 36.8296 38.119 34.1097 38.0709 31.2276V31.105C38.0787 27.9751 40.3952 24.7918 44.4445 22.3604C50.1895 19.2224 56.719 17.8115 63.247 18.2973C62.5945 19.8951 62.0864 21.5483 61.729 23.2368C61.1883 23.414 60.667 23.6455 60.1732 23.9277C58.7677 24.6465 57.8512 26.0596 57.7685 27.636C57.8449 29.1076 58.703 30.4262 60.0173 31.0923C60.7282 31.4985 61.504 31.7786 62.3102 31.9204C62.9824 32.0586 63.667 32.128 64.3533 32.1271C66.0356 32.147 67.6934 31.7211 69.158 30.8929L69.3169 30.7888C70.6095 30.0934 71.4595 28.7882 71.5727 27.3247C71.5938 26.3896 71.253 25.4823 70.6214 24.7923C70.9962 23.1833 71.569 21.6271 72.3265 20.1587C73.4027 20.5504 74.4445 21.0304 75.4416 21.594C79.1002 23.713 81.0722 26.5168 81.0094 29.5958L81.008 29.6029V29.6917C80.8755 32.7479 78.6234 35.7418 74.6644 38.1205C73.5893 38.7585 72.4695 39.3182 71.3138 39.7951C69.5562 40.5093 67.7402 41.0704 65.8861 41.4728C65.8568 41.4765 65.8275 41.4819 65.7998 41.4883C57.8194 43.1952 49.3317 42.2012 43.6474 38.8916ZM61.1445 27.1698C61.1243 27.4333 61.122 27.7047 61.1086 27.9714C61.0085 27.8774 60.9443 27.7515 60.9265 27.6154C60.9478 27.4468 61.0245 27.2901 61.1445 27.1698ZM69.6223 47.0322C64.5874 48.7028 59.2491 49.2561 53.9784 48.6538V45.2415C55.3327 45.3852 56.6934 45.4581 58.0554 45.4602C60.8522 45.4607 63.6413 45.1703 66.3781 44.5937C66.4134 44.589 66.4474 44.5822 66.4814 44.5752C68.543 44.132 70.5616 43.5097 72.5149 42.7157C73.8145 42.1797 75.0734 41.5501 76.2818 40.8322C77.9965 39.8284 79.5541 38.5778 80.9048 37.1204C80.4471 39.8073 78.3729 42.414 74.8601 44.6038C74.8092 44.6415 74.763 44.6678 74.6627 44.7301C73.0676 45.6714 71.3782 46.4429 69.6223 47.0322ZM72.9743 49.0951C73.8785 48.7033 74.7628 48.2596 75.6307 47.7754C76.6465 48.6104 77.7305 49.3588 78.8716 50.0122L77.2638 52.1898C75.7303 51.3102 74.2929 50.2729 72.9743 49.0951ZM109.478 98.2825H79.3751C77.9836 98.1301 76.9692 96.8936 77.0916 95.4993V60.9922C77.0822 58.9072 77.7403 56.874 78.9696 55.1898L90.5419 39.523C91.4065 38.2229 92.8643 37.4418 94.4257 37.4413C95.9871 37.4408 97.4449 38.2218 98.3102 39.5214L102.884 45.7145C101.164 47.0394 99.2391 48.0756 97.1859 48.7829C94.8687 47.5879 92.0454 48.0189 90.1903 49.851C89.9738 50.068 89.7766 50.3038 89.6013 50.5558C87.8435 52.9269 88.0971 56.23 90.1966 58.3049C90.2766 58.3876 90.3609 58.4657 90.4495 58.5393C91.5373 59.5178 92.9491 60.0585 94.4123 60.0566C96.0164 60.0554 97.5539 59.4144 98.6836 58.2756C98.884 58.0649 99.0703 57.8413 99.2414 57.6062C102.488 56.5996 105.533 55.0307 108.238 52.9708L109.913 55.2362C111.126 56.9094 111.773 58.9258 111.761 60.9922V95.4993C111.883 96.8931 110.869 98.1292 109.478 98.2825Z" fill="#01173C"/>
</svg>
