<svg width="86" height="86" viewBox="0 0 86 86" fill="none" xmlns="http://www.w3.org/2000/svg">
<path d="M45.1963 86C43.6845 86 42.1749 86 40.6631 86C40.589 85.7824 40.3939 85.8542 40.2414 85.825C33.1398 84.5308 28.214 80.5629 25.5425 73.8338C24.9122 72.248 24.6161 70.5792 24.4232 68.879C24.1675 68.8655 23.9746 68.8476 23.7817 68.8476C17.1512 68.8476 10.5207 68.8476 3.89016 68.8476C3.10733 68.8476 2.32225 68.8812 1.53942 68.8431C0.476205 68.7937 -0.22812 67.8965 0.0679656 66.9657C0.339377 66.1133 1.02576 65.88 1.85121 65.8845C4.07858 65.8935 6.30819 65.8868 8.55126 65.8868C8.55126 53.4559 8.55126 41.1058 8.55126 28.713C8.2305 28.713 7.9546 28.713 7.6787 28.713C3.89913 28.7108 1.88485 25.6401 3.41463 22.2015C6.26333 15.7977 9.12997 9.40279 11.9742 2.99895C12.8737 0.971247 14.3518 -0.00447066 16.6196 1.53975e-05C34.2165 0.0291748 51.8156 0.0291748 69.4125 1.53975e-05C71.6802 -0.00447066 73.1629 0.971247 74.0534 3.00343C75.249 5.73096 76.4647 8.44726 77.6737 11.1681C79.3471 14.9296 81.0428 18.6822 82.6937 22.455C83.9476 25.3216 82.3797 28.2061 79.3313 28.6727C78.7369 28.7646 78.1156 28.6861 77.4696 28.6861C77.4696 41.1304 77.4696 53.4806 77.4696 65.8935C79.6813 65.8935 81.857 65.9159 84.0306 65.8823C84.8852 65.8688 85.5469 66.12 86 66.858C86 67.1944 86 67.5287 86 67.8651C85.5581 68.612 84.9076 68.8655 84.044 68.8633C77.6692 68.8408 71.2944 68.852 64.9196 68.852C63.834 68.852 62.7483 68.852 61.7008 68.852C61.4541 69.3455 61.5393 69.8076 61.4518 70.2427C59.9108 77.9565 55.4673 83.0729 47.888 85.363C47.0087 85.6277 46.0958 85.7892 45.1963 86ZM43.0183 25.7926C49.4536 25.7926 55.8868 25.7926 62.3221 25.7926C67.6943 25.7926 73.0642 25.8016 78.4364 25.7881C80.0312 25.7859 80.6009 24.8797 79.9504 23.4307C79.54 22.5178 79.0869 21.6251 78.6809 20.7099C76.2135 15.1427 73.7483 9.57551 71.2989 4.00158C70.949 3.20306 70.3905 2.88231 69.5381 2.88231C51.8851 2.88904 34.2322 2.88904 16.5792 2.87109C15.6102 2.87109 15.027 3.25689 14.6502 4.14065C13.7529 6.23788 12.8131 8.31717 11.8845 10.4009C9.94869 14.7479 8.00844 19.0904 6.07267 23.4374C5.66443 24.3571 5.75639 25.0277 6.32838 25.4808C6.78372 25.842 7.32878 25.7881 7.85366 25.7881C19.5759 25.7949 31.2982 25.7926 43.0183 25.7926ZM74.4818 28.7758C53.462 28.7758 32.5185 28.7758 11.5502 28.7758C11.5502 41.1641 11.5502 53.494 11.5502 65.8554C12.4766 65.8554 13.3604 65.8554 14.3159 65.8554C14.3159 65.5234 14.3159 65.2206 14.3159 64.92C14.3159 55.8514 14.3159 46.7851 14.3159 37.7166C14.3159 35.5386 15.433 34.4058 17.6043 34.4036C22.1084 34.3969 26.6147 34.3991 31.1188 34.4036C33.3686 34.4058 34.4565 35.5094 34.452 37.748C34.4453 41.6934 34.4453 45.6412 34.443 49.5867C34.443 49.9613 34.443 50.3336 34.443 50.8136C36.7511 49.6293 39.0727 49.0147 41.5334 48.7859C41.5334 48.4046 41.5334 48.0995 41.5334 47.7945C41.5334 44.4367 41.5311 41.0789 41.5334 37.7188C41.5356 35.5408 42.6571 34.4058 44.8284 34.4036C51.2638 34.3991 57.7014 34.3969 64.1368 34.4036C66.3103 34.4058 67.3691 35.4735 67.3713 37.647C67.3758 42.0411 67.3713 46.4352 67.378 50.8293C67.378 51.0693 67.2883 51.3317 67.4969 51.583C67.9231 51.583 68.3695 51.5628 68.8136 51.5874C69.7288 51.6413 70.2985 52.3097 70.2222 53.2047C70.1505 54.0346 69.565 54.4832 68.4794 54.4854C64.729 54.4944 60.9808 54.4854 57.2304 54.4967C57.0375 54.4967 56.793 54.3688 56.6158 54.6312C56.7997 54.8421 57.0352 55.0215 57.1541 55.2615C58.0581 57.0717 59.5295 57.5741 61.4563 57.3274C62.4007 57.2062 63.0781 57.9083 63.105 58.7337C63.1319 59.548 62.4814 60.1782 61.5236 60.2411C61.1266 60.268 60.7273 60.2455 60.2406 60.2455C61.0391 62.1454 61.3845 63.9959 61.6178 65.8531C65.9559 65.8531 70.1976 65.8531 74.4818 65.8531C74.4818 53.4783 74.4818 41.1484 74.4818 28.7758ZM58.7691 67.3492C58.6076 58.3883 51.6115 51.639 43.0385 51.648C34.1649 51.657 27.1643 58.7988 27.2607 67.5488C27.3572 76.1598 34.5664 83.2276 43.1529 83.1289C51.7393 83.0302 58.8633 75.8324 58.7691 67.3492ZM17.2992 37.324C17.2992 46.8681 17.2992 56.3382 17.2992 65.8509C19.6724 65.8509 22.0097 65.8509 24.3806 65.8509C24.43 65.658 24.4995 65.4763 24.5219 65.2901C25.067 60.3375 27.319 56.3023 31.0851 53.0858C31.4171 52.8032 31.5495 52.5295 31.5472 52.0989C31.5293 48.4898 31.536 44.883 31.536 41.274C31.536 39.9663 31.536 38.6609 31.536 37.324C26.7583 37.324 22.0702 37.324 17.2992 37.324ZM44.548 37.3308C44.548 41.182 44.548 44.9683 44.548 48.8061C46.6588 48.9788 48.7381 49.3242 50.5146 50.3605C52.428 51.4775 54.3906 51.7041 56.5014 51.5897C57.6992 51.5246 58.9037 51.5785 60.106 51.5785C61.5505 51.5785 62.9951 51.5785 64.4688 51.5785C64.4688 46.7851 64.4688 42.077 64.4688 37.3308C57.8158 37.3308 51.2032 37.3308 44.548 37.3308Z" fill="#01173C"/>
<path d="M43.0022 19.0081C52.2668 19.0081 61.5315 19.0081 70.7939 19.0081C71.0176 19.0081 71.2413 19.0034 71.4627 19.0104C72.4424 19.0384 73.0217 19.6204 72.9994 20.5483C72.9792 21.4342 72.4022 21.9928 71.4605 21.9951C68.2798 22.0022 65.0991 21.9975 61.9162 21.9975C46.3171 21.9975 30.7201 21.9975 15.121 21.9975C14.8973 21.9975 14.6736 22.0045 14.4522 21.9951C13.5798 21.9624 13.0184 21.4015 13.0005 20.546C12.9804 19.6461 13.5396 19.0244 14.4544 19.0174C17.3846 18.9987 20.3147 19.001 23.2449 19.001C29.8299 18.9987 36.4149 19.001 43.0022 19.001C43.0022 19.001 43.0022 19.0034 43.0022 19.0081Z" fill="#01173C"/>
<path d="M43.0015 15.989C34.5939 15.989 26.1863 15.989 17.7787 15.989C16.7064 15.989 16.1079 15.5501 16.0145 14.7116C15.8965 13.6514 16.5039 13.0185 17.6964 13.0139C21.3029 13 24.9115 13 28.5179 13C41.6155 13.0023 54.7108 13.0069 67.8083 13.0115C68.1131 13.0115 68.4201 13.0046 68.7227 13.037C69.5258 13.1247 70.0131 13.7115 69.9997 14.5476C69.9886 15.3399 69.4302 15.9428 68.6404 15.9913C68.3089 16.0121 67.9751 15.989 67.6414 15.989C59.4296 15.989 51.2156 15.989 43.0015 15.989Z" fill="#01173C"/>
<path d="M42.957 9.98761C35.5719 9.98761 28.1867 9.98761 20.8016 9.98761C19.6721 9.98761 19.0465 9.49139 19.0023 8.57862C18.9647 7.78877 19.3913 7.21061 20.1473 7.06948C20.4148 7.0194 20.6955 7.01713 20.9696 7.01713C35.3818 7.0103 49.7939 7.00575 64.2039 7.00347C64.6438 7.00347 65.0881 6.98754 65.5258 7.02396C66.5006 7.10135 67.0377 7.68634 66.9979 8.59C66.9626 9.41627 66.3613 9.97623 65.4396 9.98533C63.5386 10.0035 61.6376 9.99899 59.7366 9.99899C54.1419 10.0013 48.5495 9.99899 42.9548 9.99899C42.957 9.99444 42.957 9.98988 42.957 9.98761Z" fill="#01173C"/>
<path d="M39.9991 63.9394C39.9991 66.5313 39.1552 68.0525 37.3285 68.7484C34.8632 69.6875 32.2713 67.8941 32.064 65.0903C31.9914 64.1223 31.9354 63.1364 32.1594 62.1884C32.6632 60.0493 34.5293 58.7623 36.6484 59.0367C38.5103 59.2776 39.9887 61.1467 39.9991 63.2724C40.0012 63.4955 39.9991 63.7163 39.9991 63.9394ZM34.718 63.9461C34.718 64.1959 34.7076 64.4435 34.7201 64.6933C34.7595 65.4807 35.2198 66.0115 35.8999 66.0606C36.6173 66.1141 37.1294 65.7127 37.2746 64.9297C37.3347 64.6085 37.3264 64.2717 37.3264 63.9394C37.3306 62.5899 36.8993 61.8962 36.0492 61.8694C35.17 61.8404 34.7159 62.5453 34.718 63.9461Z" fill="#01173C"/>
<path d="M46.0161 70.8856C45.8671 68.8152 46.7495 67.214 48.81 66.3423C51.5132 65.1992 54.6866 67.0561 54.9241 69.8804C55.0126 70.9256 55.0894 71.9841 54.7541 73.0093C54.0673 75.1042 52.0091 76.2806 49.6622 75.9426C47.6505 75.6512 46.0464 73.8232 46.0138 71.7818C46.0114 71.5038 46.0161 71.228 46.0161 70.8856ZM51.9532 71.0835C51.9532 70.8344 51.9648 70.5853 51.9509 70.3363C51.909 69.5379 51.4037 69.0042 50.647 68.9442C49.8252 68.8774 49.2035 69.3267 49.0522 70.1361C48.9963 70.4319 49.0126 70.741 49.0126 71.0457C49.0103 72.4511 49.5108 73.1405 50.519 73.125C51.5108 73.1072 51.9555 72.4778 51.9532 71.0835Z" fill="#01173C"/>
<path d="M47 58.4985C46.9544 58.6903 46.9046 58.9646 46.8236 59.2255C45.1327 64.6825 43.4376 70.1395 41.7446 75.5965C41.6948 75.7548 41.6492 75.9132 41.5848 76.0626C41.2487 76.8453 40.5516 77.1843 39.8752 76.9011C39.1698 76.6045 38.8337 75.902 39.0806 75.0858C39.9001 72.3785 40.7425 69.6801 41.5786 66.9795C42.4957 64.0157 43.4148 61.0542 44.3277 58.0904C44.5621 57.3277 45.0518 56.9441 45.7863 57.0066C46.444 57.0601 46.9793 57.7269 47 58.4985Z" fill="#01173C"/>
<path d="M22.9883 51.497C22.9883 51.9082 23.0176 52.3234 22.9816 52.7326C22.9142 53.4869 22.3388 53.9819 21.5544 53.9994C20.7273 54.0189 20.0912 53.5278 20.0418 52.7404C19.9901 51.9199 19.9856 51.0916 20.0328 50.2711C20.0755 49.4994 20.7363 48.9829 21.5454 49.0004C22.3253 49.016 22.9074 49.5111 22.9794 50.2653C23.0198 50.6707 22.9883 51.0838 22.9883 51.497Z" fill="#01173C"/>
<path d="M60 41.4942C59.9658 42.0743 59.7433 42.521 59.3175 42.8321C56.6176 44.7992 53.9241 46.7756 51.2113 48.7239C50.5096 49.2292 49.6559 49.0116 49.2409 48.3099C48.8066 47.5755 48.9585 46.7382 49.7051 46.1885C52.3944 44.2051 55.1007 42.2427 57.8028 40.278C58.2906 39.9248 58.8083 39.9131 59.3133 40.2148C59.7732 40.4885 59.9615 40.9633 60 41.4942Z" fill="#01173C"/>
</svg>
