<svg width="23" height="23" viewBox="0 0 23 23" fill="none" xmlns="http://www.w3.org/2000/svg">
<path d="M11.4942 0.0117188C5.14712 0.0117188 0 5.15883 0 11.5059C0 17.853 5.14712 23.0002 11.4942 23.0002C17.8414 23.0002 22.9885 17.853 22.9885 11.5059C22.9885 5.15883 17.8414 0.0117188 11.4942 0.0117188Z" fill="#01173C"/>
<path fill-rule="evenodd" clip-rule="evenodd" d="M16.5364 6.45875C15.1986 5.12581 13.4195 4.39142 11.5241 4.39062C7.61853 4.39062 4.43992 7.55394 4.43835 11.4419C4.43782 12.6847 4.76406 13.898 5.38416 14.9674L4.37891 18.6215L8.13521 17.6409C9.17022 18.2028 10.3354 18.4989 11.5212 18.4993H11.5242C15.4294 18.4993 18.6083 15.3357 18.6098 11.4475C18.6106 9.56325 17.8743 7.79159 16.5364 6.45875ZM11.5241 17.3083H11.5217C10.4649 17.3079 9.42856 17.0253 8.5242 16.4913L8.30924 16.3643L6.08019 16.9462L6.67516 14.7833L6.53508 14.5616C5.94553 13.6284 5.63421 12.5498 5.63473 11.4423C5.63596 8.21078 8.27799 5.58163 11.5265 5.58163C13.0995 5.58215 14.5783 6.1926 15.6902 7.30048C16.8021 8.40837 17.4141 9.88099 17.4135 11.4471C17.4121 14.6789 14.7703 17.3083 11.5241 17.3083ZM14.7546 12.9186C14.5776 12.8303 13.7071 12.4042 13.5447 12.3453C13.3826 12.2865 13.2644 12.2572 13.1465 12.4335C13.0284 12.6099 12.6892 13.0068 12.5858 13.1243C12.4825 13.2419 12.3793 13.2567 12.2022 13.1685C12.0252 13.0803 11.4547 12.8942 10.7784 12.2939C10.2521 11.8267 9.89688 11.2497 9.79355 11.0733C9.69039 10.8968 9.79268 10.8107 9.87123 10.7137C10.0628 10.4769 10.2548 10.2285 10.3138 10.111C10.3728 9.99347 10.3433 9.89054 10.2989 9.80238C10.2548 9.71422 9.90072 8.84693 9.75323 8.49402C9.6094 8.15058 9.46356 8.19696 9.35481 8.19157C9.25165 8.18645 9.13356 8.18541 9.01548 8.18541C8.89748 8.18541 8.70565 8.22945 8.54331 8.40595C8.38107 8.58236 7.92374 9.00857 7.92374 9.87585C7.92374 10.7431 8.55815 11.5809 8.64665 11.6985C8.73515 11.8162 9.89514 13.5959 11.6711 14.359C12.0935 14.5407 12.4232 14.6491 12.6804 14.7303C13.1046 14.8644 13.4904 14.8454 13.7956 14.8001C14.1358 14.7495 14.843 14.3738 14.9906 13.9623C15.1381 13.5506 15.1381 13.1979 15.0938 13.1243C15.0496 13.0509 14.9316 13.0068 14.7546 12.9186Z" fill="white"/>
</svg>
