<svg width="23" height="22" viewBox="0 0 23 22" fill="none" xmlns="http://www.w3.org/2000/svg">
<path fill-rule="evenodd" clip-rule="evenodd" d="M19.6489 3.19714C17.4868 1.13652 14.6114 0.00120849 11.5481 0C5.23585 0 0.098598 4.89025 0.096059 10.9008C0.0952127 12.8221 0.622479 14.6977 1.62468 16.351L0 22L6.0709 20.484C7.74368 21.3526 9.62692 21.8104 11.5434 21.8109H11.5482C17.8598 21.8109 22.9976 16.9203 23 10.9095C23.0013 7.99648 21.8112 5.25763 19.6489 3.19714ZM11.5481 19.9699H11.5442C9.83625 19.9692 8.16121 19.5323 6.69959 18.7068L6.35217 18.5104L2.7496 19.4101L3.71118 16.0664L3.48478 15.7236C2.53195 14.2809 2.02881 12.6135 2.02965 10.9014C2.03163 5.90565 6.30167 1.84121 11.5519 1.84121C14.0943 1.84202 16.4842 2.78572 18.2813 4.49843C20.0783 6.21113 21.0674 8.48767 21.0665 10.9088C21.0643 15.905 16.7945 19.9699 11.5481 19.9699ZM16.7691 13.1836C16.4831 13.0472 15.0762 12.3884 14.8138 12.2974C14.5517 12.2065 14.3608 12.1612 14.1702 12.4338C13.9793 12.7064 13.4311 13.32 13.264 13.5017C13.097 13.6835 12.9303 13.7064 12.6441 13.5699C12.3579 13.4336 11.436 13.1459 10.3429 12.2179C9.49235 11.4956 8.91811 10.6036 8.7511 10.331C8.58438 10.0582 8.74969 9.92498 8.87664 9.77512C9.1864 9.40895 9.49658 9.02505 9.59194 8.84337C9.68743 8.66156 9.63961 8.50244 9.56796 8.36615C9.49658 8.22986 8.92432 6.8891 8.68594 6.34353C8.45348 5.8126 8.21777 5.8843 8.04202 5.87598C7.87529 5.86805 7.68444 5.86644 7.49359 5.86644C7.30288 5.86644 6.99284 5.93452 6.73048 6.20737C6.46826 6.48009 5.72912 7.13899 5.72912 8.47975C5.72912 9.82051 6.75446 11.1157 6.89749 11.2976C7.04052 11.4794 8.91529 14.2307 11.7856 15.4105C12.4683 15.6914 13.0013 15.8588 13.4169 15.9844C14.1025 16.1917 14.7261 16.1624 15.2192 16.0923C15.7691 16.0141 16.912 15.4333 17.1507 14.7971C17.3891 14.1608 17.3891 13.6155 17.3174 13.5017C17.246 13.3881 17.0552 13.32 16.7691 13.1836Z" fill="#B4B4B4"/>
</svg>
