<svg width="23" height="23" viewBox="0 0 23 23" fill="none" xmlns="http://www.w3.org/2000/svg">
<path d="M11.4942 0.0114746C5.14712 0.0114746 0 5.15859 0 11.5057C0 17.8528 5.14712 23 11.4942 23C17.8414 23 22.9885 17.8528 22.9885 11.5057C22.9885 5.15859 17.8414 0.0114746 11.4942 0.0114746Z" fill="#B4B4B4"/>
<path fill-rule="evenodd" clip-rule="evenodd" d="M16.5363 6.45825C15.1985 5.12531 13.4194 4.39092 11.524 4.39014C7.61834 4.39014 4.43973 7.55345 4.43816 11.4414C4.43763 12.6843 4.76387 13.8975 5.38397 14.9669L4.37872 18.6211L8.13502 17.6405C9.17003 18.2024 10.3353 18.4985 11.5211 18.4988H11.5241C15.4292 18.4988 18.6082 15.3352 18.6097 11.4471C18.6105 9.56276 17.8741 7.7911 16.5363 6.45825ZM11.524 17.3079H11.5215C10.4648 17.3074 9.42837 17.0248 8.52401 16.4909L8.30905 16.3638L6.08 16.9458L6.67497 14.7829L6.53489 14.5611C5.94534 13.6279 5.63402 12.5493 5.63455 11.4419C5.63577 8.21028 8.2778 5.58115 11.5263 5.58115C13.0994 5.58167 14.5781 6.19211 15.69 7.3C16.8019 8.40788 17.4139 9.88049 17.4134 11.4466C17.412 14.6785 14.7701 17.3079 11.524 17.3079ZM14.7544 12.9181C14.5774 12.8299 13.7069 12.4037 13.5446 12.3448C13.3824 12.286 13.2643 12.2568 13.1463 12.4331C13.0283 12.6094 12.689 13.0064 12.5857 13.1239C12.4824 13.2415 12.3792 13.2563 12.2021 13.168C12.025 13.0799 11.4546 12.8937 10.7783 12.2934C10.252 11.8262 9.8967 11.2492 9.79336 11.0729C9.6902 10.8964 9.79249 10.8102 9.87104 10.7133C10.0627 10.4764 10.2546 10.2281 10.3136 10.1106C10.3727 9.99297 10.3431 9.89004 10.2988 9.80188C10.2546 9.71372 9.90054 8.84643 9.75304 8.49353C9.60921 8.15009 9.46337 8.19647 9.35462 8.19108C9.25146 8.18596 9.13337 8.18492 9.01529 8.18492C8.89729 8.18492 8.70546 8.22895 8.54312 8.40545C8.38088 8.58186 7.92355 9.00808 7.92355 9.87536C7.92355 10.7427 8.55796 11.5805 8.64646 11.6981C8.73496 11.8157 9.89495 13.5954 11.6709 14.3586C12.0934 14.5403 12.4231 14.6486 12.6803 14.7298C13.1045 14.8639 13.4903 14.845 13.7954 14.7997C14.1356 14.749 14.8428 14.3734 14.9905 13.9618C15.138 13.5502 15.138 13.1975 15.0937 13.1239C15.0495 13.0504 14.9314 13.0064 14.7544 12.9181Z" fill="white"/>
</svg>
