<svg width="396" height="136" viewBox="0 0 396 136" fill="none" xmlns="http://www.w3.org/2000/svg">
<g filter="url(#filter0_d_644:1440)">
<rect x="30" y="20" width="336" height="76" rx="38" fill="white"/>
<circle cx="69.5" cy="58.5" r="28.5" fill="#1ED9A6"/>
<path fill-rule="evenodd" clip-rule="evenodd" d="M80.9145 45.5411C77.8859 42.4461 73.8581 40.7409 69.5672 40.7391C60.7253 40.7391 53.5292 48.0841 53.5257 57.1118C53.5245 59.9976 54.2631 62.8147 55.6669 65.2978L53.3911 73.7826L61.895 71.5056C64.2381 72.8102 66.8761 73.4978 69.5607 73.4986H69.5674C78.4083 73.4986 85.6051 66.1529 85.6085 57.1249C85.6103 52.7496 83.9433 48.6359 80.9145 45.5411ZM69.5672 70.7333H69.5617C67.1693 70.7323 64.823 70.0761 62.7756 68.8363L62.289 68.5413L57.2426 69.8925L58.5896 64.8705L58.2724 64.3556C56.9378 62.1887 56.233 59.6842 56.2342 57.1128C56.2369 49.6092 62.2182 43.5045 69.5725 43.5045C73.1338 43.5057 76.4815 44.9232 78.9987 47.4956C81.5159 50.068 82.9014 53.4874 82.9002 57.1239C82.897 64.628 76.9162 70.7333 69.5672 70.7333ZM76.8806 60.5406C76.4799 60.3356 74.5092 59.3462 74.1417 59.2095C73.7746 59.0729 73.507 59.005 73.2401 59.4144C72.9728 59.8238 72.2047 60.7455 71.9708 61.0183C71.7369 61.2914 71.5033 61.3257 71.1024 61.1208C70.7015 60.9161 69.4101 60.4839 67.879 59.0901C66.6876 58.0052 65.8832 56.6655 65.6493 56.256C65.4157 55.8462 65.6473 55.6462 65.8251 55.4211C66.259 54.8711 66.6935 54.2945 66.8271 54.0216C66.9608 53.7485 66.8939 53.5095 66.7935 53.3048C66.6935 53.1001 65.8919 51.0863 65.558 50.2669C65.2324 49.4695 64.9022 49.5772 64.656 49.5647C64.4225 49.5528 64.1551 49.5503 63.8878 49.5503C63.6207 49.5503 63.1864 49.6526 62.8189 50.0624C62.4516 50.472 61.4162 51.4617 61.4162 53.4755C61.4162 55.4892 62.8525 57.4347 63.0528 57.7077C63.2532 57.9808 65.8793 62.1133 69.8999 63.8852C70.8562 64.3072 71.6027 64.5587 72.185 64.7472C73.1452 65.0586 74.0188 65.0147 74.7095 64.9094C75.4797 64.7918 77.0807 63.9195 77.4151 62.964C77.749 62.0082 77.749 61.1892 77.6486 61.0183C77.5486 60.8477 77.2813 60.7455 76.8806 60.5406Z" fill="white"/>
<path d="M122.19 61.92C121.95 62.08 121.624 62.26 121.21 62.46C120.797 62.66 120.31 62.8333 119.75 62.98C119.204 63.1133 118.604 63.1733 117.95 63.16C116.817 63.1467 115.804 62.9467 114.91 62.56C114.017 62.1733 113.25 61.6467 112.61 60.98C111.984 60.3 111.504 59.5267 111.17 58.66C110.837 57.7933 110.67 56.8667 110.67 55.88C110.67 54.8 110.844 53.8067 111.19 52.9C111.55 51.98 112.05 51.1867 112.69 50.52C113.33 49.84 114.084 49.3133 114.95 48.94C115.83 48.5667 116.79 48.38 117.83 48.38C118.697 48.38 119.484 48.5 120.19 48.74C120.897 48.9667 121.504 49.2333 122.01 49.54L121.23 51.36C120.83 51.0933 120.344 50.84 119.77 50.6C119.197 50.36 118.57 50.24 117.89 50.24C117.184 50.24 116.517 50.3867 115.89 50.68C115.264 50.96 114.71 51.3533 114.23 51.86C113.75 52.3533 113.37 52.94 113.09 53.62C112.824 54.2867 112.69 55.0067 112.69 55.78C112.69 56.82 112.904 57.76 113.33 58.6C113.77 59.4267 114.384 60.08 115.17 60.56C115.97 61.04 116.904 61.28 117.97 61.28C118.717 61.28 119.37 61.1733 119.93 60.96C120.504 60.7333 120.977 60.4733 121.35 60.18L122.19 61.92ZM124.277 58.78C124.277 57.9533 124.47 57.2067 124.857 56.54C125.257 55.8733 125.804 55.3467 126.497 54.96C127.19 54.5733 127.984 54.38 128.877 54.38C129.77 54.38 130.557 54.5733 131.237 54.96C131.917 55.3467 132.444 55.8733 132.817 56.54C133.204 57.2067 133.397 57.9533 133.397 58.78C133.397 59.6067 133.204 60.3533 132.817 61.02C132.444 61.6867 131.91 62.22 131.217 62.62C130.537 63.0067 129.744 63.2 128.837 63.2C127.957 63.2 127.17 63.02 126.477 62.66C125.797 62.3 125.257 61.7867 124.857 61.12C124.47 60.4533 124.277 59.6733 124.277 58.78ZM126.157 58.8C126.157 59.3333 126.27 59.82 126.497 60.26C126.737 60.6867 127.057 61.0267 127.457 61.28C127.857 61.5333 128.31 61.66 128.817 61.66C129.337 61.66 129.797 61.5333 130.197 61.28C130.597 61.0267 130.91 60.6867 131.137 60.26C131.377 59.82 131.497 59.3333 131.497 58.8C131.497 58.2667 131.377 57.7867 131.137 57.36C130.91 56.92 130.597 56.5733 130.197 56.32C129.797 56.0533 129.337 55.92 128.817 55.92C128.31 55.92 127.85 56.0533 127.437 56.32C127.037 56.5867 126.724 56.94 126.497 57.38C126.27 57.8067 126.157 58.28 126.157 58.8ZM137.575 54.72L137.695 56.3C138.015 55.7 138.449 55.2333 138.995 54.9C139.555 54.5533 140.195 54.38 140.915 54.38C141.595 54.38 142.162 54.54 142.615 54.86C143.082 55.18 143.369 55.6133 143.475 56.16C143.809 55.6 144.242 55.1667 144.775 54.86C145.322 54.54 145.902 54.38 146.515 54.38C147.315 54.38 147.949 54.6133 148.415 55.08C148.895 55.5467 149.149 56.14 149.175 56.86V63H147.315V57.56C147.289 57.1333 147.175 56.78 146.975 56.5C146.789 56.2067 146.462 56.0467 145.995 56.02C145.502 56.02 145.069 56.1667 144.695 56.46C144.322 56.74 144.029 57.1133 143.815 57.58C143.602 58.0467 143.489 58.54 143.475 59.06V63H141.595V57.56C141.582 57.1333 141.469 56.78 141.255 56.5C141.055 56.2067 140.715 56.0467 140.235 56.02C139.755 56.02 139.329 56.1667 138.955 56.46C138.582 56.74 138.289 57.1133 138.075 57.58C137.862 58.0467 137.755 58.5467 137.755 59.08V63H135.895V54.72H137.575ZM155.039 63.32C154.279 63.32 153.653 63.0933 153.159 62.64C152.666 62.1733 152.413 61.5733 152.399 60.84V54.72H154.259V60.18C154.286 60.6333 154.419 61 154.659 61.28C154.899 61.56 155.273 61.7067 155.779 61.72C156.233 61.72 156.646 61.5867 157.019 61.32C157.393 61.04 157.686 60.6667 157.899 60.2C158.126 59.72 158.239 59.18 158.239 58.58V54.72H160.099V63H158.419L158.279 61.44C158.013 61.9867 157.586 62.44 156.999 62.8C156.426 63.1467 155.773 63.32 155.039 63.32ZM165.017 54.72L165.137 56.32C165.417 55.7333 165.85 55.2667 166.437 54.92C167.023 54.5733 167.703 54.4 168.477 54.4C169.25 54.4 169.883 54.6333 170.377 55.1C170.883 55.5533 171.15 56.1467 171.177 56.88V63H169.297V57.52C169.27 57.08 169.13 56.72 168.877 56.44C168.637 56.16 168.257 56.0133 167.737 56C167.017 56 166.41 56.2933 165.917 56.88C165.437 57.4533 165.197 58.2 165.197 59.12V63H163.337V54.72H165.017ZM174.391 54.72H176.251V63H174.391V54.72ZM174.251 51.74C174.251 51.4333 174.365 51.1867 174.591 51C174.831 50.8 175.091 50.7 175.371 50.7C175.651 50.7 175.905 50.8 176.131 51C176.358 51.1867 176.471 51.4333 176.471 51.74C176.471 52.0467 176.358 52.3 176.131 52.5C175.905 52.6867 175.651 52.78 175.371 52.78C175.091 52.78 174.831 52.6867 174.591 52.5C174.365 52.3 174.251 52.0467 174.251 51.74ZM186.209 62.22C185.836 62.5267 185.389 62.7667 184.869 62.94C184.349 63.1133 183.829 63.2 183.309 63.2C182.416 63.2 181.622 63.02 180.929 62.66C180.249 62.3 179.716 61.7933 179.329 61.14C178.956 60.4867 178.769 59.72 178.769 58.84C178.769 57.96 178.969 57.2 179.369 56.56C179.782 55.9067 180.316 55.4 180.969 55.04C181.636 54.68 182.356 54.5 183.129 54.5C183.796 54.5 184.389 54.5933 184.909 54.78C185.429 54.9667 185.882 55.22 186.269 55.54L185.329 56.76C185.089 56.5867 184.796 56.4267 184.449 56.28C184.102 56.12 183.716 56.04 183.289 56.04C182.796 56.04 182.349 56.1667 181.949 56.42C181.549 56.66 181.229 56.9933 180.989 57.42C180.749 57.8333 180.629 58.3067 180.629 58.84C180.629 59.36 180.749 59.8333 180.989 60.26C181.229 60.6867 181.562 61.0267 181.989 61.28C182.416 61.5333 182.909 61.66 183.469 61.66C183.816 61.66 184.136 61.6067 184.429 61.5C184.736 61.3933 185.009 61.2467 185.249 61.06L186.209 62.22ZM192.07 63.2C191.284 63.2 190.57 63.0333 189.93 62.7C189.304 62.3667 188.804 61.88 188.43 61.24C188.07 60.5867 187.89 59.7933 187.89 58.86C187.89 57.9267 188.077 57.1267 188.45 56.46C188.837 55.7933 189.35 55.28 189.99 54.92C190.644 54.56 191.357 54.38 192.13 54.38C192.877 54.38 193.51 54.54 194.03 54.86C194.55 55.18 194.957 55.5667 195.25 56.02L195.39 54.72H197.11V63H195.25V61.64C195.09 61.8533 194.857 62.08 194.55 62.32C194.257 62.56 193.897 62.7667 193.47 62.94C193.057 63.1133 192.59 63.2 192.07 63.2ZM192.57 61.66C193.25 61.66 193.83 61.4733 194.31 61.1C194.79 60.7133 195.104 60.1933 195.25 59.54V57.9C195.09 57.3267 194.757 56.8533 194.25 56.48C193.744 56.1067 193.164 55.92 192.51 55.92C192.004 55.92 191.544 56.04 191.13 56.28C190.717 56.52 190.384 56.8533 190.13 57.28C189.89 57.7067 189.77 58.2 189.77 58.76C189.77 59.3067 189.897 59.8 190.15 60.24C190.404 60.6667 190.744 61.0133 191.17 61.28C191.597 61.5333 192.064 61.66 192.57 61.66ZM201.149 51.08H203.029V54.74H205.289V56.22H203.029V63H201.149V56.22H199.629V54.74H201.149V51.08ZM211.396 63.2C210.462 63.2 209.649 63.0133 208.956 62.64C208.276 62.2533 207.749 61.7267 207.376 61.06C207.016 60.3933 206.836 59.64 206.836 58.8C206.836 57.9867 207.036 57.2467 207.436 56.58C207.849 55.9 208.402 55.3667 209.096 54.98C209.802 54.58 210.582 54.38 211.436 54.38C212.529 54.38 213.436 54.7 214.156 55.34C214.876 55.98 215.369 56.86 215.636 57.98L209.076 60.28C209.302 60.6933 209.622 61.02 210.036 61.26C210.449 61.4867 210.916 61.6 211.436 61.6C211.809 61.6 212.162 61.5333 212.496 61.4C212.829 61.2667 213.149 61.0933 213.456 60.88L214.316 62.26C213.889 62.54 213.416 62.7667 212.896 62.94C212.389 63.1133 211.889 63.2 211.396 63.2ZM208.676 58.7C208.662 58.86 208.669 59.0133 208.696 59.16L213.516 57.38C213.329 56.98 213.056 56.6267 212.696 56.32C212.349 56.0133 211.882 55.86 211.296 55.86C210.536 55.86 209.909 56.1267 209.416 56.66C208.922 57.1933 208.676 57.8733 208.676 58.7ZM230.994 62.22C230.621 62.5267 230.174 62.7667 229.654 62.94C229.134 63.1133 228.614 63.2 228.094 63.2C227.201 63.2 226.408 63.02 225.714 62.66C225.034 62.3 224.501 61.7933 224.114 61.14C223.741 60.4867 223.554 59.72 223.554 58.84C223.554 57.96 223.754 57.2 224.154 56.56C224.568 55.9067 225.101 55.4 225.754 55.04C226.421 54.68 227.141 54.5 227.914 54.5C228.581 54.5 229.174 54.5933 229.694 54.78C230.214 54.9667 230.668 55.22 231.054 55.54L230.114 56.76C229.874 56.5867 229.581 56.4267 229.234 56.28C228.888 56.12 228.501 56.04 228.074 56.04C227.581 56.04 227.134 56.1667 226.734 56.42C226.334 56.66 226.014 56.9933 225.774 57.42C225.534 57.8333 225.414 58.3067 225.414 58.84C225.414 59.36 225.534 59.8333 225.774 60.26C226.014 60.6867 226.348 61.0267 226.774 61.28C227.201 61.5333 227.694 61.66 228.254 61.66C228.601 61.66 228.921 61.6067 229.214 61.5C229.521 61.3933 229.794 61.2467 230.034 61.06L230.994 62.22ZM232.675 58.78C232.675 57.9533 232.869 57.2067 233.255 56.54C233.655 55.8733 234.202 55.3467 234.895 54.96C235.589 54.5733 236.382 54.38 237.275 54.38C238.169 54.38 238.955 54.5733 239.635 54.96C240.315 55.3467 240.842 55.8733 241.215 56.54C241.602 57.2067 241.795 57.9533 241.795 58.78C241.795 59.6067 241.602 60.3533 241.215 61.02C240.842 61.6867 240.309 62.22 239.615 62.62C238.935 63.0067 238.142 63.2 237.235 63.2C236.355 63.2 235.569 63.02 234.875 62.66C234.195 62.3 233.655 61.7867 233.255 61.12C232.869 60.4533 232.675 59.6733 232.675 58.78ZM234.555 58.8C234.555 59.3333 234.669 59.82 234.895 60.26C235.135 60.6867 235.455 61.0267 235.855 61.28C236.255 61.5333 236.709 61.66 237.215 61.66C237.735 61.66 238.195 61.5333 238.595 61.28C238.995 61.0267 239.309 60.6867 239.535 60.26C239.775 59.82 239.895 59.3333 239.895 58.8C239.895 58.2667 239.775 57.7867 239.535 57.36C239.309 56.92 238.995 56.5733 238.595 56.32C238.195 56.0533 237.735 55.92 237.215 55.92C236.709 55.92 236.249 56.0533 235.835 56.32C235.435 56.5867 235.122 56.94 234.895 57.38C234.669 57.8067 234.555 58.28 234.555 58.8ZM245.974 54.72L246.094 56.32C246.374 55.7333 246.807 55.2667 247.394 54.92C247.98 54.5733 248.66 54.4 249.434 54.4C250.207 54.4 250.84 54.6333 251.334 55.1C251.84 55.5533 252.107 56.1467 252.134 56.88V63H250.254V57.52C250.227 57.08 250.087 56.72 249.834 56.44C249.594 56.16 249.214 56.0133 248.694 56C247.974 56 247.367 56.2933 246.874 56.88C246.394 57.4533 246.154 58.2 246.154 59.12V63H244.294V54.72H245.974ZM263.357 54.72L263.477 56.32C263.757 55.7333 264.19 55.2667 264.777 54.92C265.363 54.5733 266.043 54.4 266.817 54.4C267.59 54.4 268.223 54.6333 268.717 55.1C269.223 55.5533 269.49 56.1467 269.517 56.88V63H267.637V57.52C267.61 57.08 267.47 56.72 267.217 56.44C266.977 56.16 266.597 56.0133 266.077 56C265.357 56 264.75 56.2933 264.257 56.88C263.777 57.4533 263.537 58.2 263.537 59.12V63H261.677V54.72H263.357ZM272.011 58.78C272.011 57.9533 272.205 57.2067 272.591 56.54C272.991 55.8733 273.538 55.3467 274.231 54.96C274.925 54.5733 275.718 54.38 276.611 54.38C277.505 54.38 278.291 54.5733 278.971 54.96C279.651 55.3467 280.178 55.8733 280.551 56.54C280.938 57.2067 281.131 57.9533 281.131 58.78C281.131 59.6067 280.938 60.3533 280.551 61.02C280.178 61.6867 279.645 62.22 278.951 62.62C278.271 63.0067 277.478 63.2 276.571 63.2C275.691 63.2 274.905 63.02 274.211 62.66C273.531 62.3 272.991 61.7867 272.591 61.12C272.205 60.4533 272.011 59.6733 272.011 58.78ZM273.891 58.8C273.891 59.3333 274.005 59.82 274.231 60.26C274.471 60.6867 274.791 61.0267 275.191 61.28C275.591 61.5333 276.045 61.66 276.551 61.66C277.071 61.66 277.531 61.5333 277.931 61.28C278.331 61.0267 278.645 60.6867 278.871 60.26C279.111 59.82 279.231 59.3333 279.231 58.8C279.231 58.2667 279.111 57.7867 278.871 57.36C278.645 56.92 278.331 56.5733 277.931 56.32C277.531 56.0533 277.071 55.92 276.551 55.92C276.045 55.92 275.585 56.0533 275.171 56.32C274.771 56.5867 274.458 56.94 274.231 57.38C274.005 57.8067 273.891 58.28 273.891 58.8ZM285.97 63.16C285.37 63.16 284.79 63.06 284.23 62.86C283.683 62.6467 283.23 62.3333 282.87 61.92L283.67 60.84C284.003 61.1733 284.356 61.4267 284.73 61.6C285.103 61.76 285.463 61.84 285.81 61.84C286.21 61.84 286.556 61.76 286.85 61.6C287.156 61.44 287.31 61.1667 287.31 60.78C287.31 60.4867 287.21 60.2533 287.01 60.08C286.823 59.9067 286.576 59.7733 286.27 59.68C285.976 59.5733 285.67 59.4667 285.35 59.36C283.936 58.9067 283.23 58.1 283.23 56.94C283.23 56.5133 283.336 56.1067 283.55 55.72C283.776 55.3333 284.103 55.02 284.53 54.78C284.97 54.54 285.51 54.42 286.15 54.42C286.723 54.42 287.236 54.4933 287.69 54.64C288.143 54.7867 288.57 55.02 288.97 55.34L288.23 56.48C287.99 56.24 287.703 56.06 287.37 55.94C287.05 55.8067 286.756 55.7333 286.49 55.72C286.13 55.72 285.81 55.8067 285.53 55.98C285.263 56.1533 285.13 56.3933 285.13 56.7C285.116 56.98 285.203 57.2067 285.39 57.38C285.576 57.54 285.816 57.6733 286.11 57.78C286.416 57.8867 286.723 57.9867 287.03 58.08C287.63 58.28 288.136 58.5533 288.55 58.9C288.976 59.2467 289.19 59.7533 289.19 60.42C289.19 61.1667 288.923 61.8133 288.39 62.36C287.856 62.8933 287.05 63.16 285.97 63.16ZM291.074 58.78C291.074 57.9533 291.267 57.2067 291.654 56.54C292.054 55.8733 292.6 55.3467 293.294 54.96C293.987 54.5733 294.78 54.38 295.674 54.38C296.567 54.38 297.354 54.5733 298.034 54.96C298.714 55.3467 299.24 55.8733 299.614 56.54C300 57.2067 300.194 57.9533 300.194 58.78C300.194 59.6067 300 60.3533 299.614 61.02C299.24 61.6867 298.707 62.22 298.014 62.62C297.334 63.0067 296.54 63.2 295.634 63.2C294.754 63.2 293.967 63.02 293.274 62.66C292.594 62.3 292.054 61.7867 291.654 61.12C291.267 60.4533 291.074 59.6733 291.074 58.78ZM292.954 58.8C292.954 59.3333 293.067 59.82 293.294 60.26C293.534 60.6867 293.854 61.0267 294.254 61.28C294.654 61.5333 295.107 61.66 295.614 61.66C296.134 61.66 296.594 61.5333 296.994 61.28C297.394 61.0267 297.707 60.6867 297.934 60.26C298.174 59.82 298.294 59.3333 298.294 58.8C298.294 58.2667 298.174 57.7867 297.934 57.36C297.707 56.92 297.394 56.5733 296.994 56.32C296.594 56.0533 296.134 55.92 295.614 55.92C295.107 55.92 294.647 56.0533 294.234 56.32C293.834 56.5867 293.52 56.94 293.294 57.38C293.067 57.8067 292.954 58.28 292.954 58.8ZM303.492 51.08H305.372V54.74H307.632V56.22H305.372V63H303.492V56.22H301.972V54.74H303.492V51.08ZM311.559 54.72L311.699 56.66C311.926 56.1933 312.239 55.7933 312.639 55.46C313.039 55.1133 313.453 54.8533 313.879 54.68C314.319 54.4933 314.699 54.3933 315.019 54.38L314.939 56.24C314.313 56.2133 313.759 56.34 313.279 56.62C312.799 56.8867 312.426 57.2533 312.159 57.72C311.893 58.1867 311.759 58.6867 311.759 59.22V63H309.899V54.72H311.559ZM316.347 58.78C316.347 57.9533 316.541 57.2067 316.927 56.54C317.327 55.8733 317.874 55.3467 318.567 54.96C319.261 54.5733 320.054 54.38 320.947 54.38C321.841 54.38 322.627 54.5733 323.307 54.96C323.987 55.3467 324.514 55.8733 324.887 56.54C325.274 57.2067 325.467 57.9533 325.467 58.78C325.467 59.6067 325.274 60.3533 324.887 61.02C324.514 61.6867 323.981 62.22 323.287 62.62C322.607 63.0067 321.814 63.2 320.907 63.2C320.027 63.2 319.241 63.02 318.547 62.66C317.867 62.3 317.327 61.7867 316.927 61.12C316.541 60.4533 316.347 59.6733 316.347 58.78ZM318.227 58.8C318.227 59.3333 318.341 59.82 318.567 60.26C318.807 60.6867 319.127 61.0267 319.527 61.28C319.927 61.5333 320.381 61.66 320.887 61.66C321.407 61.66 321.867 61.5333 322.267 61.28C322.667 61.0267 322.981 60.6867 323.207 60.26C323.447 59.82 323.567 59.3333 323.567 58.8C323.567 58.2667 323.447 57.7867 323.207 57.36C322.981 56.92 322.667 56.5733 322.267 56.32C321.867 56.0533 321.407 55.92 320.887 55.92C320.381 55.92 319.921 56.0533 319.507 56.32C319.107 56.5867 318.794 56.94 318.567 57.38C318.341 57.8067 318.227 58.28 318.227 58.8ZM330.306 63.16C329.706 63.16 329.126 63.06 328.566 62.86C328.019 62.6467 327.566 62.3333 327.206 61.92L328.006 60.84C328.339 61.1733 328.692 61.4267 329.066 61.6C329.439 61.76 329.799 61.84 330.146 61.84C330.546 61.84 330.892 61.76 331.186 61.6C331.492 61.44 331.646 61.1667 331.646 60.78C331.646 60.4867 331.546 60.2533 331.346 60.08C331.159 59.9067 330.912 59.7733 330.606 59.68C330.312 59.5733 330.006 59.4667 329.686 59.36C328.272 58.9067 327.566 58.1 327.566 56.94C327.566 56.5133 327.672 56.1067 327.886 55.72C328.112 55.3333 328.439 55.02 328.866 54.78C329.306 54.54 329.846 54.42 330.486 54.42C331.059 54.42 331.572 54.4933 332.026 54.64C332.479 54.7867 332.906 55.02 333.306 55.34L332.566 56.48C332.326 56.24 332.039 56.06 331.706 55.94C331.386 55.8067 331.092 55.7333 330.826 55.72C330.466 55.72 330.146 55.8067 329.866 55.98C329.599 56.1533 329.466 56.3933 329.466 56.7C329.452 56.98 329.539 57.2067 329.726 57.38C329.912 57.54 330.152 57.6733 330.446 57.78C330.752 57.8867 331.059 57.9867 331.366 58.08C331.966 58.28 332.472 58.5533 332.886 58.9C333.312 59.2467 333.526 59.7533 333.526 60.42C333.526 61.1667 333.259 61.8133 332.726 62.36C332.192 62.8933 331.386 63.16 330.306 63.16Z" fill="#1ED9A6"/>
</g>
<defs>
<filter id="filter0_d_644:1440" x="0" y="0" width="396" height="136" filterUnits="userSpaceOnUse" color-interpolation-filters="sRGB">
<feFlood flood-opacity="0" result="BackgroundImageFix"/>
<feColorMatrix in="SourceAlpha" type="matrix" values="0 0 0 0 0 0 0 0 0 0 0 0 0 0 0 0 0 0 127 0" result="hardAlpha"/>
<feOffset dy="10"/>
<feGaussianBlur stdDeviation="15"/>
<feColorMatrix type="matrix" values="0 0 0 0 0 0 0 0 0 0 0 0 0 0 0 0 0 0 0.1 0"/>
<feBlend mode="normal" in2="BackgroundImageFix" result="effect1_dropShadow_644:1440"/>
<feBlend mode="normal" in="SourceGraphic" in2="effect1_dropShadow_644:1440" result="shape"/>
</filter>
</defs>
</svg>
